  0
SECTION
  2
HEADER
  9
$ACADVER
  1
AC1015
  9
$ACADMAINTVER
 70
     6
  9
$DWGCODEPAGE
  3
ANSI_1252
  9
$INSBASE
 10
0.0
 20
0.0
 30
0.0
  9
$EXTMIN
 10
0.0
 20
0.0
 30
0.0
  9
$EXTMAX
 10
609.6
 20
609.6
 30
0.0
  9
$LIMMIN
 10
0.0
 20
0.0
  9
$LIMMAX
 10
609.6
 20
609.6
  9
$ORTHOMODE
 70
     0
  9
$REGENMODE
 70
     1
  9
$FILLMODE
 70
     1
  9
$QTEXTMODE
 70
     0
  9
$MIRRTEXT
 70
     1
  9
$LTSCALE
 40
1.0
  9
$ATTMODE
 70
     1
  9
$TEXTSIZE
 40
3.175
  9
$TRACEWID
 40
1.0
  9
$TEXTSTYLE
  7
Standard
  9
$CLAYER
  8
0
  9
$CELTYPE
  6
ByLayer
  9
$CECOLOR
 62
   256
  9
$CELTSCALE
 40
1.0
  9
$DISPSILH
 70
     0
  9
$DIMSCALE
 40
1.0
  9
$DIMASZ
 40
3.302
  9
$DIMEXO
 40
1.27
  9
$DIMDLI
 40
3.75
  9
$DIMRND
 40
0.0
  9
$DIMDLE
 40
0.0
  9
$DIMEXE
 40
3.175
  9
$DIMTP
 40
0.0
  9
$DIMTM
 40
0.0
  9
$DIMTXT
 40
3.175
  9
$DIMCEN
 40
2.5
  9
$DIMTSZ
 40
0.0
  9
$DIMTOL
 70
     0
  9
$DIMLIM
 70
     0
  9
$DIMTIH
 70
     1
  9
$DIMTOH
 70
     1
  9
$DIMSE1
 70
     0
  9
$DIMSE2
 70
     0
  9
$DIMTAD
 70
     0
  9
$DIMZIN
 70
     1
  9
$DIMBLK
  1

  9
$DIMASO
 70
     1
  9
$DIMSHO
 70
     1
  9
$DIMPOST
  1

  9
$DIMAPOST
  1

  9
$DIMALT
 70
     0
  9
$DIMALTD
 70
     3
  9
$DIMALTF
 40
0.0393700787
  9
$DIMLFAC
 40
5.0
  9
$DIMTOFL
 70
     1
  9
$DIMTVP
 40
0.0
  9
$DIMTIX
 70
     0
  9
$DIMSOXD
 70
     0
  9
$DIMSAH
 70
     0
  9
$DIMBLK1
  1

  9
$DIMBLK2
  1

  9
$DIMSTYLE
  2
ISO-25
  9
$DIMCLRD
 70
     0
  9
$DIMCLRE
 70
     0
  9
$DIMCLRT
 70
     0
  9
$DIMTFAC
 40
1.0
  9
$DIMGAP
 40
1.524
  9
$DIMJUST
 70
     0
  9
$DIMSD1
 70
     0
  9
$DIMSD2
 70
     0
  9
$DIMTOLJ
 70
     0
  9
$DIMTZIN
 70
     1
  9
$DIMALTZ
 70
     0
  9
$DIMALTTZ
 70
     0
  9
$DIMUPT
 70
     0
  9
$DIMDEC
 70
     2
  9
$DIMTDEC
 70
     2
  9
$DIMALTU
 70
     2
  9
$DIMALTTD
 70
     3
  9
$DIMTXSTY
  7
Standard
  9
$DIMAUNIT
 70
     0
  9
$DIMADEC
 70
     2
  9
$DIMALTRND
 40
0.0
  9
$DIMAZIN
 70
     0
  9
$DIMDSEP
 70
    44
  9
$DIMATFIT
 70
     3
  9
$DIMFRAC
 70
     0
  9
$DIMLDRBLK
  1

  9
$DIMLUNIT
 70
     2
  9
$DIMLWD
 70
    -2
  9
$DIMLWE
 70
    -2
  9
$DIMTMOVE
 70
     0
  9
$LUNITS
 70
     2
  9
$LUPREC
 70
     2
  9
$SKETCHINC
 40
1.0
  9
$FILLETRAD
 40
10.0
  9
$AUNITS
 70
     0
  9
$AUPREC
 70
     2
  9
$MENU
  1
.
  9
$ELEVATION
 40
0.0
  9
$PELEVATION
 40
0.0
  9
$THICKNESS
 40
0.0
  9
$LIMCHECK
 70
     0
  9
$CHAMFERA
 40
0.0
  9
$CHAMFERB
 40
0.0
  9
$CHAMFERC
 40
0.0
  9
$CHAMFERD
 40
0.0
  9
$SKPOLY
 70
     0
  9
$TDCREATE
 40
2458797.505599525
  9
$TDUCREATE
 40
2458797.838932859
  9
$TDUPDATE
 40
2458797.50560022
  9
$TDUUPDATE
 40
2458797.838933553
  9
$TDINDWG
 40
0.0000000116
  9
$TDUSRTIMER
 40
0.0000000116
  9
$USRTIMER
 70
     1
  9
$ANGBASE
 50
0.0
  9
$ANGDIR
 70
     0
  9
$PDMODE
 70
     0
  9
$PDSIZE
 40
-1.0
  9
$PLINEWID
 40
0.0
  9
$SPLFRAME
 70
     0
  9
$SPLINETYPE
 70
     6
  9
$SPLINESEGS
 70
     8
  9
$HANDSEED
  5
308
  9
$SURFTAB1
 70
     6
  9
$SURFTAB2
 70
     6
  9
$SURFTYPE
 70
     6
  9
$SURFU
 70
     6
  9
$SURFV
 70
     6
  9
$UCSBASE
  2

  9
$UCSNAME
  2

  9
$UCSORG
 10
0.0
 20
0.0
 30
0.0
  9
$UCSXDIR
 10
1.0
 20
0.0
 30
0.0
  9
$UCSYDIR
 10
0.0
 20
1.0
 30
0.0
  9
$UCSORTHOREF
  2

  9
$UCSORTHOVIEW
 70
     0
  9
$UCSORGTOP
 10
0.0
 20
0.0
 30
0.0
  9
$UCSORGBOTTOM
 10
0.0
 20
0.0
 30
0.0
  9
$UCSORGLEFT
 10
0.0
 20
0.0
 30
0.0
  9
$UCSORGRIGHT
 10
0.0
 20
0.0
 30
0.0
  9
$UCSORGFRONT
 10
0.0
 20
0.0
 30
0.0
  9
$UCSORGBACK
 10
0.0
 20
0.0
 30
0.0
  9
$PUCSBASE
  2

  9
$PUCSNAME
  2

  9
$PUCSORG
 10
0.0
 20
0.0
 30
0.0
  9
$PUCSXDIR
 10
1.0
 20
0.0
 30
0.0
  9
$PUCSYDIR
 10
0.0
 20
1.0
 30
0.0
  9
$PUCSORTHOREF
  2

  9
$PUCSORTHOVIEW
 70
     0
  9
$PUCSORGTOP
 10
0.0
 20
0.0
 30
0.0
  9
$PUCSORGBOTTOM
 10
0.0
 20
0.0
 30
0.0
  9
$PUCSORGLEFT
 10
0.0
 20
0.0
 30
0.0
  9
$PUCSORGRIGHT
 10
0.0
 20
0.0
 30
0.0
  9
$PUCSORGFRONT
 10
0.0
 20
0.0
 30
0.0
  9
$PUCSORGBACK
 10
0.0
 20
0.0
 30
0.0
  9
$USERI1
 70
     0
  9
$USERI2
 70
     0
  9
$USERI3
 70
     0
  9
$USERI4
 70
     0
  9
$USERI5
 70
     0
  9
$USERR1
 40
0.0
  9
$USERR2
 40
0.0
  9
$USERR3
 40
0.0
  9
$USERR4
 40
0.0
  9
$USERR5
 40
0.0
  9
$WORLDVIEW
 70
     1
  9
$SHADEDGE
 70
     3
  9
$SHADEDIF
 70
    70
  9
$TILEMODE
 70
     1
  9
$MAXACTVP
 70
    64
  9
$PINSBASE
 10
0.0
 20
0.0
 30
0.0
  9
$PLIMCHECK
 70
     0
  9
$PEXTMIN
 10
1.0000000000E+20
 20
1.0000000000E+20
 30
1.0000000000E+20
  9
$PEXTMAX
 10
-1.0000000000E+20
 20
-1.0000000000E+20
 30
-1.0000000000E+20
  9
$PLIMMIN
 10
0.0
 20
0.0
  9
$PLIMMAX
 10
420.0
 20
297.0
  9
$UNITMODE
 70
     0
  9
$VISRETAIN
 70
     1
  9
$PLINEGEN
 70
     0
  9
$PSLTSCALE
 70
     1
  9
$TREEDEPTH
 70
  3020
  9
$CMLSTYLE
  2
Standard
  9
$CMLJUST
 70
     0
  9
$CMLSCALE
 40
20.0
  9
$PROXYGRAPHICS
 70
     1
  9
$MEASUREMENT
 70
     1
  9
$CELWEIGHT
370
    -1
  9
$ENDCAPS
280
     0
  9
$JOINSTYLE
280
     0
  9
$LWDISPLAY
290
     1
  9
$INSUNITS
 70
     4
  9
$HYPERLINKBASE
  1

  9
$STYLESHEET
  1

  9
$XEDIT
290
     1
  9
$CEPSNTYPE
380
     0
  9
$PSTYLEMODE
290
     1
  9
$FINGERPRINTGUID
  2
{3BD5C0E2-EF6B-4220-8958-4AE074E90BE4}
  9
$VERSIONGUID
  2
{FAEB1C32-E019-11D5-929B-00C0DF256EC4}
  9
$EXTNAMES
290
     1
  9
$PSVPSCALE
 40
0.0
  9
$OLESTARTUP
290
     0
  0
ENDSEC
  0
SECTION
  2
CLASSES
  0
CLASS
  1
ACDBDICTIONARYWDFLT
  2
AcDbDictionaryWithDefault
  3
ObjectDBX Classes
 90
        0
280
     0
281
     0
  0
CLASS
  1
VISUALSTYLE
  2
AcDbVisualStyle
  3
ObjectDBX Classes
 90
     4095
280
     0
281
     0
  0
CLASS
  1
MATERIAL
  2
AcDbMaterial
  3
ObjectDBX Classes
 90
     1153
280
     0
281
     0
  0
CLASS
  1
SCALE
  2
AcDbScale
  3
ObjectDBX Classes
 90
     1153
280
     0
281
     0
  0
CLASS
  1
TABLESTYLE
  2
AcDbTableStyle
  3
ObjectDBX Classes
 90
     4095
280
     0
281
     0
  0
CLASS
  1
MLEADERSTYLE
  2
AcDbMLeaderStyle
  3
ACDB_MLEADERSTYLE_CLASS
 90
     4095
280
     0
281
     0
  0
CLASS
  1
SUN
  2
AcDbSun
  3
SCENEOE
 90
     1153
280
     0
281
     0
  0
CLASS
  1
ACDBPLACEHOLDER
  2
AcDbPlaceHolder
  3
ObjectDBX Classes
 90
        0
280
     0
281
     0
  0
CLASS
  1
LAYOUT
  2
AcDbLayout
  3
ObjectDBX Classes
 90
        0
280
     0
281
     0
  0
ENDSEC
  0
SECTION
  2
TABLES
  0
TABLE
  2
VPORT
  5
8
330
0
100
AcDbSymbolTable
 70
     1
  0
VPORT
  5
29
330
8
100
AcDbSymbolTableRecord
100
AcDbViewportTableRecord
  2
*Active
 70
     0
 10
0.0
 20
0.0
 11
1.0
 21
1.0
 12
304.8
 22
304.8
 13
0.0
 23
0.0
 14
10.0
 24
10.0
 15
10.0
 25
10.0
 16
0.0
 26
0.0
 36
1.0
 17
0.0
 27
0.0
 37
0.0
 40
609.6
 41
1.0
 42
50.0
 43
0.0
 44
0.0
 50
0.0
 51
0.0
 71
     0
 72
  2000
 73
     1
 74
     3
 75
     0
 76
     0
 77
     0
 78
     0
281
     0
 65
     1
110
0.0
120
0.0
130
0.0
111
1.0
121
0.0
131
0.0
112
0.0
122
1.0
132
0.0
 79
     0
146
0.0
  0
ENDTAB
  0
TABLE
  2
LTYPE
  5
5
330
0
100
AcDbSymbolTable
 70
     6
  0
LTYPE
  5
14
330
5
100
AcDbSymbolTableRecord
100
AcDbLinetypeTableRecord
  2
ByBlock
 70
     0
  3

 72
    65
 73
     0
 40
0.0
  0
LTYPE
  5
15
330
5
100
AcDbSymbolTableRecord
100
AcDbLinetypeTableRecord
  2
ByLayer
 70
     0
  3

 72
    65
 73
     0
 40
0.0
  0
LTYPE
  5
16
330
5
100
AcDbSymbolTableRecord
100
AcDbLinetypeTableRecord
  2
Continuous
 70
     0
  3
Solid line
 72
    65
 73
     0
 40
0.0
  0
LTYPE
  5
6E
330
5
100
AcDbSymbolTableRecord
100
AcDbLinetypeTableRecord
  2
HIDDEN
 70
     0
  3
Hidden __ __ __ __ __ __ __ __ __ __ __ __ __ __
 72
    65
 73
     2
 40
1.905
 49
1.27
 74
     0
 49
-0.635
 74
     0
  0
LTYPE
  5
6F
330
5
100
AcDbSymbolTableRecord
100
AcDbLinetypeTableRecord
  2
PHANTOM
 70
     0
  3
Phantom ______  __  __  ______  __  __  ______
 72
    65
 73
     6
 40
12.7
 49
6.35
 74
     0
 49
-1.27
 74
     0
 49
1.27
 74
     0
 49
-1.27
 74
     0
 49
1.27
 74
     0
 49
-1.27
 74
     0
  0
LTYPE
  5
70
330
5
100
AcDbSymbolTableRecord
100
AcDbLinetypeTableRecord
  2
CENTER
 70
     0
  3
Center ____ _ ____ _ ____ _ ____ _ ____ _ ____
 72
    65
 73
     4
 40
10.16
 49
6.35
 74
     0
 49
-1.27
 74
     0
 49
1.27
 74
     0
 49
-1.27
 74
     0
  0
LTYPE
  5
71
330
5
100
AcDbSymbolTableRecord
100
AcDbLinetypeTableRecord
  2
CENTERX2
 70
     0
  3
Center (2x) ________  __  ________  __  _____
 72
    65
 73
     4
 40
20.32
 49
12.7
 74
     0
 49
-2.54
 74
     0
 49
2.54
 74
     0
 49
-2.54
 74
     0
  0
LTYPE
  5
72
330
5
100
AcDbSymbolTableRecord
100
AcDbLinetypeTableRecord
  2
DOT2
 70
     0
  3
Dot (.5x) ........................................
 72
    65
 73
     2
 40
0.635
 49
0.0
 74
     0
 49
-0.635
 74
     0
  0
ENDTAB
  0
TABLE
  2
LAYER
  5
2
330
0
100
AcDbSymbolTable
 70
     1
  0
LAYER
  5
10
330
2
100
AcDbSymbolTableRecord
100
AcDbLayerTableRecord
  2
0
 70
     0
 62
     7
  6
Continuous
370
    -3
390
F
  0
ENDTAB
  0
TABLE
  2
STYLE
  5
3
330
0
100
AcDbSymbolTable
 70
     1
  0
STYLE
  5
11
330
3
100
AcDbSymbolTableRecord
100
AcDbTextStyleTableRecord
  2
Standard
 70
     0
 40
0.0
 41
1.0
 50
0.0
 71
     0
 42
3.175
  3
txt
  4

  0
ENDTAB
  0
TABLE
  2
VIEW
  5
6
330
0
100
AcDbSymbolTable
 70
     0
  0
ENDTAB
  0
TABLE
  2
UCS
  5
7
330
0
100
AcDbSymbolTable
 70
     0
  0
ENDTAB
  0
TABLE
  2
APPID
  5
9
330
0
100
AcDbSymbolTable
 70
     1
  0
APPID
  5
12
330
9
100
AcDbSymbolTableRecord
100
AcDbRegAppTableRecord
  2
ACAD
 70
     0
  0
ENDTAB
  0
TABLE
  2
DIMSTYLE
  5
A
330
0
100
AcDbSymbolTable
 70
     1
100
AcDbDimStyleTable
  0
DIMSTYLE
105
27
330
A
100
AcDbSymbolTableRecord
100
AcDbDimStyleTableRecord
  2
ISO-25
 70
     0
 41
2.5
 42
0.625
 43
3.75
 44
1.25
 73
     0
 74
     0
 77
     1
 78
     8
140
2.5
141
2.5
143
0.0393700787
147
0.625
171
     3
172
     1
178
     0
271
     2
272
     2
274
     3
278
    44
283
     0
284
     8
340
11
  0
ENDTAB
  0
TABLE
  2
BLOCK_RECORD
  5
1
330
0
100
AcDbSymbolTable
 70
     2
  0
BLOCK_RECORD
  5
1F
330
1
100
AcDbSymbolTableRecord
100
AcDbBlockTableRecord
  2
*Model_Space
340
22
  0
BLOCK_RECORD
  5
1B
330
1
100
AcDbSymbolTableRecord
100
AcDbBlockTableRecord
  2
*Paper_Space
340
1E
  0
BLOCK_RECORD
  5
23
330
1
100
AcDbSymbolTableRecord
100
AcDbBlockTableRecord
  2
*Paper_Space0
340
26
  0
BLOCK_RECORD
  5
2FC
330
1
100
AcDbSymbolTableRecord
100
AcDbBlockTableRecord
  2
SW_CENTERMARKSYMBOL_0
340
0
102
{BLKREFS
331
307
102
}
  0
ENDTAB
  0
ENDSEC
  0
SECTION
  2
BLOCKS
  0
BLOCK
  5
20
330
1F
100
AcDbEntity
  8
0
100
AcDbBlockBegin
  2
*Model_Space
 70
     0
 10
0.0
 20
0.0
 30
0.0
  3
*Model_Space
  1

  0
ENDBLK
  5
21
330
1F
100
AcDbEntity
  8
0
100
AcDbBlockEnd
  0
BLOCK
  5
1C
330
1B
100
AcDbEntity
 67
     1
  8
0
100
AcDbBlockBegin
  2
*Paper_Space
 70
     0
 10
0.0
 20
0.0
 30
0.0
  3
*Paper_Space
  1

  0
ENDBLK
  5
1D
330
1B
100
AcDbEntity
 67
     1
  8
0
100
AcDbBlockEnd
  0
BLOCK
  5
24
330
23
100
AcDbEntity
  8
0
100
AcDbBlockBegin
  2
*Paper_Space0
 70
     0
 10
0.0
 20
0.0
 30
0.0
  3
*Paper_Space0
  1

  0
ENDBLK
  5
25
330
23
100
AcDbEntity
  8
0
100
AcDbBlockEnd
  0
BLOCK
  5
2FD
330
2FC
100
AcDbEntity
  8
0
100
AcDbBlockBegin
  2
SW_CENTERMARKSYMBOL_0
 70
     0
 10
0.0
 20
0.0
 30
0.0
  3
SW_CENTERMARKSYMBOL_0
  1

  0
LINE
  5
2FF
330
2FC
100
AcDbEntity
  8
0
  6
Continuous
 62
     0
370
    18
100
AcDbLine
 10
0.0
 20
0.0
 30
0.0
 11
0.0
 21
2.54
 31
0.0
  0
LINE
  5
300
330
2FC
100
AcDbEntity
  8
0
  6
Continuous
 62
     0
370
    18
100
AcDbLine
 10
0.0
 20
0.0
 30
0.0
 11
-2.54
 21
0.0
 31
0.0
  0
LINE
  5
301
330
2FC
100
AcDbEntity
  8
0
  6
Continuous
 62
     0
370
    18
100
AcDbLine
 10
0.0
 20
0.0
 30
0.0
 11
0.0
 21
-2.54
 31
0.0
  0
LINE
  5
302
330
2FC
100
AcDbEntity
  8
0
  6
Continuous
 62
     0
370
    18
100
AcDbLine
 10
0.0
 20
0.0
 30
0.0
 11
2.54
 21
0.0
 31
0.0
  0
LINE
  5
303
330
2FC
100
AcDbEntity
  8
0
  6
Continuous
 62
     0
370
    18
100
AcDbLine
 10
0.0
 20
5.08
 30
0.0
 11
0.0
 21
24.13
 31
0.0
  0
LINE
  5
304
330
2FC
100
AcDbEntity
  8
0
  6
Continuous
 62
     0
370
    18
100
AcDbLine
 10
-5.08
 20
0.0
 30
0.0
 11
-24.13
 21
0.0
 31
0.0
  0
LINE
  5
305
330
2FC
100
AcDbEntity
  8
0
  6
Continuous
 62
     0
370
    18
100
AcDbLine
 10
0.0
 20
-5.08
 30
0.0
 11
0.0
 21
-24.13
 31
0.0
  0
LINE
  5
306
330
2FC
100
AcDbEntity
  8
0
  6
Continuous
 62
     0
370
    18
100
AcDbLine
 10
5.08
 20
0.0
 30
0.0
 11
24.13
 21
0.0
 31
0.0
  0
ENDBLK
  5
2FE
330
2FC
100
AcDbEntity
  8
0
100
AcDbBlockEnd
  0
ENDSEC
  0
SECTION
  2
ENTITIES
  0
LINE
  5
73
330
1F
100
AcDbEntity
  8
0
  6
Continuous
 62
     7
370
    25
100
AcDbLine
 10
303.9793137539
 20
548.7974269852
 30
0.0
 11
324.9793153334
 21
548.7974269852
 31
0.0
  0
LINE
  5
74
330
1F
100
AcDbEntity
  8
0
  6
Continuous
 62
     7
370
    25
100
AcDbLine
 10
303.9793137539
 20
558.957396315
 30
0.0
 11
303.9793137539
 21
548.7974269852
 31
0.0
  0
LINE
  5
75
330
1F
100
AcDbEntity
  8
0
  6
Continuous
 62
     7
370
    25
100
AcDbLine
 10
303.9793137539
 20
558.957396315
 30
0.0
 11
283.4793169129
 21
558.957396315
 31
0.0
  0
LINE
  5
76
330
1F
100
AcDbEntity
  8
0
  6
Continuous
 62
     7
370
    25
100
AcDbLine
 10
324.9793153334
 20
561.4973886475
 30
0.0
 11
324.9793153334
 21
548.7974269852
 31
0.0
  0
LINE
  5
77
330
1F
100
AcDbEntity
  8
0
  6
Continuous
 62
     7
370
    25
100
AcDbLine
 10
316.4793130088
 20
559.4974143967
 30
0.0
 11
312.4793160785
 21
559.4974143967
 31
0.0
  0
LINE
  5
78
330
1F
100
AcDbEntity
  8
0
  6
Continuous
 62
     7
370
    25
100
AcDbLine
 10
312.4793160785
 20
559.4974143967
 30
0.0
 11
312.4793160785
 21
550.797401236
 31
0.0
  0
LINE
  5
79
330
1F
100
AcDbEntity
  8
0
  6
Continuous
 62
     7
370
    25
100
AcDbLine
 10
312.4793160785
 20
550.797401236
 30
0.0
 11
316.4793130088
 21
550.797401236
 31
0.0
  0
LINE
  5
7A
330
1F
100
AcDbEntity
  8
0
  6
Continuous
 62
     7
370
    25
100
AcDbLine
 10
316.4793130088
 20
550.797401236
 30
0.0
 11
316.4793130088
 21
559.4974143967
 31
0.0
  0
LINE
  5
7B
330
1F
100
AcDbEntity
  8
0
  6
Continuous
 62
     7
370
    25
100
AcDbLine
 10
283.4793169129
 20
561.4973886475
 30
0.0
 11
283.4793169129
 21
558.957396315
 31
0.0
  0
LINE
  5
7C
330
1F
100
AcDbEntity
  8
0
  6
Continuous
 62
     7
370
    25
100
AcDbLine
 10
324.9793153334
 20
561.4973886475
 30
0.0
 11
283.4793169129
 21
561.4973886475
 31
0.0
  0
LINE
  5
7D
330
1F
100
AcDbEntity
  8
0
  6
Continuous
 62
     7
370
    25
100
AcDbLine
 10
435.6993127692
 20
558.8973744377
 30
0.0
 11
435.6993127692
 21
548.7374051079
 31
0.0
  0
LINE
  5
7E
330
1F
100
AcDbEntity
  8
0
  6
Continuous
 62
     7
370
    25
100
AcDbLine
 10
456.1993170608
 20
561.4374263748
 30
0.0
 11
334.9793151099
 21
561.4374263748
 31
0.0
  0
LINE
  5
7F
330
1F
100
AcDbEntity
  8
0
  6
Continuous
 62
     7
370
    25
100
AcDbLine
 10
456.1993170608
 20
558.8973744377
 30
0.0
 11
456.1993170608
 21
561.4374263748
 31
0.0
  0
LINE
  5
80
330
1F
100
AcDbEntity
  8
0
  6
Continuous
 62
     7
370
    25
100
AcDbLine
 10
414.699314915
 20
558.8973744377
 30
0.0
 11
334.9793151099
 21
558.8973744377
 31
0.0
  0
LINE
  5
81
330
1F
100
AcDbEntity
  8
0
  6
Continuous
 62
     7
370
    25
100
AcDbLine
 10
414.699314915
 20
558.8973744377
 30
0.0
 11
414.699314915
 21
548.7374051079
 31
0.0
  0
LINE
  5
82
330
1F
100
AcDbEntity
  8
0
  6
Continuous
 62
     7
370
    25
100
AcDbLine
 10
456.1993170608
 20
558.8973744377
 30
0.0
 11
435.6993127692
 21
558.8973744377
 31
0.0
  0
LINE
  5
83
330
1F
100
AcDbEntity
  8
0
  6
Continuous
 62
     7
370
    25
100
AcDbLine
 10
334.9793151099
 20
558.8973744377
 30
0.0
 11
334.9793151099
 21
561.4374263748
 31
0.0
  0
LINE
  5
84
330
1F
100
AcDbEntity
  8
0
  6
Continuous
 62
     7
370
    25
100
AcDbLine
 10
427.1993178952
 20
559.4373925194
 30
0.0
 11
423.1993135143
 21
559.4373925194
 31
0.0
  0
LINE
  5
85
330
1F
100
AcDbEntity
  8
0
  6
Continuous
 62
     7
370
    25
100
AcDbLine
 10
423.1993135143
 20
559.4373925194
 30
0.0
 11
423.1993135143
 21
550.7373793587
 31
0.0
  0
LINE
  5
86
330
1F
100
AcDbEntity
  8
0
  6
Continuous
 62
     7
370
    25
100
AcDbLine
 10
423.1993135143
 20
550.7373793587
 30
0.0
 11
427.1993178952
 21
550.7373793587
 31
0.0
  0
LINE
  5
87
330
1F
100
AcDbEntity
  8
0
  6
Continuous
 62
     7
370
    25
100
AcDbLine
 10
427.1993178952
 20
550.7373793587
 30
0.0
 11
427.1993178952
 21
559.4373925194
 31
0.0
  0
LINE
  5
88
330
1F
100
AcDbEntity
  8
0
  6
Continuous
 62
     7
370
    25
100
AcDbLine
 10
414.699314915
 20
548.7374051079
 30
0.0
 11
435.6993127692
 21
548.7374051079
 31
0.0
  0
LINE
  5
89
330
1F
100
AcDbEntity
  8
0
  6
Continuous
 62
     7
370
    25
100
AcDbLine
 10
545.9193203676
 20
558.8973744377
 30
0.0
 11
466.1993149746
 21
558.8973744377
 31
0.0
  0
LINE
  5
8A
330
1F
100
AcDbEntity
  8
0
  6
Continuous
 62
     7
370
    25
100
AcDbLine
 10
466.1993149746
 20
558.8973744377
 30
0.0
 11
466.1993149746
 21
561.4374263748
 31
0.0
  0
LINE
  5
8B
330
1F
100
AcDbEntity
  8
0
  6
Continuous
 62
     7
370
    25
100
AcDbLine
 10
587.4193076122
 20
558.8973744377
 30
0.0
 11
566.9193182219
 21
558.8973744377
 31
0.0
  0
LINE
  5
8C
330
1F
100
AcDbEntity
  8
0
  6
Continuous
 62
     7
370
    25
100
AcDbLine
 10
566.9193182219
 20
558.8973744377
 30
0.0
 11
566.9193182219
 21
548.7374051079
 31
0.0
  0
LINE
  5
8D
330
1F
100
AcDbEntity
  8
0
  6
Continuous
 62
     7
370
    25
100
AcDbLine
 10
545.9193203676
 20
558.8973744377
 30
0.0
 11
545.9193203676
 21
548.7374051079
 31
0.0
  0
LINE
  5
8E
330
1F
100
AcDbEntity
  8
0
  6
Continuous
 62
     7
370
    25
100
AcDbLine
 10
558.4193084467
 20
559.4373925194
 30
0.0
 11
554.4193152416
 21
559.4373925194
 31
0.0
  0
LINE
  5
8F
330
1F
100
AcDbEntity
  8
0
  6
Continuous
 62
     7
370
    25
100
AcDbLine
 10
554.4193152416
 20
559.4373925194
 30
0.0
 11
554.4193152416
 21
550.7373793587
 31
0.0
  0
LINE
  5
90
330
1F
100
AcDbEntity
  8
0
  6
Continuous
 62
     7
370
    25
100
AcDbLine
 10
554.4193152416
 20
550.7373793587
 30
0.0
 11
558.4193084467
 21
550.7373793587
 31
0.0
  0
LINE
  5
91
330
1F
100
AcDbEntity
  8
0
  6
Continuous
 62
     7
370
    25
100
AcDbLine
 10
558.4193084467
 20
550.7373793587
 30
0.0
 11
558.4193084467
 21
559.4373925194
 31
0.0
  0
LINE
  5
92
330
1F
100
AcDbEntity
  8
0
  6
Continuous
 62
     7
370
    25
100
AcDbLine
 10
545.9193203676
 20
548.7374051079
 30
0.0
 11
566.9193182219
 21
548.7374051079
 31
0.0
  0
LINE
  5
93
330
1F
100
AcDbEntity
  8
0
  6
Continuous
 62
     7
370
    25
100
AcDbLine
 10
587.4193076122
 20
561.4374263748
 30
0.0
 11
466.1993149746
 21
561.4374263748
 31
0.0
  0
LINE
  5
94
330
1F
100
AcDbEntity
  8
0
  6
Continuous
 62
     7
370
    25
100
AcDbLine
 10
587.4193076122
 20
558.8973744377
 30
0.0
 11
587.4193076122
 21
561.4374263748
 31
0.0
  0
LINE
  5
95
330
1F
100
AcDbEntity
  8
0
  6
Continuous
 62
     7
370
    25
100
AcDbLine
 10
37.4059889544
 20
130.177406834
 30
0.0
 11
28.9393279779
 21
130.177406834
 31
0.0
  0
LINE
  5
96
330
1F
100
AcDbEntity
  8
0
  6
Continuous
 62
     7
370
    25
100
AcDbLine
 10
37.4059889544
 20
135.257391499
 30
0.0
 11
37.4059889544
 21
130.177406834
 31
0.0
  0
LINE
  5
97
330
1F
100
AcDbEntity
  8
0
  6
Continuous
 62
     7
370
    25
100
AcDbLine
 10
37.4059889544
 20
135.257391499
 30
0.0
 11
45.8726499308
 21
135.257391499
 31
0.0
  0
LINE
  5
98
330
1F
100
AcDbEntity
  8
0
  6
Continuous
 62
     7
370
    25
100
AcDbLine
 10
45.8726499308
 20
135.257391499
 30
0.0
 11
45.8726499308
 21
130.177406834
 31
0.0
  0
LINE
  5
99
330
1F
100
AcDbEntity
  8
0
  6
Continuous
 62
     7
370
    25
100
AcDbLine
 10
54.3393109072
 20
130.177406834
 30
0.0
 11
45.8726499308
 21
130.177406834
 31
0.0
  0
LINE
  5
9A
330
1F
100
AcDbEntity
  8
0
  6
Continuous
 62
     7
370
    25
100
AcDbLine
 10
54.3393109072
 20
114.9373932346
 30
0.0
 11
54.3393109072
 21
130.177406834
 31
0.0
  0
LINE
  5
9B
330
1F
100
AcDbEntity
  8
0
  6
Continuous
 62
     7
370
    25
100
AcDbLine
 10
59.4193253744
 20
114.9373932346
 30
0.0
 11
54.3393109072
 21
114.9373932346
 31
0.0
  0
LINE
  5
9C
330
1F
100
AcDbEntity
  8
0
  6
Continuous
 62
     7
370
    25
100
AcDbLine
 10
59.4193253744
 20
94.6173949703
 30
0.0
 11
54.3393109072
 21
94.6173949703
 31
0.0
  0
LINE
  5
9D
330
1F
100
AcDbEntity
  8
0
  6
Continuous
 62
     7
370
    25
100
AcDbLine
 10
54.3393109072
 20
79.3773962721
 30
0.0
 11
54.3393109072
 21
94.6173949703
 31
0.0
  0
LINE
  5
9E
330
1F
100
AcDbEntity
  8
0
  6
Continuous
 62
     7
370
    25
100
AcDbLine
 10
45.8726499308
 20
79.3773962721
 30
0.0
 11
54.3393109072
 21
79.3773962721
 31
0.0
  0
LINE
  5
9F
330
1F
100
AcDbEntity
  8
0
  6
Continuous
 62
     7
370
    25
100
AcDbLine
 10
45.8726499308
 20
74.297396706
 30
0.0
 11
45.8726499308
 21
79.3773962721
 31
0.0
  0
LINE
  5
A0
330
1F
100
AcDbEntity
  8
0
  6
Continuous
 62
     7
370
    25
100
AcDbLine
 10
45.8726499308
 20
74.297396706
 30
0.0
 11
37.4059889544
 21
74.297396706
 31
0.0
  0
LINE
  5
A1
330
1F
100
AcDbEntity
  8
0
  6
Continuous
 62
     7
370
    25
100
AcDbLine
 10
37.4059889544
 20
74.297396706
 30
0.0
 11
37.4059889544
 21
79.3773962721
 31
0.0
  0
LINE
  5
A2
330
1F
100
AcDbEntity
  8
0
  6
Continuous
 62
     7
370
    25
100
AcDbLine
 10
28.9393279779
 20
79.3773962721
 30
0.0
 11
37.4059889544
 21
79.3773962721
 31
0.0
  0
LINE
  5
A3
330
1F
100
AcDbEntity
  8
0
  6
Continuous
 62
     7
370
    25
100
AcDbLine
 10
28.9393279779
 20
94.6173949703
 30
0.0
 11
28.9393279779
 21
79.3773962721
 31
0.0
  0
LINE
  5
A4
330
1F
100
AcDbEntity
  8
0
  6
Continuous
 62
     7
370
    25
100
AcDbLine
 10
23.8593135107
 20
94.6173949703
 30
0.0
 11
28.9393279779
 21
94.6173949703
 31
0.0
  0
LINE
  5
A5
330
1F
100
AcDbEntity
  8
0
  6
Continuous
 62
     7
370
    25
100
AcDbLine
 10
23.8593135107
 20
94.6173949703
 30
0.0
 11
23.8593135107
 21
114.9373932346
 31
0.0
  0
LINE
  5
A6
330
1F
100
AcDbEntity
  8
0
  6
Continuous
 62
     7
370
    25
100
AcDbLine
 10
23.8593135107
 20
114.9373932346
 30
0.0
 11
28.9393279779
 21
114.9373932346
 31
0.0
  0
LINE
  5
A7
330
1F
100
AcDbEntity
  8
0
  6
Continuous
 62
     7
370
    25
100
AcDbLine
 10
28.9393279779
 20
130.177406834
 30
0.0
 11
28.9393279779
 21
114.9373932346
 31
0.0
  0
LINE
  5
A8
330
1F
100
AcDbEntity
  8
0
  6
Continuous
 62
     7
370
    25
100
AcDbLine
 10
59.4193253744
 20
114.9373932346
 30
0.0
 11
59.4193253744
 21
94.6173949703
 31
0.0
  0
LINE
  5
A9
330
1F
100
AcDbEntity
  8
0
  6
Continuous
 62
     7
370
    25
100
AcDbLine
 10
23.8593135107
 20
165.5774100289
 30
0.0
 11
28.9393279779
 21
165.5774100289
 31
0.0
  0
LINE
  5
AA
330
1F
100
AcDbEntity
  8
0
  6
Continuous
 62
     7
370
    25
100
AcDbLine
 10
23.8593135107
 20
165.5774100289
 30
0.0
 11
23.8593135107
 21
185.8974082932
 31
0.0
  0
LINE
  5
AB
330
1F
100
AcDbEntity
  8
0
  6
Continuous
 62
     7
370
    25
100
AcDbLine
 10
23.8593135107
 20
185.8974082932
 30
0.0
 11
28.9393279779
 21
185.8974082932
 31
0.0
  0
LINE
  5
AC
330
1F
100
AcDbEntity
  8
0
  6
Continuous
 62
     7
370
    25
100
AcDbLine
 10
28.9393279779
 20
185.8974082932
 30
0.0
 11
28.9393279779
 21
201.1373920902
 31
0.0
  0
LINE
  5
AD
330
1F
100
AcDbEntity
  8
0
  6
Continuous
 62
     7
370
    25
100
AcDbLine
 10
28.9393279779
 20
201.1373920902
 30
0.0
 11
37.4059889544
 21
201.1373920902
 31
0.0
  0
LINE
  5
AE
330
1F
100
AcDbEntity
  8
0
  6
Continuous
 62
     7
370
    25
100
AcDbLine
 10
37.4059889544
 20
206.2174065575
 30
0.0
 11
37.4059889544
 21
201.1373920902
 31
0.0
  0
LINE
  5
AF
330
1F
100
AcDbEntity
  8
0
  6
Continuous
 62
     7
370
    25
100
AcDbLine
 10
37.4059889544
 20
206.2174065575
 30
0.0
 11
45.8726499308
 21
206.2174065575
 31
0.0
  0
LINE
  5
B0
330
1F
100
AcDbEntity
  8
0
  6
Continuous
 62
     7
370
    25
100
AcDbLine
 10
45.8726499308
 20
206.2174065575
 30
0.0
 11
45.8726499308
 21
201.1373920902
 31
0.0
  0
LINE
  5
B1
330
1F
100
AcDbEntity
  8
0
  6
Continuous
 62
     7
370
    25
100
AcDbLine
 10
45.8726499308
 20
201.1373920902
 30
0.0
 11
54.3393109072
 21
201.1373920902
 31
0.0
  0
LINE
  5
B2
330
1F
100
AcDbEntity
  8
0
  6
Continuous
 62
     7
370
    25
100
AcDbLine
 10
54.3393109072
 20
201.1373920902
 30
0.0
 11
54.3393109072
 21
185.8974082932
 31
0.0
  0
LINE
  5
B3
330
1F
100
AcDbEntity
  8
0
  6
Continuous
 62
     7
370
    25
100
AcDbLine
 10
54.3393109072
 20
165.5774100289
 30
0.0
 11
54.3393109072
 21
150.3373964295
 31
0.0
  0
LINE
  5
B4
330
1F
100
AcDbEntity
  8
0
  6
Continuous
 62
     7
370
    25
100
AcDbLine
 10
54.3393109072
 20
150.3373964295
 30
0.0
 11
45.8726499308
 21
150.3373964295
 31
0.0
  0
LINE
  5
B5
330
1F
100
AcDbEntity
  8
0
  6
Continuous
 62
     7
370
    25
100
AcDbLine
 10
45.8726499308
 20
145.2574117645
 30
0.0
 11
45.8726499308
 21
150.3373964295
 31
0.0
  0
LINE
  5
B6
330
1F
100
AcDbEntity
  8
0
  6
Continuous
 62
     7
370
    25
100
AcDbLine
 10
45.8726499308
 20
145.2574117645
 30
0.0
 11
37.4059889544
 21
145.2574117645
 31
0.0
  0
LINE
  5
B7
330
1F
100
AcDbEntity
  8
0
  6
Continuous
 62
     7
370
    25
100
AcDbLine
 10
37.4059889544
 20
145.2574117645
 30
0.0
 11
37.4059889544
 21
150.3373964295
 31
0.0
  0
LINE
  5
B8
330
1F
100
AcDbEntity
  8
0
  6
Continuous
 62
     7
370
    25
100
AcDbLine
 10
37.4059889544
 20
150.3373964295
 30
0.0
 11
28.9393279779
 21
150.3373964295
 31
0.0
  0
LINE
  5
B9
330
1F
100
AcDbEntity
  8
0
  6
Continuous
 62
     7
370
    25
100
AcDbLine
 10
28.9393279779
 20
150.3373964295
 30
0.0
 11
28.9393279779
 21
165.5774100289
 31
0.0
  0
LINE
  5
BA
330
1F
100
AcDbEntity
  8
0
  6
Continuous
 62
     7
370
    25
100
AcDbLine
 10
59.4193253744
 20
165.5774100289
 30
0.0
 11
54.3393109072
 21
165.5774100289
 31
0.0
  0
LINE
  5
BB
330
1F
100
AcDbEntity
  8
0
  6
Continuous
 62
     7
370
    25
100
AcDbLine
 10
59.4193253744
 20
185.8974082932
 30
0.0
 11
59.4193253744
 21
165.5774100289
 31
0.0
  0
LINE
  5
BC
330
1F
100
AcDbEntity
  8
0
  6
Continuous
 62
     7
370
    25
100
AcDbLine
 10
59.4193253744
 20
185.8974082932
 30
0.0
 11
54.3393109072
 21
185.8974082932
 31
0.0
  0
LINE
  5
BD
330
1F
100
AcDbEntity
  8
0
  6
Continuous
 62
     7
370
    25
100
AcDbLine
 10
37.4059889544
 20
216.2173970207
 30
0.0
 11
28.9393279779
 21
216.2173970207
 31
0.0
  0
LINE
  5
BE
330
1F
100
AcDbEntity
  8
0
  6
Continuous
 62
     7
370
    25
100
AcDbLine
 10
28.9393279779
 20
216.2173970207
 30
0.0
 11
28.9393279779
 21
242.8874059185
 31
0.0
  0
LINE
  5
BF
330
1F
100
AcDbEntity
  8
0
  6
Continuous
 62
     7
370
    25
100
AcDbLine
 10
23.8593135107
 20
242.8874059185
 30
0.0
 11
28.9393279779
 21
242.8874059185
 31
0.0
  0
LINE
  5
C0
330
1F
100
AcDbEntity
  8
0
  6
Continuous
 62
     7
370
    25
100
AcDbLine
 10
23.8593135107
 20
242.8874059185
 30
0.0
 11
23.8593135107
 21
269.5574148163
 31
0.0
  0
LINE
  5
C1
330
1F
100
AcDbEntity
  8
0
  6
Continuous
 62
     7
370
    25
100
AcDbLine
 10
23.8593135107
 20
269.5574148163
 30
0.0
 11
28.9393279779
 21
269.5574148163
 31
0.0
  0
LINE
  5
C2
330
1F
100
AcDbEntity
  8
0
  6
Continuous
 62
     7
370
    25
100
AcDbLine
 10
28.9393279779
 20
269.5574148163
 30
0.0
 11
28.9393279779
 21
296.2273939118
 31
0.0
  0
LINE
  5
C3
330
1F
100
AcDbEntity
  8
0
  6
Continuous
 62
     7
370
    25
100
AcDbLine
 10
28.9393279779
 20
296.2273939118
 30
0.0
 11
37.4059889544
 21
296.2273939118
 31
0.0
  0
LINE
  5
C4
330
1F
100
AcDbEntity
  8
0
  6
Continuous
 62
     7
370
    25
100
AcDbLine
 10
37.4059889544
 20
291.1474092468
 30
0.0
 11
37.4059889544
 21
296.2273939118
 31
0.0
  0
LINE
  5
C5
330
1F
100
AcDbEntity
  8
0
  6
Continuous
 62
     7
370
    25
100
AcDbLine
 10
37.4059889544
 20
291.1474092468
 30
0.0
 11
45.8726499308
 21
291.1474092468
 31
0.0
  0
LINE
  5
C6
330
1F
100
AcDbEntity
  8
0
  6
Continuous
 62
     7
370
    25
100
AcDbLine
 10
45.8726499308
 20
291.1474092468
 30
0.0
 11
45.8726499308
 21
296.2273939118
 31
0.0
  0
LINE
  5
C7
330
1F
100
AcDbEntity
  8
0
  6
Continuous
 62
     7
370
    25
100
AcDbLine
 10
45.8726499308
 20
296.2273939118
 30
0.0
 11
54.3393109072
 21
296.2273939118
 31
0.0
  0
LINE
  5
C8
330
1F
100
AcDbEntity
  8
0
  6
Continuous
 62
     7
370
    25
100
AcDbLine
 10
54.3393109072
 20
296.2273939118
 30
0.0
 11
54.3393109072
 21
269.5574148163
 31
0.0
  0
LINE
  5
C9
330
1F
100
AcDbEntity
  8
0
  6
Continuous
 62
     7
370
    25
100
AcDbLine
 10
59.4193253744
 20
269.5574148163
 30
0.0
 11
54.3393109072
 21
269.5574148163
 31
0.0
  0
LINE
  5
CA
330
1F
100
AcDbEntity
  8
0
  6
Continuous
 62
     7
370
    25
100
AcDbLine
 10
59.4193253744
 20
269.5574148163
 30
0.0
 11
59.4193253744
 21
242.8874059185
 31
0.0
  0
LINE
  5
CB
330
1F
100
AcDbEntity
  8
0
  6
Continuous
 62
     7
370
    25
100
AcDbLine
 10
59.4193253744
 20
242.8874059185
 30
0.0
 11
54.3393109072
 21
242.8874059185
 31
0.0
  0
LINE
  5
CC
330
1F
100
AcDbEntity
  8
0
  6
Continuous
 62
     7
370
    25
100
AcDbLine
 10
45.8726499308
 20
233.9974029526
 30
0.0
 11
30.6326363314
 21
233.9974029526
 31
0.0
  0
LINE
  5
CD
330
1F
100
AcDbEntity
  8
0
  6
Continuous
 62
     7
370
    25
100
AcDbLine
 10
30.6326363314
 20
233.9974029526
 30
0.0
 11
30.6326363314
 21
221.297411488
 31
0.0
  0
LINE
  5
CE
330
1F
100
AcDbEntity
  8
0
  6
Continuous
 62
     7
370
    25
100
AcDbLine
 10
30.6326363314
 20
221.297411488
 30
0.0
 11
37.4059889544
 21
221.297411488
 31
0.0
  0
LINE
  5
CF
330
1F
100
AcDbEntity
  8
0
  6
Continuous
 62
     7
370
    25
100
AcDbLine
 10
54.3393109072
 20
242.8874059185
 30
0.0
 11
54.3393109072
 21
216.2173970207
 31
0.0
  0
LINE
  5
D0
330
1F
100
AcDbEntity
  8
0
  6
Continuous
 62
     7
370
    25
100
AcDbLine
 10
54.3393109072
 20
216.2173970207
 30
0.0
 11
45.8726499308
 21
216.2173970207
 31
0.0
  0
LINE
  5
D1
330
1F
100
AcDbEntity
  8
0
  6
Continuous
 62
     7
370
    25
100
AcDbLine
 10
45.8726499308
 20
233.9974029526
 30
0.0
 11
45.8726499308
 21
216.2173970207
 31
0.0
  0
LINE
  5
D2
330
1F
100
AcDbEntity
  8
0
  6
Continuous
 62
     7
370
    25
100
AcDbLine
 10
37.4059889544
 20
221.297411488
 30
0.0
 11
37.4059889544
 21
216.2173970207
 31
0.0
  0
LINE
  5
D3
330
1F
100
AcDbEntity
  8
0
  6
Continuous
 62
     7
370
    25
100
AcDbLine
 10
42.9659698236
 20
469.7374089226
 30
0.0
 11
42.9659698236
 21
464.6574242577
 31
0.0
  0
LINE
  5
D4
330
1F
100
AcDbEntity
  8
0
  6
Continuous
 62
     7
370
    25
100
AcDbLine
 10
34.4993088472
 20
464.6574242577
 30
0.0
 11
42.9659698236
 21
464.6574242577
 31
0.0
  0
LINE
  5
D5
330
1F
100
AcDbEntity
  8
0
  6
Continuous
 62
     7
370
    25
100
AcDbLine
 10
29.4193241823
 20
491.3274033531
 30
0.0
 11
34.4993088472
 21
491.3274033531
 31
0.0
  0
LINE
  5
D6
330
1F
100
AcDbEntity
  8
0
  6
Continuous
 62
     7
370
    25
100
AcDbLine
 10
29.4193241823
 20
491.3274033531
 30
0.0
 11
29.4193241823
 21
517.9973824486
 31
0.0
  0
LINE
  5
D7
330
1F
100
AcDbEntity
  8
0
  6
Continuous
 62
     7
370
    25
100
AcDbLine
 10
29.4193241823
 20
517.9973824486
 30
0.0
 11
34.4993088472
 21
517.9973824486
 31
0.0
  0
LINE
  5
D8
330
1F
100
AcDbEntity
  8
0
  6
Continuous
 62
     7
370
    25
100
AcDbLine
 10
34.4993088472
 20
544.6674211487
 30
0.0
 11
34.4993088472
 21
517.9973824486
 31
0.0
  0
LINE
  5
D9
330
1F
100
AcDbEntity
  8
0
  6
Continuous
 62
     7
370
    25
100
AcDbLine
 10
42.9659698236
 20
544.6674211487
 30
0.0
 11
34.4993088472
 21
544.6674211487
 31
0.0
  0
LINE
  5
DA
330
1F
100
AcDbEntity
  8
0
  6
Continuous
 62
     7
370
    25
100
AcDbLine
 10
42.9659698236
 20
539.5873768791
 30
0.0
 11
42.9659698236
 21
544.6674211487
 31
0.0
  0
LINE
  5
DB
330
1F
100
AcDbEntity
  8
0
  6
Continuous
 62
     7
370
    25
100
AcDbLine
 10
42.9659698236
 20
539.5873768791
 30
0.0
 11
51.4326606024
 21
539.5873768791
 31
0.0
  0
LINE
  5
DC
330
1F
100
AcDbEntity
  8
0
  6
Continuous
 62
     7
370
    25
100
AcDbLine
 10
51.4326606024
 20
539.5873768791
 30
0.0
 11
51.4326606024
 21
544.6674211487
 31
0.0
  0
LINE
  5
DD
330
1F
100
AcDbEntity
  8
0
  6
Continuous
 62
     7
370
    25
100
AcDbLine
 10
59.8993215788
 20
544.6674211487
 30
0.0
 11
51.4326606024
 21
544.6674211487
 31
0.0
  0
LINE
  5
DE
330
1F
100
AcDbEntity
  8
0
  6
Continuous
 62
     7
370
    25
100
AcDbLine
 10
59.8993215788
 20
517.9973824486
 30
0.0
 11
59.8993215788
 21
544.6674211487
 31
0.0
  0
LINE
  5
DF
330
1F
100
AcDbEntity
  8
0
  6
Continuous
 62
     7
370
    25
100
AcDbLine
 10
64.9793062437
 20
517.9973824486
 30
0.0
 11
59.8993215788
 21
517.9973824486
 31
0.0
  0
LINE
  5
E0
330
1F
100
AcDbEntity
  8
0
  6
Continuous
 62
     7
370
    25
100
AcDbLine
 10
64.9793062437
 20
517.9973824486
 30
0.0
 11
64.9793062437
 21
491.3274033531
 31
0.0
  0
LINE
  5
E1
330
1F
100
AcDbEntity
  8
0
  6
Continuous
 62
     7
370
    25
100
AcDbLine
 10
64.9793062437
 20
491.3274033531
 30
0.0
 11
59.8993215788
 21
491.3274033531
 31
0.0
  0
LINE
  5
E2
330
1F
100
AcDbEntity
  8
0
  6
Continuous
 62
     7
370
    25
100
AcDbLine
 10
59.8993215788
 20
464.6574242577
 30
0.0
 11
59.8993215788
 21
491.3274033531
 31
0.0
  0
LINE
  5
E3
330
1F
100
AcDbEntity
  8
0
  6
Continuous
 62
     7
370
    25
100
AcDbLine
 10
51.4326606024
 20
464.6574242577
 30
0.0
 11
59.8993215788
 21
464.6574242577
 31
0.0
  0
LINE
  5
E4
330
1F
100
AcDbEntity
  8
0
  6
Continuous
 62
     7
370
    25
100
AcDbLine
 10
51.4326606024
 20
469.7374089226
 30
0.0
 11
51.4326606024
 21
464.6574242577
 31
0.0
  0
LINE
  5
E5
330
1F
100
AcDbEntity
  8
0
  6
Continuous
 62
     7
370
    25
100
AcDbLine
 10
34.4993088472
 20
491.3274033531
 30
0.0
 11
34.4993088472
 21
464.6574242577
 31
0.0
  0
LINE
  5
E6
330
1F
100
AcDbEntity
  8
0
  6
Continuous
 62
     7
370
    25
100
AcDbLine
 10
51.4326606024
 20
469.7374089226
 30
0.0
 11
42.9659698236
 21
469.7374089226
 31
0.0
  0
LINE
  5
E7
330
1F
100
AcDbEntity
  8
0
  6
Continuous
 62
     7
370
    25
100
AcDbLine
 10
201.8193069923
 20
491.3274033531
 30
0.0
 11
206.8993214596
 21
491.3274033531
 31
0.0
  0
LINE
  5
E8
330
1F
100
AcDbEntity
  8
0
  6
Continuous
 62
     7
370
    25
100
AcDbLine
 10
206.8993214596
 20
491.3274033531
 30
0.0
 11
206.8993214596
 21
464.6574242577
 31
0.0
  0
LINE
  5
E9
330
1F
100
AcDbEntity
  8
0
  6
Continuous
 62
     7
370
    25
100
AcDbLine
 10
206.8993214596
 20
464.6574242577
 30
0.0
 11
186.5793082941
 21
464.6574242577
 31
0.0
  0
LINE
  5
EA
330
1F
100
AcDbEntity
  8
0
  6
Continuous
 62
     7
370
    25
100
AcDbLine
 10
186.5793082941
 20
469.7374089226
 30
0.0
 11
186.5793082941
 21
464.6574242577
 31
0.0
  0
LINE
  5
EB
330
1F
100
AcDbEntity
  8
0
  6
Continuous
 62
     7
370
    25
100
AcDbLine
 10
186.5793082941
 20
469.7374089226
 30
0.0
 11
166.2593100298
 21
469.7374089226
 31
0.0
  0
LINE
  5
EC
330
1F
100
AcDbEntity
  8
0
  6
Continuous
 62
     7
370
    25
100
AcDbLine
 10
166.2593100298
 20
469.7374089226
 30
0.0
 11
166.2593100298
 21
464.6574242577
 31
0.0
  0
LINE
  5
ED
330
1F
100
AcDbEntity
  8
0
  6
Continuous
 62
     7
370
    25
100
AcDbLine
 10
145.9393117655
 20
544.6674211487
 30
0.0
 11
166.2593100298
 21
544.6674211487
 31
0.0
  0
LINE
  5
EE
330
1F
100
AcDbEntity
  8
0
  6
Continuous
 62
     7
370
    25
100
AcDbLine
 10
166.2593100298
 20
539.5873768791
 30
0.0
 11
166.2593100298
 21
544.6674211487
 31
0.0
  0
LINE
  5
EF
330
1F
100
AcDbEntity
  8
0
  6
Continuous
 62
     7
370
    25
100
AcDbLine
 10
166.2593100298
 20
539.5873768791
 30
0.0
 11
186.5793082941
 21
539.5873768791
 31
0.0
  0
LINE
  5
F0
330
1F
100
AcDbEntity
  8
0
  6
Continuous
 62
     7
370
    25
100
AcDbLine
 10
186.5793082941
 20
544.6674211487
 30
0.0
 11
206.8993214596
 21
544.6674211487
 31
0.0
  0
LINE
  5
F1
330
1F
100
AcDbEntity
  8
0
  6
Continuous
 62
     7
370
    25
100
AcDbLine
 10
206.8993214596
 20
544.6674211487
 30
0.0
 11
206.8993214596
 21
517.9973824486
 31
0.0
  0
LINE
  5
F2
330
1F
100
AcDbEntity
  8
0
  6
Continuous
 62
     7
370
    25
100
AcDbLine
 10
201.8193069923
 20
517.9973824486
 30
0.0
 11
201.8193069923
 21
491.3274033531
 31
0.0
  0
LINE
  5
F3
330
1F
100
AcDbEntity
  8
0
  6
Continuous
 62
     7
370
    25
100
AcDbLine
 10
145.9393117655
 20
464.6574242577
 30
0.0
 11
145.9393117655
 21
491.3274033531
 31
0.0
  0
LINE
  5
F4
330
1F
100
AcDbEntity
  8
0
  6
Continuous
 62
     7
370
    25
100
AcDbLine
 10
151.0193113316
 20
491.3274033531
 30
0.0
 11
151.0193113316
 21
517.9973824486
 31
0.0
  0
LINE
  5
F5
330
1F
100
AcDbEntity
  8
0
  6
Continuous
 62
     7
370
    25
100
AcDbLine
 10
151.0193113316
 20
491.3274033531
 30
0.0
 11
145.9393117655
 21
491.3274033531
 31
0.0
  0
LINE
  5
F6
330
1F
100
AcDbEntity
  8
0
  6
Continuous
 62
     7
370
    25
100
AcDbLine
 10
151.0193113316
 20
517.9973824486
 30
0.0
 11
145.9393117655
 21
517.9973824486
 31
0.0
  0
LINE
  5
F7
330
1F
100
AcDbEntity
  8
0
  6
Continuous
 62
     7
370
    25
100
AcDbLine
 10
166.2593100298
 20
464.6574242577
 30
0.0
 11
145.9393117655
 21
464.6574242577
 31
0.0
  0
LINE
  5
F8
330
1F
100
AcDbEntity
  8
0
  6
Continuous
 62
     7
370
    25
100
AcDbLine
 10
186.5793082941
 20
539.5873768791
 30
0.0
 11
186.5793082941
 21
544.6674211487
 31
0.0
  0
LINE
  5
F9
330
1F
100
AcDbEntity
  8
0
  6
Continuous
 62
     7
370
    25
100
AcDbLine
 10
201.8193069923
 20
517.9973824486
 30
0.0
 11
206.8993214596
 21
517.9973824486
 31
0.0
  0
LINE
  5
FA
330
1F
100
AcDbEntity
  8
0
  6
Continuous
 62
     7
370
    25
100
AcDbLine
 10
145.9393117655
 20
517.9973824486
 30
0.0
 11
145.9393117655
 21
544.6674211487
 31
0.0
  0
LINE
  5
FB
330
1F
100
AcDbEntity
  8
0
  6
Continuous
 62
     7
370
    25
100
AcDbLine
 10
95.2993247736
 20
469.7374089226
 30
0.0
 11
95.2993247736
 21
464.6574242577
 31
0.0
  0
LINE
  5
FC
330
1F
100
AcDbEntity
  8
0
  6
Continuous
 62
     7
370
    25
100
AcDbLine
 10
122.3926458586
 20
491.3274033531
 30
0.0
 11
127.4726454247
 21
491.3274033531
 31
0.0
  0
LINE
  5
FD
330
1F
100
AcDbEntity
  8
0
  6
Continuous
 62
     7
370
    25
100
AcDbLine
 10
95.2993247736
 20
539.5873768791
 30
0.0
 11
95.2993247736
 21
544.6674211487
 31
0.0
  0
LINE
  5
FE
330
1F
100
AcDbEntity
  8
0
  6
Continuous
 62
     7
370
    25
100
AcDbLine
 10
95.2993247736
 20
469.7374089226
 30
0.0
 11
115.6193081367
 21
469.7374089226
 31
0.0
  0
LINE
  5
FF
330
1F
100
AcDbEntity
  8
0
  6
Continuous
 62
     7
370
    25
100
AcDbLine
 10
115.6193081367
 20
539.5873768791
 30
0.0
 11
115.6193081367
 21
544.6674211487
 31
0.0
  0
LINE
  5
100
330
1F
100
AcDbEntity
  8
0
  6
Continuous
 62
     7
370
    25
100
AcDbLine
 10
130.859306835
 20
517.9973824486
 30
0.0
 11
135.9393213022
 21
517.9973824486
 31
0.0
  0
LINE
  5
101
330
1F
100
AcDbEntity
  8
0
  6
Continuous
 62
     7
370
    25
100
AcDbLine
 10
95.2993247736
 20
539.5873768791
 30
0.0
 11
115.6193081367
 21
539.5873768791
 31
0.0
  0
LINE
  5
102
330
1F
100
AcDbEntity
  8
0
  6
Continuous
 62
     7
370
    25
100
AcDbLine
 10
122.3926458586
 20
473.5473974213
 30
0.0
 11
122.3926458586
 21
491.3274033531
 31
0.0
  0
LINE
  5
103
330
1F
100
AcDbEntity
  8
0
  6
Continuous
 62
     7
370
    25
100
AcDbLine
 10
74.9793265093
 20
544.6674211487
 30
0.0
 11
74.9793265093
 21
517.9973824486
 31
0.0
  0
LINE
  5
104
330
1F
100
AcDbEntity
  8
0
  6
Continuous
 62
     7
370
    25
100
AcDbLine
 10
115.6193081367
 20
474.8173935875
 30
0.0
 11
95.2993247736
 21
474.8173935875
 31
0.0
  0
LINE
  5
105
330
1F
100
AcDbEntity
  8
0
  6
Continuous
 62
     7
370
    25
100
AcDbLine
 10
95.3752908934
 20
530.8635218605
 30
0.0
 11
95.3752908934
 21
535.9435065254
 31
0.0
  0
LINE
  5
106
330
1F
100
AcDbEntity
  8
0
  6
Continuous
 62
     7
370
    25
100
AcDbLine
 10
115.6952891577
 20
535.9435065254
 30
0.0
 11
115.6952891577
 21
530.8635218605
 31
0.0
  0
LINE
  5
107
330
1F
100
AcDbEntity
  8
0
  6
Continuous
 62
     7
370
    25
100
AcDbLine
 10
130.859306835
 20
517.9973824486
 30
0.0
 11
130.859306835
 21
491.3274033531
 31
0.0
  0
LINE
  5
108
330
1F
100
AcDbEntity
  8
0
  6
Continuous
 62
     7
370
    25
100
AcDbLine
 10
95.2993247736
 20
474.8173935875
 30
0.0
 11
95.2993247736
 21
479.8973782524
 31
0.0
  0
LINE
  5
109
330
1F
100
AcDbEntity
  8
0
  6
Continuous
 62
     7
370
    25
100
AcDbLine
 10
135.9393213022
 20
464.6574242577
 30
0.0
 11
135.9393213022
 21
491.3274033531
 31
0.0
  0
LINE
  5
10A
330
1F
100
AcDbEntity
  8
0
  6
Continuous
 62
     7
370
    25
100
AcDbLine
 10
115.6193081367
 20
464.6574242577
 30
0.0
 11
135.9393213022
 21
464.6574242577
 31
0.0
  0
LINE
  5
10B
330
1F
100
AcDbEntity
  8
0
  6
Continuous
 62
     7
370
    25
100
AcDbLine
 10
115.6193081367
 20
479.8973782524
 30
0.0
 11
115.6193081367
 21
474.8173935875
 31
0.0
  0
LINE
  5
10C
330
1F
100
AcDbEntity
  8
0
  6
Continuous
 62
     7
370
    25
100
AcDbLine
 10
82.0873294104
 20
472.534297274
 30
0.0
 11
82.0873294104
 21
490.3143032059
 31
0.0
  0
LINE
  5
10D
330
1F
100
AcDbEntity
  8
0
  6
Continuous
 62
     7
370
    25
100
AcDbLine
 10
82.0873294104
 20
490.3143032059
 30
0.0
 11
87.1673140753
 21
490.3143032059
 31
0.0
  0
LINE
  5
10E
330
1F
100
AcDbEntity
  8
0
  6
Continuous
 62
     7
370
    25
100
AcDbLine
 10
130.859306835
 20
491.3274033531
 30
0.0
 11
135.9393213022
 21
491.3274033531
 31
0.0
  0
LINE
  5
10F
330
1F
100
AcDbEntity
  8
0
  6
Continuous
 62
     7
370
    25
100
AcDbLine
 10
115.6952891577
 20
530.8635218605
 30
0.0
 11
95.3752908934
 21
530.8635218605
 31
0.0
  0
LINE
  5
110
330
1F
100
AcDbEntity
  8
0
  6
Continuous
 62
     7
370
    25
100
AcDbLine
 10
115.6193081367
 20
469.7374089226
 30
0.0
 11
115.6193081367
 21
464.6574242577
 31
0.0
  0
LINE
  5
111
330
1F
100
AcDbEntity
  8
0
  6
Continuous
 62
     7
370
    25
100
AcDbLine
 10
127.9923234213
 20
535.7773883804
 30
0.0
 11
127.9923234213
 21
517.9973824486
 31
0.0
  0
LINE
  5
112
330
1F
100
AcDbEntity
  8
0
  6
Continuous
 62
     7
370
    25
100
AcDbLine
 10
127.9923234213
 20
517.9973824486
 30
0.0
 11
122.9123238552
 21
517.9973824486
 31
0.0
  0
LINE
  5
113
330
1F
100
AcDbEntity
  8
0
  6
Continuous
 62
     7
370
    25
100
AcDbLine
 10
82.6297316778
 20
536.7090089783
 30
0.0
 11
87.7097461451
 21
536.7090089783
 31
0.0
  0
LINE
  5
114
330
1F
100
AcDbEntity
  8
0
  6
Continuous
 62
     7
370
    25
100
AcDbLine
 10
87.1673140753
 20
490.3143032059
 30
0.0
 11
87.1673140753
 21
472.534297274
 31
0.0
  0
LINE
  5
115
330
1F
100
AcDbEntity
  8
0
  6
Continuous
 62
     7
370
    25
100
AcDbLine
 10
135.9393213022
 20
517.9973824486
 30
0.0
 11
135.9393213022
 21
544.6674211487
 31
0.0
  0
LINE
  5
116
330
1F
100
AcDbEntity
  8
0
  6
Continuous
 62
     7
370
    25
100
AcDbLine
 10
87.7097461451
 20
518.9290030464
 30
0.0
 11
82.6297316778
 21
518.9290030464
 31
0.0
  0
LINE
  5
117
330
1F
100
AcDbEntity
  8
0
  6
Continuous
 62
     7
370
    25
100
AcDbLine
 10
82.6297316778
 20
518.9290030464
 30
0.0
 11
82.6297316778
 21
536.7090089783
 31
0.0
  0
LINE
  5
118
330
1F
100
AcDbEntity
  8
0
  6
Continuous
 62
     7
370
    25
100
AcDbLine
 10
87.7097461451
 20
536.7090089783
 30
0.0
 11
87.7097461451
 21
518.9290030464
 31
0.0
  0
LINE
  5
119
330
1F
100
AcDbEntity
  8
0
  6
Continuous
 62
     7
370
    25
100
AcDbLine
 10
95.3752908934
 20
535.9435065254
 30
0.0
 11
115.6952891577
 21
535.9435065254
 31
0.0
  0
LINE
  5
11A
330
1F
100
AcDbEntity
  8
0
  6
Continuous
 62
     7
370
    25
100
AcDbLine
 10
127.4726454247
 20
491.3274033531
 30
0.0
 11
127.4726454247
 21
473.5473974213
 31
0.0
  0
LINE
  5
11B
330
1F
100
AcDbEntity
  8
0
  6
Continuous
 62
     7
370
    25
100
AcDbLine
 10
127.4726454247
 20
473.5473974213
 30
0.0
 11
122.3926458586
 21
473.5473974213
 31
0.0
  0
LINE
  5
11C
330
1F
100
AcDbEntity
  8
0
  6
Continuous
 62
     7
370
    25
100
AcDbLine
 10
80.0593111742
 20
517.9973824486
 30
0.0
 11
74.9793265093
 21
517.9973824486
 31
0.0
  0
LINE
  5
11D
330
1F
100
AcDbEntity
  8
0
  6
Continuous
 62
     7
370
    25
100
AcDbLine
 10
74.9793265093
 20
491.3274033531
 30
0.0
 11
74.9793265093
 21
464.6574242577
 31
0.0
  0
LINE
  5
11E
330
1F
100
AcDbEntity
  8
0
  6
Continuous
 62
     7
370
    25
100
AcDbLine
 10
135.9393213022
 20
544.6674211487
 30
0.0
 11
115.6193081367
 21
544.6674211487
 31
0.0
  0
LINE
  5
11F
330
1F
100
AcDbEntity
  8
0
  6
Continuous
 62
     7
370
    25
100
AcDbLine
 10
80.0593111742
 20
491.3274033531
 30
0.0
 11
80.0593111742
 21
517.9973824486
 31
0.0
  0
LINE
  5
120
330
1F
100
AcDbEntity
  8
0
  6
Continuous
 62
     7
370
    25
100
AcDbLine
 10
95.2993247736
 20
544.6674211487
 30
0.0
 11
74.9793265093
 21
544.6674211487
 31
0.0
  0
LINE
  5
121
330
1F
100
AcDbEntity
  8
0
  6
Continuous
 62
     7
370
    25
100
AcDbLine
 10
87.1673140753
 20
472.534297274
 30
0.0
 11
82.0873294104
 21
472.534297274
 31
0.0
  0
LINE
  5
122
330
1F
100
AcDbEntity
  8
0
  6
Continuous
 62
     7
370
    25
100
AcDbLine
 10
74.9793265093
 20
464.6574242577
 30
0.0
 11
95.2993247736
 21
464.6574242577
 31
0.0
  0
LINE
  5
123
330
1F
100
AcDbEntity
  8
0
  6
Continuous
 62
     7
370
    25
100
AcDbLine
 10
95.2993247736
 20
479.8973782524
 30
0.0
 11
115.6193081367
 21
479.8973782524
 31
0.0
  0
LINE
  5
124
330
1F
100
AcDbEntity
  8
0
  6
Continuous
 62
     7
370
    25
100
AcDbLine
 10
122.9123238552
 20
535.7773883804
 30
0.0
 11
127.9923234213
 21
535.7773883804
 31
0.0
  0
LINE
  5
125
330
1F
100
AcDbEntity
  8
0
  6
Continuous
 62
     7
370
    25
100
AcDbLine
 10
122.9123238552
 20
517.9973824486
 30
0.0
 11
122.9123238552
 21
535.7773883804
 31
0.0
  0
LINE
  5
126
330
1F
100
AcDbEntity
  8
0
  6
Continuous
 62
     7
370
    25
100
AcDbLine
 10
80.0593111742
 20
491.3274033531
 30
0.0
 11
74.9793265093
 21
491.3274033531
 31
0.0
  0
LINE
  5
127
330
1F
100
AcDbEntity
  8
0
  6
Continuous
 62
     7
370
    25
100
AcDbLine
 10
417.3993159163
 20
532.4174149498
 30
0.0
 11
417.3993159163
 21
538.7973769173
 31
0.0
  0
LINE
  5
128
330
1F
100
AcDbEntity
  8
0
  6
Continuous
 62
     7
370
    25
100
AcDbLine
 10
422.4793154824
 20
532.4174149498
 30
0.0
 11
417.3993159163
 21
532.4174149498
 31
0.0
  0
LINE
  5
129
330
1F
100
AcDbEntity
  8
0
  6
Continuous
 62
     7
370
    25
100
AcDbLine
 10
422.4793154824
 20
532.4174149498
 30
0.0
 11
422.4793154824
 21
514.637409018
 31
0.0
  0
LINE
  5
12A
330
1F
100
AcDbEntity
  8
0
  6
Continuous
 62
     7
370
    25
100
AcDbLine
 10
422.4793154824
 20
514.637409018
 30
0.0
 11
417.3993159163
 21
514.637409018
 31
0.0
  0
LINE
  5
12B
330
1F
100
AcDbEntity
  8
0
  6
Continuous
 62
     7
370
    25
100
AcDbLine
 10
417.3993159163
 20
508.2573874458
 30
0.0
 11
417.3993159163
 21
514.637409018
 31
0.0
  0
LINE
  5
12C
330
1F
100
AcDbEntity
  8
0
  6
Continuous
 62
     7
370
    25
100
AcDbLine
 10
272.619313382
 20
508.2573874458
 30
0.0
 11
417.3993159163
 21
508.2573874458
 31
0.0
  0
LINE
  5
12D
330
1F
100
AcDbEntity
  8
0
  6
Continuous
 62
     7
370
    25
100
AcDbLine
 10
272.619313382
 20
514.637409018
 30
0.0
 11
272.619313382
 21
508.2573874458
 31
0.0
  0
LINE
  5
12E
330
1F
100
AcDbEntity
  8
0
  6
Continuous
 62
     7
370
    25
100
AcDbLine
 10
267.5393138159
 20
514.637409018
 30
0.0
 11
272.619313382
 21
514.637409018
 31
0.0
  0
LINE
  5
12F
330
1F
100
AcDbEntity
  8
0
  6
Continuous
 62
     7
370
    25
100
AcDbLine
 10
267.5393138159
 20
514.637409018
 30
0.0
 11
267.5393138159
 21
532.4174149498
 31
0.0
  0
LINE
  5
130
330
1F
100
AcDbEntity
  8
0
  6
Continuous
 62
     7
370
    25
100
AcDbLine
 10
267.5393138159
 20
532.4174149498
 30
0.0
 11
272.619313382
 21
532.4174149498
 31
0.0
  0
LINE
  5
131
330
1F
100
AcDbEntity
  8
0
  6
Continuous
 62
     7
370
    25
100
AcDbLine
 10
272.619313382
 20
538.7973769173
 30
0.0
 11
272.619313382
 21
532.4174149498
 31
0.0
  0
LINE
  5
132
330
1F
100
AcDbEntity
  8
0
  6
Continuous
 62
     7
370
    25
100
AcDbLine
 10
417.3993159163
 20
538.7973769173
 30
0.0
 11
272.619313382
 21
538.7973769173
 31
0.0
  0
LINE
  5
133
330
1F
100
AcDbEntity
  8
0
  6
Continuous
 62
     7
370
    25
100
AcDbLine
 10
582.3393080461
 20
508.1974251732
 30
0.0
 11
582.3393080461
 21
514.5773871407
 31
0.0
  0
LINE
  5
134
330
1F
100
AcDbEntity
  8
0
  6
Continuous
 62
     7
370
    25
100
AcDbLine
 10
587.4193076122
 20
514.5773871407
 30
0.0
 11
582.3393080461
 21
514.5773871407
 31
0.0
  0
LINE
  5
135
330
1F
100
AcDbEntity
  8
0
  6
Continuous
 62
     7
370
    25
100
AcDbLine
 10
432.4793133963
 20
514.5773871407
 30
0.0
 11
432.4793133963
 21
532.3573930725
 31
0.0
  0
LINE
  5
136
330
1F
100
AcDbEntity
  8
0
  6
Continuous
 62
     7
370
    25
100
AcDbLine
 10
432.4793133963
 20
532.3573930725
 30
0.0
 11
437.5593129623
 21
532.3573930725
 31
0.0
  0
LINE
  5
137
330
1F
100
AcDbEntity
  8
0
  6
Continuous
 62
     7
370
    25
100
AcDbLine
 10
437.5593129623
 20
508.1974251732
 30
0.0
 11
582.3393080461
 21
508.1974251732
 31
0.0
  0
LINE
  5
138
330
1F
100
AcDbEntity
  8
0
  6
Continuous
 62
     7
370
    25
100
AcDbLine
 10
582.3393080461
 20
538.7374146446
 30
0.0
 11
437.5593129623
 21
538.7374146446
 31
0.0
  0
LINE
  5
139
330
1F
100
AcDbEntity
  8
0
  6
Continuous
 62
     7
370
    25
100
AcDbLine
 10
582.3393080461
 20
532.3573930725
 30
0.0
 11
582.3393080461
 21
538.7374146446
 31
0.0
  0
LINE
  5
13A
330
1F
100
AcDbEntity
  8
0
  6
Continuous
 62
     7
370
    25
100
AcDbLine
 10
437.5593129623
 20
538.7374146446
 30
0.0
 11
437.5593129623
 21
532.3573930725
 31
0.0
  0
LINE
  5
13B
330
1F
100
AcDbEntity
  8
0
  6
Continuous
 62
     7
370
    25
100
AcDbLine
 10
437.5593129623
 20
514.5773871407
 30
0.0
 11
437.5593129623
 21
508.1974251732
 31
0.0
  0
LINE
  5
13C
330
1F
100
AcDbEntity
  8
0
  6
Continuous
 62
     7
370
    25
100
AcDbLine
 10
587.4193076122
 20
532.3573930725
 30
0.0
 11
582.3393080461
 21
532.3573930725
 31
0.0
  0
LINE
  5
13D
330
1F
100
AcDbEntity
  8
0
  6
Continuous
 62
     7
370
    25
100
AcDbLine
 10
432.4793133963
 20
514.5773871407
 30
0.0
 11
437.5593129623
 21
514.5773871407
 31
0.0
  0
LINE
  5
13E
330
1F
100
AcDbEntity
  8
0
  6
Continuous
 62
     7
370
    25
100
AcDbLine
 10
587.4193076122
 20
532.3573930725
 30
0.0
 11
587.4193076122
 21
514.5773871407
 31
0.0
  0
LINE
  5
13F
330
1F
100
AcDbEntity
  8
0
  6
Continuous
 62
     7
370
    25
100
AcDbLine
 10
371.8393145207
 20
474.0974290833
 30
0.0
 11
366.7593142561
 21
474.0974290833
 31
0.0
  0
LINE
  5
140
330
1F
100
AcDbEntity
  8
0
  6
Continuous
 62
     7
370
    25
100
AcDbLine
 10
216.8993119228
 20
474.0974290833
 30
0.0
 11
216.8993119228
 21
491.8773754105
 31
0.0
  0
LINE
  5
141
330
1F
100
AcDbEntity
  8
0
  6
Continuous
 62
     7
370
    25
100
AcDbLine
 10
216.8993119228
 20
491.8773754105
 30
0.0
 11
221.9793114889
 21
491.8773754105
 31
0.0
  0
LINE
  5
142
330
1F
100
AcDbEntity
  8
0
  6
Continuous
 62
     7
370
    25
100
AcDbLine
 10
221.9793114889
 20
498.2573969826
 30
0.0
 11
221.9793114889
 21
491.8773754105
 31
0.0
  0
LINE
  5
143
330
1F
100
AcDbEntity
  8
0
  6
Continuous
 62
     7
370
    25
100
AcDbLine
 10
221.9793114889
 20
474.0974290833
 30
0.0
 11
221.9793114889
 21
467.7174075112
 31
0.0
  0
LINE
  5
144
330
1F
100
AcDbEntity
  8
0
  6
Continuous
 62
     7
370
    25
100
AcDbLine
 10
216.8993119228
 20
474.0974290833
 30
0.0
 11
221.9793114889
 21
474.0974290833
 31
0.0
  0
LINE
  5
145
330
1F
100
AcDbEntity
  8
0
  6
Continuous
 62
     7
370
    25
100
AcDbLine
 10
371.8393145207
 20
491.8773754105
 30
0.0
 11
371.8393145207
 21
474.0974290833
 31
0.0
  0
LINE
  5
146
330
1F
100
AcDbEntity
  8
0
  6
Continuous
 62
     7
370
    25
100
AcDbLine
 10
371.8393145207
 20
491.8773754105
 30
0.0
 11
366.7593142561
 21
491.8773754105
 31
0.0
  0
LINE
  5
147
330
1F
100
AcDbEntity
  8
0
  6
Continuous
 62
     7
370
    25
100
AcDbLine
 10
221.9793114889
 20
467.7174075112
 30
0.0
 11
366.7593142561
 21
467.7174075112
 31
0.0
  0
LINE
  5
148
330
1F
100
AcDbEntity
  8
0
  6
Continuous
 62
     7
370
    25
100
AcDbLine
 10
366.7593142561
 20
498.2573969826
 30
0.0
 11
221.9793114889
 21
498.2573969826
 31
0.0
  0
LINE
  5
149
330
1F
100
AcDbEntity
  8
0
  6
Continuous
 62
     7
370
    25
100
AcDbLine
 10
366.7593142561
 20
467.7174075112
 30
0.0
 11
366.7593142561
 21
474.0974290833
 31
0.0
  0
LINE
  5
14A
330
1F
100
AcDbEntity
  8
0
  6
Continuous
 62
     7
370
    25
100
AcDbLine
 10
366.7593142561
 20
491.8773754105
 30
0.0
 11
366.7593142561
 21
498.2573969826
 31
0.0
  0
LINE
  5
14B
330
1F
100
AcDbEntity
  8
0
  6
Continuous
 62
     7
370
    25
100
AcDbLine
 10
536.7793206203
 20
474.0974290833
 30
0.0
 11
531.6993210543
 21
474.0974290833
 31
0.0
  0
LINE
  5
14C
330
1F
100
AcDbEntity
  8
0
  6
Continuous
 62
     7
370
    25
100
AcDbLine
 10
386.9193147946
 20
474.0974290833
 30
0.0
 11
386.9193147946
 21
467.7174075112
 31
0.0
  0
LINE
  5
14D
330
1F
100
AcDbEntity
  8
0
  6
Continuous
 62
     7
370
    25
100
AcDbLine
 10
381.8393133659
 20
474.0974290833
 30
0.0
 11
381.8393133659
 21
491.8773754105
 31
0.0
  0
LINE
  5
14E
330
1F
100
AcDbEntity
  8
0
  6
Continuous
 62
     7
370
    25
100
AcDbLine
 10
381.8393133659
 20
491.8773754105
 30
0.0
 11
386.9193147946
 21
491.8773754105
 31
0.0
  0
LINE
  5
14F
330
1F
100
AcDbEntity
  8
0
  6
Continuous
 62
     7
370
    25
100
AcDbLine
 10
386.9193147946
 20
498.2573969826
 30
0.0
 11
386.9193147946
 21
491.8773754105
 31
0.0
  0
LINE
  5
150
330
1F
100
AcDbEntity
  8
0
  6
Continuous
 62
     7
370
    25
100
AcDbLine
 10
381.8393133659
 20
474.0974290833
 30
0.0
 11
386.9193147946
 21
474.0974290833
 31
0.0
  0
LINE
  5
151
330
1F
100
AcDbEntity
  8
0
  6
Continuous
 62
     7
370
    25
100
AcDbLine
 10
536.7793206203
 20
491.8773754105
 30
0.0
 11
536.7793206203
 21
474.0974290833
 31
0.0
  0
LINE
  5
152
330
1F
100
AcDbEntity
  8
0
  6
Continuous
 62
     7
370
    25
100
AcDbLine
 10
536.7793206203
 20
491.8773754105
 30
0.0
 11
531.6993210543
 21
491.8773754105
 31
0.0
  0
LINE
  5
153
330
1F
100
AcDbEntity
  8
0
  6
Continuous
 62
     7
370
    25
100
AcDbLine
 10
386.9193147946
 20
467.7174075112
 30
0.0
 11
531.6993210543
 21
467.7174075112
 31
0.0
  0
LINE
  5
154
330
1F
100
AcDbEntity
  8
0
  6
Continuous
 62
     7
370
    25
100
AcDbLine
 10
531.6993210543
 20
498.2573969826
 30
0.0
 11
386.9193147946
 21
498.2573969826
 31
0.0
  0
LINE
  5
155
330
1F
100
AcDbEntity
  8
0
  6
Continuous
 62
     7
370
    25
100
AcDbLine
 10
531.6993210543
 20
467.7174075112
 30
0.0
 11
531.6993210543
 21
474.0974290833
 31
0.0
  0
LINE
  5
156
330
1F
100
AcDbEntity
  8
0
  6
Continuous
 62
     7
370
    25
100
AcDbLine
 10
531.6993210543
 20
491.8773754105
 30
0.0
 11
531.6993210543
 21
498.2573969826
 31
0.0
  0
LINE
  5
157
330
1F
100
AcDbEntity
  8
0
  6
Continuous
 62
     7
370
    25
100
AcDbLine
 10
252.459316336
 20
437.724052237
 30
0.0
 11
257.539315902
 21
437.724052237
 31
0.0
  0
LINE
  5
158
330
1F
100
AcDbEntity
  8
0
  6
Continuous
 62
     7
370
    25
100
AcDbLine
 10
240.6059790481
 20
429.2573912605
 30
0.0
 11
257.539315902
 21
429.2573912605
 31
0.0
  0
LINE
  5
159
330
1F
100
AcDbEntity
  8
0
  6
Continuous
 62
     7
370
    25
100
AcDbLine
 10
240.6059790481
 20
424.1774065956
 30
0.0
 11
240.6059790481
 21
429.2573912605
 31
0.0
  0
LINE
  5
15A
330
1F
100
AcDbEntity
  8
0
  6
Continuous
 62
     7
370
    25
100
AcDbLine
 10
240.6059790481
 20
424.1774065956
 30
0.0
 11
223.6726496447
 21
424.1774065956
 31
0.0
  0
LINE
  5
15B
330
1F
100
AcDbEntity
  8
0
  6
Continuous
 62
     7
370
    25
100
AcDbLine
 10
223.6726496447
 20
424.1774065956
 30
0.0
 11
223.6726496447
 21
429.2573912605
 31
0.0
  0
LINE
  5
15C
330
1F
100
AcDbEntity
  8
0
  6
Continuous
 62
     7
370
    25
100
AcDbLine
 10
206.7393127907
 20
429.2573912605
 30
0.0
 11
223.6726496447
 21
429.2573912605
 31
0.0
  0
LINE
  5
15D
330
1F
100
AcDbEntity
  8
0
  6
Continuous
 62
     7
370
    25
100
AcDbLine
 10
206.7393127907
 20
424.1774065956
 30
0.0
 11
206.7393127907
 21
429.2573912605
 31
0.0
  0
LINE
  5
15E
330
1F
100
AcDbEntity
  8
0
  6
Continuous
 62
     7
370
    25
100
AcDbLine
 10
206.7393127907
 20
424.1774065956
 30
0.0
 11
189.8059759367
 21
424.1774065956
 31
0.0
  0
LINE
  5
15F
330
1F
100
AcDbEntity
  8
0
  6
Continuous
 62
     7
370
    25
100
AcDbLine
 10
189.8059759367
 20
424.1774065956
 30
0.0
 11
189.8059759367
 21
429.2573912605
 31
0.0
  0
LINE
  5
160
330
1F
100
AcDbEntity
  8
0
  6
Continuous
 62
     7
370
    25
100
AcDbLine
 10
172.8726539839
 20
429.2573912605
 30
0.0
 11
189.8059759367
 21
429.2573912605
 31
0.0
  0
LINE
  5
161
330
1F
100
AcDbEntity
  8
0
  6
Continuous
 62
     7
370
    25
100
AcDbLine
 10
172.8726539839
 20
424.1774065956
 30
0.0
 11
172.8726539839
 21
429.2573912605
 31
0.0
  0
LINE
  5
162
330
1F
100
AcDbEntity
  8
0
  6
Continuous
 62
     7
370
    25
100
AcDbLine
 10
172.8726539839
 20
424.1774065956
 30
0.0
 11
155.9393171299
 21
424.1774065956
 31
0.0
  0
LINE
  5
163
330
1F
100
AcDbEntity
  8
0
  6
Continuous
 62
     7
370
    25
100
AcDbLine
 10
155.9393171299
 20
454.6573741898
 30
0.0
 11
155.9393171299
 21
424.1774065956
 31
0.0
  0
LINE
  5
164
330
1F
100
AcDbEntity
  8
0
  6
Continuous
 62
     7
370
    25
100
AcDbLine
 10
252.459316336
 20
446.1907132134
 30
0.0
 11
257.539315902
 21
446.1907132134
 31
0.0
  0
LINE
  5
165
330
1F
100
AcDbEntity
  8
0
  6
Continuous
 62
     7
370
    25
100
AcDbLine
 10
252.459316336
 20
446.1907132134
 30
0.0
 11
252.459316336
 21
437.724052237
 31
0.0
  0
LINE
  5
166
330
1F
100
AcDbEntity
  8
0
  6
Continuous
 62
     7
370
    25
100
AcDbLine
 10
257.539315902
 20
446.1907132134
 30
0.0
 11
257.539315902
 21
454.6573741898
 31
0.0
  0
LINE
  5
167
330
1F
100
AcDbEntity
  8
0
  6
Continuous
 62
     7
370
    25
100
AcDbLine
 10
257.539315902
 20
454.6573741898
 30
0.0
 11
155.9393171299
 21
454.6573741898
 31
0.0
  0
LINE
  5
168
330
1F
100
AcDbEntity
  8
0
  6
Continuous
 62
     7
370
    25
100
AcDbLine
 10
257.539315902
 20
429.2573912605
 30
0.0
 11
257.539315902
 21
437.724052237
 31
0.0
  0
LINE
  5
169
330
1F
100
AcDbEntity
  8
0
  6
Continuous
 62
     7
370
    25
100
AcDbLine
 10
129.0059749115
 20
424.1774065956
 30
0.0
 11
129.0059749115
 21
429.2573912605
 31
0.0
  0
LINE
  5
16A
330
1F
100
AcDbEntity
  8
0
  6
Continuous
 62
     7
370
    25
100
AcDbLine
 10
129.0059749115
 20
424.1774065956
 30
0.0
 11
112.0726380575
 21
424.1774065956
 31
0.0
  0
LINE
  5
16B
330
1F
100
AcDbEntity
  8
0
  6
Continuous
 62
     7
370
    25
100
AcDbLine
 10
112.0726380575
 20
424.1774065956
 30
0.0
 11
112.0726380575
 21
429.2573912605
 31
0.0
  0
LINE
  5
16C
330
1F
100
AcDbEntity
  8
0
  6
Continuous
 62
     7
370
    25
100
AcDbLine
 10
112.0726380575
 20
429.2573912605
 30
0.0
 11
95.1393161047
 21
429.2573912605
 31
0.0
  0
LINE
  5
16D
330
1F
100
AcDbEntity
  8
0
  6
Continuous
 62
     7
370
    25
100
AcDbLine
 10
95.1393161047
 20
424.1774065956
 30
0.0
 11
95.1393161047
 21
429.2573912605
 31
0.0
  0
LINE
  5
16E
330
1F
100
AcDbEntity
  8
0
  6
Continuous
 62
     7
370
    25
100
AcDbLine
 10
95.1393161047
 20
424.1774065956
 30
0.0
 11
78.2059941519
 21
424.1774065956
 31
0.0
  0
LINE
  5
16F
330
1F
100
AcDbEntity
  8
0
  6
Continuous
 62
     7
370
    25
100
AcDbLine
 10
78.2059941519
 20
424.1774065956
 30
0.0
 11
78.2059941519
 21
429.2573912605
 31
0.0
  0
LINE
  5
170
330
1F
100
AcDbEntity
  8
0
  6
Continuous
 62
     7
370
    25
100
AcDbLine
 10
78.2059941519
 20
429.2573912605
 30
0.0
 11
61.2726423967
 21
429.2573912605
 31
0.0
  0
LINE
  5
171
330
1F
100
AcDbEntity
  8
0
  6
Continuous
 62
     7
370
    25
100
AcDbLine
 10
61.2726423967
 20
424.1774065956
 30
0.0
 11
61.2726423967
 21
429.2573912605
 31
0.0
  0
LINE
  5
172
330
1F
100
AcDbEntity
  8
0
  6
Continuous
 62
     7
370
    25
100
AcDbLine
 10
61.2726423967
 20
424.1774065956
 30
0.0
 11
44.3393204439
 21
424.1774065956
 31
0.0
  0
LINE
  5
173
330
1F
100
AcDbEntity
  8
0
  6
Continuous
 62
     7
370
    25
100
AcDbLine
 10
44.3393204439
 20
424.1774065956
 30
0.0
 11
44.3393204439
 21
454.6573741898
 31
0.0
  0
LINE
  5
174
330
1F
100
AcDbEntity
  8
0
  6
Continuous
 62
     7
370
    25
100
AcDbLine
 10
140.8593121994
 20
446.1907132134
 30
0.0
 11
140.8593121994
 21
437.724052237
 31
0.0
  0
LINE
  5
175
330
1F
100
AcDbEntity
  8
0
  6
Continuous
 62
     7
370
    25
100
AcDbLine
 10
145.9393117655
 20
437.724052237
 30
0.0
 11
145.9393117655
 21
429.2573912605
 31
0.0
  0
LINE
  5
176
330
1F
100
AcDbEntity
  8
0
  6
Continuous
 62
     7
370
    25
100
AcDbLine
 10
44.3393204439
 20
454.6573741898
 30
0.0
 11
145.9393117655
 21
454.6573741898
 31
0.0
  0
LINE
  5
177
330
1F
100
AcDbEntity
  8
0
  6
Continuous
 62
     7
370
    25
100
AcDbLine
 10
140.8593121994
 20
437.724052237
 30
0.0
 11
145.9393117655
 21
437.724052237
 31
0.0
  0
LINE
  5
178
330
1F
100
AcDbEntity
  8
0
  6
Continuous
 62
     7
370
    25
100
AcDbLine
 10
140.8593121994
 20
446.1907132134
 30
0.0
 11
145.9393117655
 21
446.1907132134
 31
0.0
  0
LINE
  5
179
330
1F
100
AcDbEntity
  8
0
  6
Continuous
 62
     7
370
    25
100
AcDbLine
 10
145.9393117655
 20
429.2573912605
 30
0.0
 11
129.0059749115
 21
429.2573912605
 31
0.0
  0
LINE
  5
17A
330
1F
100
AcDbEntity
  8
0
  6
Continuous
 62
     7
370
    25
100
AcDbLine
 10
145.9393117655
 20
454.6573741898
 30
0.0
 11
145.9393117655
 21
446.1907132134
 31
0.0
  0
LINE
  5
17B
330
1F
100
AcDbEntity
  8
0
  6
Continuous
 62
     7
370
    25
100
AcDbLine
 10
572.179308914
 20
472.7973921761
 30
0.0
 11
582.3393080461
 21
472.7973921761
 31
0.0
  0
LINE
  5
17C
330
1F
100
AcDbEntity
  8
0
  6
Continuous
 62
     7
370
    25
100
AcDbLine
 10
572.179308914
 20
467.7174075112
 30
0.0
 11
572.179308914
 21
472.7973921761
 31
0.0
  0
LINE
  5
17D
330
1F
100
AcDbEntity
  8
0
  6
Continuous
 62
     7
370
    25
100
AcDbLine
 10
572.179308914
 20
467.7174075112
 30
0.0
 11
562.0193097818
 21
467.7174075112
 31
0.0
  0
LINE
  5
17E
330
1F
100
AcDbEntity
  8
0
  6
Continuous
 62
     7
370
    25
100
AcDbLine
 10
562.0193097818
 20
467.7174075112
 30
0.0
 11
562.0193097818
 21
472.7973921761
 31
0.0
  0
LINE
  5
17F
330
1F
100
AcDbEntity
  8
0
  6
Continuous
 62
     7
370
    25
100
AcDbLine
 10
551.8593106497
 20
472.7973921761
 30
0.0
 11
562.0193097818
 21
472.7973921761
 31
0.0
  0
LINE
  5
180
330
1F
100
AcDbEntity
  8
0
  6
Continuous
 62
     7
370
    25
100
AcDbLine
 10
546.7793110836
 20
481.2640531525
 30
0.0
 11
551.8593106497
 21
481.2640531525
 31
0.0
  0
LINE
  5
181
330
1F
100
AcDbEntity
  8
0
  6
Continuous
 62
     7
370
    25
100
AcDbLine
 10
546.7793110836
 20
481.2640531525
 30
0.0
 11
546.7793110836
 21
489.7307141289
 31
0.0
  0
LINE
  5
182
330
1F
100
AcDbEntity
  8
0
  6
Continuous
 62
     7
370
    25
100
AcDbLine
 10
546.7793110836
 20
489.7307141289
 30
0.0
 11
551.8593106497
 21
489.7307141289
 31
0.0
  0
LINE
  5
183
330
1F
100
AcDbEntity
  8
0
  6
Continuous
 62
     7
370
    25
100
AcDbLine
 10
551.8593106497
 20
498.1973751053
 30
0.0
 11
551.8593106497
 21
489.7307141289
 31
0.0
  0
LINE
  5
184
330
1F
100
AcDbEntity
  8
0
  6
Continuous
 62
     7
370
    25
100
AcDbLine
 10
587.4193076122
 20
489.7307141289
 30
0.0
 11
582.3393080461
 21
489.7307141289
 31
0.0
  0
LINE
  5
185
330
1F
100
AcDbEntity
  8
0
  6
Continuous
 62
     7
370
    25
100
AcDbLine
 10
587.4193076122
 20
489.7307141289
 30
0.0
 11
587.4193076122
 21
481.2640531525
 31
0.0
  0
LINE
  5
186
330
1F
100
AcDbEntity
  8
0
  6
Continuous
 62
     7
370
    25
100
AcDbLine
 10
587.4193076122
 20
481.2640531525
 30
0.0
 11
582.3393080461
 21
481.2640531525
 31
0.0
  0
LINE
  5
187
330
1F
100
AcDbEntity
  8
0
  6
Continuous
 62
     7
370
    25
100
AcDbLine
 10
582.3393080461
 20
489.7307141289
 30
0.0
 11
582.3393080461
 21
498.1973751053
 31
0.0
  0
LINE
  5
188
330
1F
100
AcDbEntity
  8
0
  6
Continuous
 62
     7
370
    25
100
AcDbLine
 10
582.3393080461
 20
472.7973921761
 30
0.0
 11
582.3393080461
 21
481.2640531525
 31
0.0
  0
LINE
  5
189
330
1F
100
AcDbEntity
  8
0
  6
Continuous
 62
     7
370
    25
100
AcDbLine
 10
551.8593106497
 20
481.2640531525
 30
0.0
 11
551.8593106497
 21
472.7973921761
 31
0.0
  0
LINE
  5
18A
330
1F
100
AcDbEntity
  8
0
  6
Continuous
 62
     7
370
    25
100
AcDbLine
 10
582.3393080461
 20
498.1973751053
 30
0.0
 11
551.8593106497
 21
498.1973751053
 31
0.0
  0
LINE
  5
18B
330
1F
100
AcDbEntity
  8
0
  6
Continuous
 62
     7
370
    25
100
AcDbLine
 10
422.4793154824
 20
451.2624128327
 30
0.0
 11
417.3993159163
 21
451.2624128327
 31
0.0
  0
LINE
  5
18C
330
1F
100
AcDbEntity
  8
0
  6
Continuous
 62
     7
370
    25
100
AcDbLine
 10
422.4793154824
 20
451.2624128327
 30
0.0
 11
422.4793154824
 21
430.6324108109
 31
0.0
  0
LINE
  5
18D
330
1F
100
AcDbEntity
  8
0
  6
Continuous
 62
     7
370
    25
100
AcDbLine
 10
422.4793154824
 20
430.6324108109
 30
0.0
 11
417.3993159163
 21
430.6324108109
 31
0.0
  0
LINE
  5
18E
330
1F
100
AcDbEntity
  8
0
  6
Continuous
 62
     7
370
    25
100
AcDbLine
 10
272.619313382
 20
424.1774065956
 30
0.0
 11
417.3993159163
 21
424.1774065956
 31
0.0
  0
LINE
  5
18F
330
1F
100
AcDbEntity
  8
0
  6
Continuous
 62
     7
370
    25
100
AcDbLine
 10
267.5393138159
 20
430.7873828873
 30
0.0
 11
272.619313382
 21
430.7873828873
 31
0.0
  0
LINE
  5
190
330
1F
100
AcDbEntity
  8
0
  6
Continuous
 62
     7
370
    25
100
AcDbLine
 10
267.5393138159
 20
430.7873828873
 30
0.0
 11
267.5393138159
 21
451.1073811516
 31
0.0
  0
LINE
  5
191
330
1F
100
AcDbEntity
  8
0
  6
Continuous
 62
     7
370
    25
100
AcDbLine
 10
267.5393138159
 20
451.1073811516
 30
0.0
 11
272.619313382
 21
451.1073811516
 31
0.0
  0
LINE
  5
192
330
1F
100
AcDbEntity
  8
0
  6
Continuous
 62
     7
370
    25
100
AcDbLine
 10
417.3993159163
 20
457.7174170479
 30
0.0
 11
272.619313382
 21
457.7174170479
 31
0.0
  0
LINE
  5
193
330
1F
100
AcDbEntity
  8
0
  6
Continuous
 62
     7
370
    25
100
AcDbLine
 10
272.619313382
 20
430.7873828873
 30
0.0
 11
272.619313382
 21
424.1774065956
 31
0.0
  0
LINE
  5
194
330
1F
100
AcDbEntity
  8
0
  6
Continuous
 62
     7
370
    25
100
AcDbLine
 10
417.3993159163
 20
424.1774065956
 30
0.0
 11
417.3993159163
 21
430.6324108109
 31
0.0
  0
LINE
  5
195
330
1F
100
AcDbEntity
  8
0
  6
Continuous
 62
     7
370
    25
100
AcDbLine
 10
417.3993159163
 20
451.2624128327
 30
0.0
 11
417.3993159163
 21
457.7174170479
 31
0.0
  0
LINE
  5
196
330
1F
100
AcDbEntity
  8
0
  6
Continuous
 62
     7
370
    25
100
AcDbLine
 10
272.619313382
 20
457.7174170479
 30
0.0
 11
272.619313382
 21
451.1073811516
 31
0.0
  0
LINE
  5
197
330
1F
100
AcDbEntity
  8
0
  6
Continuous
 62
     7
370
    25
100
AcDbLine
 10
587.4193076122
 20
451.2624128327
 30
0.0
 11
582.3393080461
 21
451.2624128327
 31
0.0
  0
LINE
  5
198
330
1F
100
AcDbEntity
  8
0
  6
Continuous
 62
     7
370
    25
100
AcDbLine
 10
587.4193076122
 20
451.2624128327
 30
0.0
 11
587.4193076122
 21
430.6324108109
 31
0.0
  0
LINE
  5
199
330
1F
100
AcDbEntity
  8
0
  6
Continuous
 62
     7
370
    25
100
AcDbLine
 10
587.4193076122
 20
430.6324108109
 30
0.0
 11
582.3393080461
 21
430.6324108109
 31
0.0
  0
LINE
  5
19A
330
1F
100
AcDbEntity
  8
0
  6
Continuous
 62
     7
370
    25
100
AcDbLine
 10
432.4793133963
 20
430.7873828873
 30
0.0
 11
437.5593129623
 21
430.7873828873
 31
0.0
  0
LINE
  5
19B
330
1F
100
AcDbEntity
  8
0
  6
Continuous
 62
     7
370
    25
100
AcDbLine
 10
437.5593129623
 20
424.1774065956
 30
0.0
 11
582.3393080461
 21
424.1774065956
 31
0.0
  0
LINE
  5
19C
330
1F
100
AcDbEntity
  8
0
  6
Continuous
 62
     7
370
    25
100
AcDbLine
 10
582.3393080461
 20
457.7174170479
 30
0.0
 11
437.5593129623
 21
457.7174170479
 31
0.0
  0
LINE
  5
19D
330
1F
100
AcDbEntity
  8
0
  6
Continuous
 62
     7
370
    25
100
AcDbLine
 10
437.5593129623
 20
430.7873828873
 30
0.0
 11
437.5593129623
 21
424.1774065956
 31
0.0
  0
LINE
  5
19E
330
1F
100
AcDbEntity
  8
0
  6
Continuous
 62
     7
370
    25
100
AcDbLine
 10
437.5593129623
 20
457.7174170479
 30
0.0
 11
437.5593129623
 21
451.1073811516
 31
0.0
  0
LINE
  5
19F
330
1F
100
AcDbEntity
  8
0
  6
Continuous
 62
     7
370
    25
100
AcDbLine
 10
582.3393080461
 20
424.1774065956
 30
0.0
 11
582.3393080461
 21
430.6324108109
 31
0.0
  0
LINE
  5
1A0
330
1F
100
AcDbEntity
  8
0
  6
Continuous
 62
     7
370
    25
100
AcDbLine
 10
582.3393080461
 20
451.2624128327
 30
0.0
 11
582.3393080461
 21
457.7174170479
 31
0.0
  0
LINE
  5
1A1
330
1F
100
AcDbEntity
  8
0
  6
Continuous
 62
     7
370
    25
100
AcDbLine
 10
432.4793133963
 20
430.7873828873
 30
0.0
 11
432.4793133963
 21
451.1073811516
 31
0.0
  0
LINE
  5
1A2
330
1F
100
AcDbEntity
  8
0
  6
Continuous
 62
     7
370
    25
100
AcDbLine
 10
432.4793133963
 20
451.1073811516
 30
0.0
 11
437.5593129623
 21
451.1073811516
 31
0.0
  0
LINE
  5
1A3
330
1F
100
AcDbEntity
  8
0
  6
Continuous
 62
     7
370
    25
100
AcDbLine
 10
506.139314555
 20
406.8124278053
 30
0.0
 11
501.0593149889
 21
406.8124278053
 31
0.0
  0
LINE
  5
1A4
330
1F
100
AcDbEntity
  8
0
  6
Continuous
 62
     7
370
    25
100
AcDbLine
 10
506.139314555
 20
406.8124278053
 30
0.0
 11
506.139314555
 21
414.1774161324
 31
0.0
  0
LINE
  5
1A5
330
1F
100
AcDbEntity
  8
0
  6
Continuous
 62
     7
370
    25
100
AcDbLine
 10
587.4193076122
 20
406.8114145264
 30
0.0
 11
587.4193076122
 21
370.7433922752
 31
0.0
  0
LINE
  5
1A6
330
1F
100
AcDbEntity
  8
0
  6
Continuous
 62
     7
370
    25
100
AcDbLine
 10
582.3393080461
 20
370.7433922752
 30
0.0
 11
582.3393080461
 21
363.3773906693
 31
0.0
  0
LINE
  5
1A7
330
1F
100
AcDbEntity
  8
0
  6
Continuous
 62
     7
370
    25
100
AcDbLine
 10
506.139314555
 20
363.3773906693
 30
0.0
 11
506.139314555
 21
370.7423789963
 31
0.0
  0
LINE
  5
1A8
330
1F
100
AcDbEntity
  8
0
  6
Continuous
 62
     7
370
    25
100
AcDbLine
 10
506.139314555
 20
370.7423789963
 30
0.0
 11
501.0593149889
 21
370.7423789963
 31
0.0
  0
LINE
  5
1A9
330
1F
100
AcDbEntity
  8
0
  6
Continuous
 62
     7
370
    25
100
AcDbLine
 10
501.0593149889
 20
370.7423789963
 30
0.0
 11
501.0593149889
 21
406.8124278053
 31
0.0
  0
LINE
  5
1AA
330
1F
100
AcDbEntity
  8
0
  6
Continuous
 62
     7
370
    25
100
AcDbLine
 10
582.3393080461
 20
363.3773906693
 30
0.0
 11
506.139314555
 21
363.3773906693
 31
0.0
  0
LINE
  5
1AB
330
1F
100
AcDbEntity
  8
0
  6
Continuous
 62
     7
370
    25
100
AcDbLine
 10
506.139314555
 20
414.1774161324
 30
0.0
 11
582.3393080461
 21
414.1774161324
 31
0.0
  0
LINE
  5
1AC
330
1F
100
AcDbEntity
  8
0
  6
Continuous
 62
     7
370
    25
100
AcDbLine
 10
582.3393080461
 20
370.7433922752
 30
0.0
 11
587.4193076122
 21
370.7433922752
 31
0.0
  0
LINE
  5
1AD
330
1F
100
AcDbEntity
  8
0
  6
Continuous
 62
     7
370
    25
100
AcDbLine
 10
582.3393080461
 20
414.1774161324
 30
0.0
 11
582.3393080461
 21
406.8114145264
 31
0.0
  0
LINE
  5
1AE
330
1F
100
AcDbEntity
  8
0
  6
Continuous
 62
     7
370
    25
100
AcDbLine
 10
582.3393080461
 20
406.8114145264
 30
0.0
 11
587.4193076122
 21
406.8114145264
 31
0.0
  0
LINE
  5
1AF
330
1F
100
AcDbEntity
  8
0
  6
Continuous
 62
     7
370
    25
100
AcDbLine
 10
413.4293150235
 20
406.8124278053
 30
0.0
 11
408.3493154574
 21
406.8124278053
 31
0.0
  0
LINE
  5
1B0
330
1F
100
AcDbEntity
  8
0
  6
Continuous
 62
     7
370
    25
100
AcDbLine
 10
413.4293150235
 20
406.8124278053
 30
0.0
 11
413.4293150235
 21
414.1774161324
 31
0.0
  0
LINE
  5
1B1
330
1F
100
AcDbEntity
  8
0
  6
Continuous
 62
     7
370
    25
100
AcDbLine
 10
489.6293196905
 20
414.1774161324
 30
0.0
 11
489.6293196905
 21
406.8114145264
 31
0.0
  0
LINE
  5
1B2
330
1F
100
AcDbEntity
  8
0
  6
Continuous
 62
     7
370
    25
100
AcDbLine
 10
494.7093192566
 20
406.8114145264
 30
0.0
 11
494.7093192566
 21
370.7433922752
 31
0.0
  0
LINE
  5
1B3
330
1F
100
AcDbEntity
  8
0
  6
Continuous
 62
     7
370
    25
100
AcDbLine
 10
489.6293196905
 20
370.7433922752
 30
0.0
 11
494.7093192566
 21
370.7433922752
 31
0.0
  0
LINE
  5
1B4
330
1F
100
AcDbEntity
  8
0
  6
Continuous
 62
     7
370
    25
100
AcDbLine
 10
489.6293196905
 20
370.7433922752
 30
0.0
 11
489.6293196905
 21
363.3773906693
 31
0.0
  0
LINE
  5
1B5
330
1F
100
AcDbEntity
  8
0
  6
Continuous
 62
     7
370
    25
100
AcDbLine
 10
413.4293150235
 20
363.3773906693
 30
0.0
 11
413.4293150235
 21
370.7423789963
 31
0.0
  0
LINE
  5
1B6
330
1F
100
AcDbEntity
  8
0
  6
Continuous
 62
     7
370
    25
100
AcDbLine
 10
413.4293150235
 20
370.7423789963
 30
0.0
 11
408.3493154574
 21
370.7423789963
 31
0.0
  0
LINE
  5
1B7
330
1F
100
AcDbEntity
  8
0
  6
Continuous
 62
     7
370
    25
100
AcDbLine
 10
408.3493154574
 20
370.7423789963
 30
0.0
 11
408.3493154574
 21
406.8124278053
 31
0.0
  0
LINE
  5
1B8
330
1F
100
AcDbEntity
  8
0
  6
Continuous
 62
     7
370
    25
100
AcDbLine
 10
489.6293196905
 20
363.3773906693
 30
0.0
 11
413.4293150235
 21
363.3773906693
 31
0.0
  0
LINE
  5
1B9
330
1F
100
AcDbEntity
  8
0
  6
Continuous
 62
     7
370
    25
100
AcDbLine
 10
413.4293150235
 20
414.1774161324
 30
0.0
 11
489.6293196905
 21
414.1774161324
 31
0.0
  0
LINE
  5
1BA
330
1F
100
AcDbEntity
  8
0
  6
Continuous
 62
     7
370
    25
100
AcDbLine
 10
489.6293196905
 20
406.8114145264
 30
0.0
 11
494.7093192566
 21
406.8114145264
 31
0.0
  0
LINE
  5
1BB
330
1F
100
AcDbEntity
  8
0
  6
Continuous
 62
     7
370
    25
100
AcDbLine
 10
320.719315492
 20
406.8124278053
 30
0.0
 11
315.6393159259
 21
406.8124278053
 31
0.0
  0
LINE
  5
1BC
330
1F
100
AcDbEntity
  8
0
  6
Continuous
 62
     7
370
    25
100
AcDbLine
 10
320.719315492
 20
406.8124278053
 30
0.0
 11
320.719315492
 21
414.1774161324
 31
0.0
  0
LINE
  5
1BD
330
1F
100
AcDbEntity
  8
0
  6
Continuous
 62
     7
370
    25
100
AcDbLine
 10
401.9993159998
 20
406.8114145264
 30
0.0
 11
401.9993159998
 21
370.7433922752
 31
0.0
  0
LINE
  5
1BE
330
1F
100
AcDbEntity
  8
0
  6
Continuous
 62
     7
370
    25
100
AcDbLine
 10
320.719315492
 20
363.3773906693
 30
0.0
 11
320.719315492
 21
370.7423789963
 31
0.0
  0
LINE
  5
1BF
330
1F
100
AcDbEntity
  8
0
  6
Continuous
 62
     7
370
    25
100
AcDbLine
 10
320.719315492
 20
370.7423789963
 30
0.0
 11
315.6393159259
 21
370.7423789963
 31
0.0
  0
LINE
  5
1C0
330
1F
100
AcDbEntity
  8
0
  6
Continuous
 62
     7
370
    25
100
AcDbLine
 10
315.6393159259
 20
370.7423789963
 30
0.0
 11
315.6393159259
 21
406.8124278053
 31
0.0
  0
LINE
  5
1C1
330
1F
100
AcDbEntity
  8
0
  6
Continuous
 62
     7
370
    25
100
AcDbLine
 10
396.9193127084
 20
363.3773906693
 30
0.0
 11
320.719315492
 21
363.3773906693
 31
0.0
  0
LINE
  5
1C2
330
1F
100
AcDbEntity
  8
0
  6
Continuous
 62
     7
370
    25
100
AcDbLine
 10
320.719315492
 20
414.1774161324
 30
0.0
 11
396.9193127084
 21
414.1774161324
 31
0.0
  0
LINE
  5
1C3
330
1F
100
AcDbEntity
  8
0
  6
Continuous
 62
     7
370
    25
100
AcDbLine
 10
396.9193127084
 20
370.7433922752
 30
0.0
 11
396.9193127084
 21
363.3773906693
 31
0.0
  0
LINE
  5
1C4
330
1F
100
AcDbEntity
  8
0
  6
Continuous
 62
     7
370
    25
100
AcDbLine
 10
396.9193127084
 20
370.7433922752
 30
0.0
 11
401.9993159998
 21
370.7433922752
 31
0.0
  0
LINE
  5
1C5
330
1F
100
AcDbEntity
  8
0
  6
Continuous
 62
     7
370
    25
100
AcDbLine
 10
396.9193127084
 20
414.1774161324
 30
0.0
 11
396.9193127084
 21
406.8114145264
 31
0.0
  0
LINE
  5
1C6
330
1F
100
AcDbEntity
  8
0
  6
Continuous
 62
     7
370
    25
100
AcDbLine
 10
396.9193127084
 20
406.8114145264
 30
0.0
 11
401.9993159998
 21
406.8114145264
 31
0.0
  0
LINE
  5
1C7
330
1F
100
AcDbEntity
  8
0
  6
Continuous
 62
     7
370
    25
100
AcDbLine
 10
228.0093196857
 20
406.8124278053
 30
0.0
 11
222.9293201197
 21
406.8124278053
 31
0.0
  0
LINE
  5
1C8
330
1F
100
AcDbEntity
  8
0
  6
Continuous
 62
     7
370
    25
100
AcDbLine
 10
228.0093196857
 20
406.8124278053
 30
0.0
 11
228.0093196857
 21
414.1774161324
 31
0.0
  0
LINE
  5
1C9
330
1F
100
AcDbEntity
  8
0
  6
Continuous
 62
     7
370
    25
100
AcDbLine
 10
309.289312743
 20
406.8114145264
 30
0.0
 11
309.289312743
 21
370.7433922752
 31
0.0
  0
LINE
  5
1CA
330
1F
100
AcDbEntity
  8
0
  6
Continuous
 62
     7
370
    25
100
AcDbLine
 10
304.2093131769
 20
370.7433922752
 30
0.0
 11
309.289312743
 21
370.7433922752
 31
0.0
  0
LINE
  5
1CB
330
1F
100
AcDbEntity
  8
0
  6
Continuous
 62
     7
370
    25
100
AcDbLine
 10
228.0093196857
 20
363.3773906693
 30
0.0
 11
228.0093196857
 21
370.7423789963
 31
0.0
  0
LINE
  5
1CC
330
1F
100
AcDbEntity
  8
0
  6
Continuous
 62
     7
370
    25
100
AcDbLine
 10
228.0093196857
 20
370.7423789963
 30
0.0
 11
222.9293201197
 21
370.7423789963
 31
0.0
  0
LINE
  5
1CD
330
1F
100
AcDbEntity
  8
0
  6
Continuous
 62
     7
370
    25
100
AcDbLine
 10
222.9293201197
 20
370.7423789963
 30
0.0
 11
222.9293201197
 21
406.8124278053
 31
0.0
  0
LINE
  5
1CE
330
1F
100
AcDbEntity
  8
0
  6
Continuous
 62
     7
370
    25
100
AcDbLine
 10
304.2093131769
 20
363.3773906693
 30
0.0
 11
228.0093196857
 21
363.3773906693
 31
0.0
  0
LINE
  5
1CF
330
1F
100
AcDbEntity
  8
0
  6
Continuous
 62
     7
370
    25
100
AcDbLine
 10
304.2093131769
 20
370.7433922752
 30
0.0
 11
304.2093131769
 21
363.3773906693
 31
0.0
  0
LINE
  5
1D0
330
1F
100
AcDbEntity
  8
0
  6
Continuous
 62
     7
370
    25
100
AcDbLine
 10
304.2093131769
 20
414.1774161324
 30
0.0
 11
304.2093131769
 21
406.8114145264
 31
0.0
  0
LINE
  5
1D1
330
1F
100
AcDbEntity
  8
0
  6
Continuous
 62
     7
370
    25
100
AcDbLine
 10
304.2093131769
 20
406.8114145264
 30
0.0
 11
309.289312743
 21
406.8114145264
 31
0.0
  0
LINE
  5
1D2
330
1F
100
AcDbEntity
  8
0
  6
Continuous
 62
     7
370
    25
100
AcDbLine
 10
228.0093196857
 20
414.1774161324
 30
0.0
 11
304.2093131769
 21
414.1774161324
 31
0.0
  0
LINE
  5
1D3
330
1F
100
AcDbEntity
  8
0
  6
Continuous
 62
     7
370
    25
100
AcDbLine
 10
135.2993164289
 20
406.8124278053
 30
0.0
 11
130.2193168629
 21
406.8124278053
 31
0.0
  0
LINE
  5
1D4
330
1F
100
AcDbEntity
  8
0
  6
Continuous
 62
     7
370
    25
100
AcDbLine
 10
135.2993164289
 20
406.8124278053
 30
0.0
 11
135.2993164289
 21
414.1774161324
 31
0.0
  0
LINE
  5
1D5
330
1F
100
AcDbEntity
  8
0
  6
Continuous
 62
     7
370
    25
100
AcDbLine
 10
135.2993164289
 20
414.1774161324
 30
0.0
 11
211.4993099201
 21
414.1774161324
 31
0.0
  0
LINE
  5
1D6
330
1F
100
AcDbEntity
  8
0
  6
Continuous
 62
     7
370
    25
100
AcDbLine
 10
211.4993099201
 20
414.1774161324
 30
0.0
 11
211.4993099201
 21
406.8114145264
 31
0.0
  0
LINE
  5
1D7
330
1F
100
AcDbEntity
  8
0
  6
Continuous
 62
     7
370
    25
100
AcDbLine
 10
211.4993099201
 20
406.8114145264
 30
0.0
 11
216.5793094862
 21
406.8114145264
 31
0.0
  0
LINE
  5
1D8
330
1F
100
AcDbEntity
  8
0
  6
Continuous
 62
     7
370
    25
100
AcDbLine
 10
216.5793094862
 20
406.8114145264
 30
0.0
 11
216.5793094862
 21
370.7433922752
 31
0.0
  0
LINE
  5
1D9
330
1F
100
AcDbEntity
  8
0
  6
Continuous
 62
     7
370
    25
100
AcDbLine
 10
211.4993099201
 20
370.7433922752
 30
0.0
 11
216.5793094862
 21
370.7433922752
 31
0.0
  0
LINE
  5
1DA
330
1F
100
AcDbEntity
  8
0
  6
Continuous
 62
     7
370
    25
100
AcDbLine
 10
211.4993099201
 20
370.7433922752
 30
0.0
 11
211.4993099201
 21
363.3773906693
 31
0.0
  0
LINE
  5
1DB
330
1F
100
AcDbEntity
  8
0
  6
Continuous
 62
     7
370
    25
100
AcDbLine
 10
211.4993099201
 20
363.3773906693
 30
0.0
 11
135.2993164289
 21
363.3773906693
 31
0.0
  0
LINE
  5
1DC
330
1F
100
AcDbEntity
  8
0
  6
Continuous
 62
     7
370
    25
100
AcDbLine
 10
135.2993164289
 20
363.3773906693
 30
0.0
 11
135.2993164289
 21
370.7423789963
 31
0.0
  0
LINE
  5
1DD
330
1F
100
AcDbEntity
  8
0
  6
Continuous
 62
     7
370
    25
100
AcDbLine
 10
135.2993164289
 20
370.7423789963
 30
0.0
 11
130.2193168629
 21
370.7423789963
 31
0.0
  0
LINE
  5
1DE
330
1F
100
AcDbEntity
  8
0
  6
Continuous
 62
     7
370
    25
100
AcDbLine
 10
130.2193168629
 20
370.7423789963
 30
0.0
 11
130.2193168629
 21
406.8124278053
 31
0.0
  0
LINE
  5
1DF
330
1F
100
AcDbEntity
  8
0
  6
Continuous
 62
     7
370
    25
100
AcDbLine
 10
42.5893280733
 20
406.8124278053
 30
0.0
 11
37.5093136061
 21
406.8124278053
 31
0.0
  0
LINE
  5
1E0
330
1F
100
AcDbEntity
  8
0
  6
Continuous
 62
     7
370
    25
100
AcDbLine
 10
42.5893280733
 20
406.8124278053
 30
0.0
 11
42.5893280733
 21
414.1774161324
 31
0.0
  0
LINE
  5
1E1
330
1F
100
AcDbEntity
  8
0
  6
Continuous
 62
     7
370
    25
100
AcDbLine
 10
118.7893215645
 20
414.1774161324
 30
0.0
 11
118.7893215645
 21
406.8114145264
 31
0.0
  0
LINE
  5
1E2
330
1F
100
AcDbEntity
  8
0
  6
Continuous
 62
     7
370
    25
100
AcDbLine
 10
118.7893215645
 20
406.8114145264
 30
0.0
 11
123.8693211306
 21
406.8114145264
 31
0.0
  0
LINE
  5
1E3
330
1F
100
AcDbEntity
  8
0
  6
Continuous
 62
     7
370
    25
100
AcDbLine
 10
123.8693211306
 20
406.8114145264
 30
0.0
 11
123.8693211306
 21
370.7433922752
 31
0.0
  0
LINE
  5
1E4
330
1F
100
AcDbEntity
  8
0
  6
Continuous
 62
     7
370
    25
100
AcDbLine
 10
118.7893215645
 20
370.7433922752
 30
0.0
 11
123.8693211306
 21
370.7433922752
 31
0.0
  0
LINE
  5
1E5
330
1F
100
AcDbEntity
  8
0
  6
Continuous
 62
     7
370
    25
100
AcDbLine
 10
118.7893215645
 20
370.7433922752
 30
0.0
 11
118.7893215645
 21
363.3773906693
 31
0.0
  0
LINE
  5
1E6
330
1F
100
AcDbEntity
  8
0
  6
Continuous
 62
     7
370
    25
100
AcDbLine
 10
42.5893280733
 20
363.3773906693
 30
0.0
 11
42.5893280733
 21
370.7423789963
 31
0.0
  0
LINE
  5
1E7
330
1F
100
AcDbEntity
  8
0
  6
Continuous
 62
     7
370
    25
100
AcDbLine
 10
42.5893280733
 20
370.7423789963
 30
0.0
 11
37.5093136061
 21
370.7423789963
 31
0.0
  0
LINE
  5
1E8
330
1F
100
AcDbEntity
  8
0
  6
Continuous
 62
     7
370
    25
100
AcDbLine
 10
37.5093136061
 20
370.7423789963
 30
0.0
 11
37.5093136061
 21
406.8124278053
 31
0.0
  0
LINE
  5
1E9
330
1F
100
AcDbEntity
  8
0
  6
Continuous
 62
     7
370
    25
100
AcDbLine
 10
118.7893215645
 20
363.3773906693
 30
0.0
 11
42.5893280733
 21
363.3773906693
 31
0.0
  0
LINE
  5
1EA
330
1F
100
AcDbEntity
  8
0
  6
Continuous
 62
     7
370
    25
100
AcDbLine
 10
42.5893280733
 20
414.1774161324
 30
0.0
 11
118.7893215645
 21
414.1774161324
 31
0.0
  0
LINE
  5
1EB
330
1F
100
AcDbEntity
  8
0
  6
Continuous
 62
     7
370
    25
100
AcDbLine
 10
42.5893280733
 20
349.6623917088
 30
0.0
 11
37.5093136061
 21
349.6623917088
 31
0.0
  0
LINE
  5
1EC
330
1F
100
AcDbEntity
  8
0
  6
Continuous
 62
     7
370
    25
100
AcDbLine
 10
42.5893280733
 20
349.6623917088
 30
0.0
 11
42.5893280733
 21
357.0274098381
 31
0.0
  0
LINE
  5
1ED
330
1F
100
AcDbEntity
  8
0
  6
Continuous
 62
     7
370
    25
100
AcDbLine
 10
118.7893215645
 20
357.0274098381
 30
0.0
 11
118.7893215645
 21
349.6614082321
 31
0.0
  0
LINE
  5
1EE
330
1F
100
AcDbEntity
  8
0
  6
Continuous
 62
     7
370
    25
100
AcDbLine
 10
118.7893215645
 20
349.6614082321
 30
0.0
 11
123.8693211306
 21
349.6614082321
 31
0.0
  0
LINE
  5
1EF
330
1F
100
AcDbEntity
  8
0
  6
Continuous
 62
     7
370
    25
100
AcDbLine
 10
123.8693211306
 20
349.6614082321
 30
0.0
 11
123.8693211306
 21
313.593385981
 31
0.0
  0
LINE
  5
1F0
330
1F
100
AcDbEntity
  8
0
  6
Continuous
 62
     7
370
    25
100
AcDbLine
 10
118.7893215645
 20
313.593385981
 30
0.0
 11
123.8693211306
 21
313.593385981
 31
0.0
  0
LINE
  5
1F1
330
1F
100
AcDbEntity
  8
0
  6
Continuous
 62
     7
370
    25
100
AcDbLine
 10
118.7893215645
 20
313.593385981
 30
0.0
 11
118.7893215645
 21
306.2274141773
 31
0.0
  0
LINE
  5
1F2
330
1F
100
AcDbEntity
  8
0
  6
Continuous
 62
     7
370
    25
100
AcDbLine
 10
42.5893280733
 20
306.2274141773
 30
0.0
 11
42.5893280733
 21
313.5924025044
 31
0.0
  0
LINE
  5
1F3
330
1F
100
AcDbEntity
  8
0
  6
Continuous
 62
     7
370
    25
100
AcDbLine
 10
42.5893280733
 20
313.5924025044
 30
0.0
 11
37.5093136061
 21
313.5924025044
 31
0.0
  0
LINE
  5
1F4
330
1F
100
AcDbEntity
  8
0
  6
Continuous
 62
     7
370
    25
100
AcDbLine
 10
37.5093136061
 20
313.5924025044
 30
0.0
 11
37.5093136061
 21
349.6623917088
 31
0.0
  0
LINE
  5
1F5
330
1F
100
AcDbEntity
  8
0
  6
Continuous
 62
     7
370
    25
100
AcDbLine
 10
118.7893215645
 20
306.2274141773
 30
0.0
 11
42.5893280733
 21
306.2274141773
 31
0.0
  0
LINE
  5
1F6
330
1F
100
AcDbEntity
  8
0
  6
Continuous
 62
     7
370
    25
100
AcDbLine
 10
42.5893280733
 20
357.0274098381
 30
0.0
 11
118.7893215645
 21
357.0274098381
 31
0.0
  0
LINE
  5
1F7
330
1F
100
AcDbEntity
  8
0
  6
Continuous
 62
     7
370
    25
100
AcDbLine
 10
135.2993164289
 20
349.6623917088
 30
0.0
 11
130.2193168629
 21
349.6623917088
 31
0.0
  0
LINE
  5
1F8
330
1F
100
AcDbEntity
  8
0
  6
Continuous
 62
     7
370
    25
100
AcDbLine
 10
135.2993164289
 20
349.6623917088
 30
0.0
 11
135.2993164289
 21
357.0274098381
 31
0.0
  0
LINE
  5
1F9
330
1F
100
AcDbEntity
  8
0
  6
Continuous
 62
     7
370
    25
100
AcDbLine
 10
211.4993099201
 20
349.6614082321
 30
0.0
 11
216.5793094862
 21
349.6614082321
 31
0.0
  0
LINE
  5
1FA
330
1F
100
AcDbEntity
  8
0
  6
Continuous
 62
     7
370
    25
100
AcDbLine
 10
216.5793094862
 20
349.6614082321
 30
0.0
 11
216.5793094862
 21
313.593385981
 31
0.0
  0
LINE
  5
1FB
330
1F
100
AcDbEntity
  8
0
  6
Continuous
 62
     7
370
    25
100
AcDbLine
 10
211.4993099201
 20
313.593385981
 30
0.0
 11
216.5793094862
 21
313.593385981
 31
0.0
  0
LINE
  5
1FC
330
1F
100
AcDbEntity
  8
0
  6
Continuous
 62
     7
370
    25
100
AcDbLine
 10
135.2993164289
 20
306.2274141773
 30
0.0
 11
135.2993164289
 21
313.5924025044
 31
0.0
  0
LINE
  5
1FD
330
1F
100
AcDbEntity
  8
0
  6
Continuous
 62
     7
370
    25
100
AcDbLine
 10
135.2993164289
 20
313.5924025044
 30
0.0
 11
130.2193168629
 21
313.5924025044
 31
0.0
  0
LINE
  5
1FE
330
1F
100
AcDbEntity
  8
0
  6
Continuous
 62
     7
370
    25
100
AcDbLine
 10
130.2193168629
 20
313.5924025044
 30
0.0
 11
130.2193168629
 21
349.6623917088
 31
0.0
  0
LINE
  5
1FF
330
1F
100
AcDbEntity
  8
0
  6
Continuous
 62
     7
370
    25
100
AcDbLine
 10
211.4993099201
 20
357.0274098381
 30
0.0
 11
211.4993099201
 21
349.6614082321
 31
0.0
  0
LINE
  5
200
330
1F
100
AcDbEntity
  8
0
  6
Continuous
 62
     7
370
    25
100
AcDbLine
 10
211.4993099201
 20
313.593385981
 30
0.0
 11
211.4993099201
 21
306.2274141773
 31
0.0
  0
LINE
  5
201
330
1F
100
AcDbEntity
  8
0
  6
Continuous
 62
     7
370
    25
100
AcDbLine
 10
211.4993099201
 20
306.2274141773
 30
0.0
 11
135.2993164289
 21
306.2274141773
 31
0.0
  0
LINE
  5
202
330
1F
100
AcDbEntity
  8
0
  6
Continuous
 62
     7
370
    25
100
AcDbLine
 10
135.2993164289
 20
357.0274098381
 30
0.0
 11
211.4993099201
 21
357.0274098381
 31
0.0
  0
LINE
  5
203
330
1F
100
AcDbEntity
  8
0
  6
Continuous
 62
     7
370
    25
100
AcDbLine
 10
228.0093196857
 20
349.6623917088
 30
0.0
 11
222.9293201197
 21
349.6623917088
 31
0.0
  0
LINE
  5
204
330
1F
100
AcDbEntity
  8
0
  6
Continuous
 62
     7
370
    25
100
AcDbLine
 10
228.0093196857
 20
349.6623917088
 30
0.0
 11
228.0093196857
 21
357.0274098381
 31
0.0
  0
LINE
  5
205
330
1F
100
AcDbEntity
  8
0
  6
Continuous
 62
     7
370
    25
100
AcDbLine
 10
304.2093131769
 20
349.6614082321
 30
0.0
 11
309.289312743
 21
349.6614082321
 31
0.0
  0
LINE
  5
206
330
1F
100
AcDbEntity
  8
0
  6
Continuous
 62
     7
370
    25
100
AcDbLine
 10
309.289312743
 20
349.6614082321
 30
0.0
 11
309.289312743
 21
313.593385981
 31
0.0
  0
LINE
  5
207
330
1F
100
AcDbEntity
  8
0
  6
Continuous
 62
     7
370
    25
100
AcDbLine
 10
304.2093131769
 20
313.593385981
 30
0.0
 11
309.289312743
 21
313.593385981
 31
0.0
  0
LINE
  5
208
330
1F
100
AcDbEntity
  8
0
  6
Continuous
 62
     7
370
    25
100
AcDbLine
 10
304.2093131769
 20
306.2274141773
 30
0.0
 11
228.0093196857
 21
306.2274141773
 31
0.0
  0
LINE
  5
209
330
1F
100
AcDbEntity
  8
0
  6
Continuous
 62
     7
370
    25
100
AcDbLine
 10
228.0093196857
 20
306.2274141773
 30
0.0
 11
228.0093196857
 21
313.5924025044
 31
0.0
  0
LINE
  5
20A
330
1F
100
AcDbEntity
  8
0
  6
Continuous
 62
     7
370
    25
100
AcDbLine
 10
228.0093196857
 20
313.5924025044
 30
0.0
 11
222.9293201197
 21
313.5924025044
 31
0.0
  0
LINE
  5
20B
330
1F
100
AcDbEntity
  8
0
  6
Continuous
 62
     7
370
    25
100
AcDbLine
 10
222.9293201197
 20
313.5924025044
 30
0.0
 11
222.9293201197
 21
349.6623917088
 31
0.0
  0
LINE
  5
20C
330
1F
100
AcDbEntity
  8
0
  6
Continuous
 62
     7
370
    25
100
AcDbLine
 10
304.2093131769
 20
313.593385981
 30
0.0
 11
304.2093131769
 21
306.2274141773
 31
0.0
  0
LINE
  5
20D
330
1F
100
AcDbEntity
  8
0
  6
Continuous
 62
     7
370
    25
100
AcDbLine
 10
304.2093131769
 20
357.0274098381
 30
0.0
 11
304.2093131769
 21
349.6614082321
 31
0.0
  0
LINE
  5
20E
330
1F
100
AcDbEntity
  8
0
  6
Continuous
 62
     7
370
    25
100
AcDbLine
 10
228.0093196857
 20
357.0274098381
 30
0.0
 11
304.2093131769
 21
357.0274098381
 31
0.0
  0
LINE
  5
20F
330
1F
100
AcDbEntity
  8
0
  6
Continuous
 62
     7
370
    25
100
AcDbLine
 10
320.719315492
 20
349.6623917088
 30
0.0
 11
315.6393159259
 21
349.6623917088
 31
0.0
  0
LINE
  5
210
330
1F
100
AcDbEntity
  8
0
  6
Continuous
 62
     7
370
    25
100
AcDbLine
 10
320.719315492
 20
349.6623917088
 30
0.0
 11
320.719315492
 21
357.0274098381
 31
0.0
  0
LINE
  5
211
330
1F
100
AcDbEntity
  8
0
  6
Continuous
 62
     7
370
    25
100
AcDbLine
 10
396.9193127084
 20
357.0274098381
 30
0.0
 11
396.9193127084
 21
349.6614082321
 31
0.0
  0
LINE
  5
212
330
1F
100
AcDbEntity
  8
0
  6
Continuous
 62
     7
370
    25
100
AcDbLine
 10
396.9193127084
 20
349.6614082321
 30
0.0
 11
401.9993159998
 21
349.6614082321
 31
0.0
  0
LINE
  5
213
330
1F
100
AcDbEntity
  8
0
  6
Continuous
 62
     7
370
    25
100
AcDbLine
 10
401.9993159998
 20
349.6614082321
 30
0.0
 11
401.9993159998
 21
313.593385981
 31
0.0
  0
LINE
  5
214
330
1F
100
AcDbEntity
  8
0
  6
Continuous
 62
     7
370
    25
100
AcDbLine
 10
396.9193127084
 20
313.593385981
 30
0.0
 11
401.9993159998
 21
313.593385981
 31
0.0
  0
LINE
  5
215
330
1F
100
AcDbEntity
  8
0
  6
Continuous
 62
     7
370
    25
100
AcDbLine
 10
320.719315492
 20
306.2274141773
 30
0.0
 11
320.719315492
 21
313.5924025044
 31
0.0
  0
LINE
  5
216
330
1F
100
AcDbEntity
  8
0
  6
Continuous
 62
     7
370
    25
100
AcDbLine
 10
320.719315492
 20
313.5924025044
 30
0.0
 11
315.6393159259
 21
313.5924025044
 31
0.0
  0
LINE
  5
217
330
1F
100
AcDbEntity
  8
0
  6
Continuous
 62
     7
370
    25
100
AcDbLine
 10
315.6393159259
 20
313.5924025044
 30
0.0
 11
315.6393159259
 21
349.6623917088
 31
0.0
  0
LINE
  5
218
330
1F
100
AcDbEntity
  8
0
  6
Continuous
 62
     7
370
    25
100
AcDbLine
 10
396.9193127084
 20
306.2274141773
 30
0.0
 11
320.719315492
 21
306.2274141773
 31
0.0
  0
LINE
  5
219
330
1F
100
AcDbEntity
  8
0
  6
Continuous
 62
     7
370
    25
100
AcDbLine
 10
320.719315492
 20
357.0274098381
 30
0.0
 11
396.9193127084
 21
357.0274098381
 31
0.0
  0
LINE
  5
21A
330
1F
100
AcDbEntity
  8
0
  6
Continuous
 62
     7
370
    25
100
AcDbLine
 10
396.9193127084
 20
313.593385981
 30
0.0
 11
396.9193127084
 21
306.2274141773
 31
0.0
  0
LINE
  5
21B
330
1F
100
AcDbEntity
  8
0
  6
Continuous
 62
     7
370
    25
100
AcDbLine
 10
413.4293150235
 20
349.6623917088
 30
0.0
 11
408.3493154574
 21
349.6623917088
 31
0.0
  0
LINE
  5
21C
330
1F
100
AcDbEntity
  8
0
  6
Continuous
 62
     7
370
    25
100
AcDbLine
 10
413.4293150235
 20
349.6623917088
 30
0.0
 11
413.4293150235
 21
357.0274098381
 31
0.0
  0
LINE
  5
21D
330
1F
100
AcDbEntity
  8
0
  6
Continuous
 62
     7
370
    25
100
AcDbLine
 10
489.6293196905
 20
357.0274098381
 30
0.0
 11
489.6293196905
 21
349.6614082321
 31
0.0
  0
LINE
  5
21E
330
1F
100
AcDbEntity
  8
0
  6
Continuous
 62
     7
370
    25
100
AcDbLine
 10
489.6293196905
 20
349.6614082321
 30
0.0
 11
494.7093192566
 21
349.6614082321
 31
0.0
  0
LINE
  5
21F
330
1F
100
AcDbEntity
  8
0
  6
Continuous
 62
     7
370
    25
100
AcDbLine
 10
494.7093192566
 20
349.6614082321
 30
0.0
 11
494.7093192566
 21
313.593385981
 31
0.0
  0
LINE
  5
220
330
1F
100
AcDbEntity
  8
0
  6
Continuous
 62
     7
370
    25
100
AcDbLine
 10
489.6293196905
 20
313.593385981
 30
0.0
 11
494.7093192566
 21
313.593385981
 31
0.0
  0
LINE
  5
221
330
1F
100
AcDbEntity
  8
0
  6
Continuous
 62
     7
370
    25
100
AcDbLine
 10
489.6293196905
 20
313.593385981
 30
0.0
 11
489.6293196905
 21
306.2274141773
 31
0.0
  0
LINE
  5
222
330
1F
100
AcDbEntity
  8
0
  6
Continuous
 62
     7
370
    25
100
AcDbLine
 10
413.4293150235
 20
306.2274141773
 30
0.0
 11
413.4293150235
 21
313.5924025044
 31
0.0
  0
LINE
  5
223
330
1F
100
AcDbEntity
  8
0
  6
Continuous
 62
     7
370
    25
100
AcDbLine
 10
413.4293150235
 20
313.5924025044
 30
0.0
 11
408.3493154574
 21
313.5924025044
 31
0.0
  0
LINE
  5
224
330
1F
100
AcDbEntity
  8
0
  6
Continuous
 62
     7
370
    25
100
AcDbLine
 10
408.3493154574
 20
313.5924025044
 30
0.0
 11
408.3493154574
 21
349.6623917088
 31
0.0
  0
LINE
  5
225
330
1F
100
AcDbEntity
  8
0
  6
Continuous
 62
     7
370
    25
100
AcDbLine
 10
489.6293196905
 20
306.2274141773
 30
0.0
 11
413.4293150235
 21
306.2274141773
 31
0.0
  0
LINE
  5
226
330
1F
100
AcDbEntity
  8
0
  6
Continuous
 62
     7
370
    25
100
AcDbLine
 10
413.4293150235
 20
357.0274098381
 30
0.0
 11
489.6293196905
 21
357.0274098381
 31
0.0
  0
LINE
  5
227
330
1F
100
AcDbEntity
  8
0
  6
Continuous
 62
     7
370
    25
100
AcDbLine
 10
506.139314555
 20
349.6623917088
 30
0.0
 11
501.0593149889
 21
349.6623917088
 31
0.0
  0
LINE
  5
228
330
1F
100
AcDbEntity
  8
0
  6
Continuous
 62
     7
370
    25
100
AcDbLine
 10
506.139314555
 20
349.6623917088
 30
0.0
 11
506.139314555
 21
357.0274098381
 31
0.0
  0
LINE
  5
229
330
1F
100
AcDbEntity
  8
0
  6
Continuous
 62
     7
370
    25
100
AcDbLine
 10
582.3393080461
 20
357.0274098381
 30
0.0
 11
582.3393080461
 21
349.6614082321
 31
0.0
  0
LINE
  5
22A
330
1F
100
AcDbEntity
  8
0
  6
Continuous
 62
     7
370
    25
100
AcDbLine
 10
582.3393080461
 20
349.6614082321
 30
0.0
 11
587.4193076122
 21
349.6614082321
 31
0.0
  0
LINE
  5
22B
330
1F
100
AcDbEntity
  8
0
  6
Continuous
 62
     7
370
    25
100
AcDbLine
 10
587.4193076122
 20
349.6614082321
 30
0.0
 11
587.4193076122
 21
313.593385981
 31
0.0
  0
LINE
  5
22C
330
1F
100
AcDbEntity
  8
0
  6
Continuous
 62
     7
370
    25
100
AcDbLine
 10
582.3393080461
 20
313.593385981
 30
0.0
 11
587.4193076122
 21
313.593385981
 31
0.0
  0
LINE
  5
22D
330
1F
100
AcDbEntity
  8
0
  6
Continuous
 62
     7
370
    25
100
AcDbLine
 10
582.3393080461
 20
313.593385981
 30
0.0
 11
582.3393080461
 21
306.2274141773
 31
0.0
  0
LINE
  5
22E
330
1F
100
AcDbEntity
  8
0
  6
Continuous
 62
     7
370
    25
100
AcDbLine
 10
506.139314555
 20
306.2274141773
 30
0.0
 11
506.139314555
 21
313.5924025044
 31
0.0
  0
LINE
  5
22F
330
1F
100
AcDbEntity
  8
0
  6
Continuous
 62
     7
370
    25
100
AcDbLine
 10
506.139314555
 20
313.5924025044
 30
0.0
 11
501.0593149889
 21
313.5924025044
 31
0.0
  0
LINE
  5
230
330
1F
100
AcDbEntity
  8
0
  6
Continuous
 62
     7
370
    25
100
AcDbLine
 10
501.0593149889
 20
313.5924025044
 30
0.0
 11
501.0593149889
 21
349.6623917088
 31
0.0
  0
LINE
  5
231
330
1F
100
AcDbEntity
  8
0
  6
Continuous
 62
     7
370
    25
100
AcDbLine
 10
582.3393080461
 20
306.2274141773
 30
0.0
 11
506.139314555
 21
306.2274141773
 31
0.0
  0
LINE
  5
232
330
1F
100
AcDbEntity
  8
0
  6
Continuous
 62
     7
370
    25
100
AcDbLine
 10
506.139314555
 20
357.0274098381
 30
0.0
 11
582.3393080461
 21
357.0274098381
 31
0.0
  0
LINE
  5
233
330
1F
100
AcDbEntity
  8
0
  6
Continuous
 62
     7
370
    25
100
AcDbLine
 10
587.4193076122
 20
296.2273939118
 30
0.0
 11
551.1335942972
 21
296.2273939118
 31
0.0
  0
LINE
  5
234
330
1F
100
AcDbEntity
  8
0
  6
Continuous
 62
     7
370
    25
100
AcDbLine
 10
582.3393080461
 20
259.9416954979
 30
0.0
 11
587.4193076122
 21
259.9416954979
 31
0.0
  0
LINE
  5
235
330
1F
100
AcDbEntity
  8
0
  6
Continuous
 62
     7
370
    25
100
AcDbLine
 10
582.3393080461
 20
223.6559672817
 30
0.0
 11
587.4193076122
 21
223.6559672817
 31
0.0
  0
LINE
  5
236
330
1F
100
AcDbEntity
  8
0
  6
Continuous
 62
     7
370
    25
100
AcDbLine
 10
587.4193076122
 20
187.3702688679
 30
0.0
 11
587.4193076122
 21
223.6559672817
 31
0.0
  0
LINE
  5
237
330
1F
100
AcDbEntity
  8
0
  6
Continuous
 62
     7
370
    25
100
AcDbLine
 10
587.4193076122
 20
114.7988422379
 30
0.0
 11
587.4193076122
 21
151.0845406517
 31
0.0
  0
LINE
  5
238
330
1F
100
AcDbEntity
  8
0
  6
Continuous
 62
     7
370
    25
100
AcDbLine
 10
582.3393080461
 20
114.7988422379
 30
0.0
 11
587.4193076122
 21
114.7988422379
 31
0.0
  0
LINE
  5
239
330
1F
100
AcDbEntity
  8
0
  6
Continuous
 62
     7
370
    25
100
AcDbLine
 10
582.3393080461
 20
78.5131140217
 30
0.0
 11
587.4193076122
 21
78.5131140217
 31
0.0
  0
LINE
  5
23A
330
1F
100
AcDbEntity
  8
0
  6
Continuous
 62
     7
370
    25
100
AcDbLine
 10
587.4193076122
 20
42.2274007067
 30
0.0
 11
587.4193076122
 21
78.5131140217
 31
0.0
  0
LINE
  5
23B
330
1F
100
AcDbEntity
  8
0
  6
Continuous
 62
     7
370
    25
100
AcDbLine
 10
551.1335942972
 20
47.3074002728
 30
0.0
 11
551.1335942972
 21
42.2274007067
 31
0.0
  0
LINE
  5
23C
330
1F
100
AcDbEntity
  8
0
  6
Continuous
 62
     7
370
    25
100
AcDbLine
 10
478.5621751178
 20
42.2274007067
 30
0.0
 11
514.8478809822
 21
42.2274007067
 31
0.0
  0
LINE
  5
23D
330
1F
100
AcDbEntity
  8
0
  6
Continuous
 62
     7
370
    25
100
AcDbLine
 10
442.2764543522
 20
47.3074002728
 30
0.0
 11
442.2764543522
 21
42.2274007067
 31
0.0
  0
LINE
  5
23E
330
1F
100
AcDbEntity
  8
0
  6
Continuous
 62
     7
370
    25
100
AcDbLine
 10
405.9907410372
 20
42.2274007067
 30
0.0
 11
442.2764543522
 21
42.2274007067
 31
0.0
  0
LINE
  5
23F
330
1F
100
AcDbEntity
  8
0
  6
Continuous
 62
     7
370
    25
100
AcDbLine
 10
333.4193144072
 20
42.2274007067
 30
0.0
 11
369.7050286535
 21
42.2274007067
 31
0.0
  0
LINE
  5
240
330
1F
100
AcDbEntity
  8
0
  6
Continuous
 62
     7
370
    25
100
AcDbLine
 10
333.4193144072
 20
78.5131140217
 30
0.0
 11
333.4193144072
 21
42.2274007067
 31
0.0
  0
LINE
  5
241
330
1F
100
AcDbEntity
  8
0
  6
Continuous
 62
     7
370
    25
100
AcDbLine
 10
338.4993139732
 20
151.0845406517
 30
0.0
 11
333.4193144072
 21
151.0845406517
 31
0.0
  0
LINE
  5
242
330
1F
100
AcDbEntity
  8
0
  6
Continuous
 62
     7
370
    25
100
AcDbLine
 10
338.4993139732
 20
151.0845406517
 30
0.0
 11
338.4993139732
 21
187.3702688679
 31
0.0
  0
LINE
  5
243
330
1F
100
AcDbEntity
  8
0
  6
Continuous
 62
     7
370
    25
100
AcDbLine
 10
338.4993139732
 20
187.3702688679
 30
0.0
 11
333.4193144072
 21
187.3702688679
 31
0.0
  0
LINE
  5
244
330
1F
100
AcDbEntity
  8
0
  6
Continuous
 62
     7
370
    25
100
AcDbLine
 10
369.7050286535
 20
296.2273939118
 30
0.0
 11
333.4193144072
 21
296.2273939118
 31
0.0
  0
LINE
  5
245
330
1F
100
AcDbEntity
  8
0
  6
Continuous
 62
     7
370
    25
100
AcDbLine
 10
369.7050286535
 20
291.1474092468
 30
0.0
 11
405.9907410372
 21
291.1474092468
 31
0.0
  0
LINE
  5
246
330
1F
100
AcDbEntity
  8
0
  6
Continuous
 62
     7
370
    25
100
AcDbLine
 10
442.2764543522
 20
296.2273939118
 30
0.0
 11
405.9907410372
 21
296.2273939118
 31
0.0
  0
LINE
  5
247
330
1F
100
AcDbEntity
  8
0
  6
Continuous
 62
     7
370
    25
100
AcDbLine
 10
442.2764543522
 20
291.1474092468
 30
0.0
 11
478.5621751178
 21
291.1474092468
 31
0.0
  0
LINE
  5
248
330
1F
100
AcDbEntity
  8
0
  6
Continuous
 62
     7
370
    25
100
AcDbLine
 10
478.5621751178
 20
291.1474092468
 30
0.0
 11
478.5621751178
 21
296.2273939118
 31
0.0
  0
LINE
  5
249
330
1F
100
AcDbEntity
  8
0
  6
Continuous
 62
     7
370
    25
100
AcDbLine
 10
514.8478809822
 20
296.2273939118
 30
0.0
 11
478.5621751178
 21
296.2273939118
 31
0.0
  0
LINE
  5
24A
330
1F
100
AcDbEntity
  8
0
  6
Continuous
 62
     7
370
    25
100
AcDbLine
 10
514.8478809822
 20
291.1474092468
 30
0.0
 11
551.1335942972
 21
291.1474092468
 31
0.0
  0
CIRCLE
  5
24B
330
1F
100
AcDbEntity
  8
0
  6
Continuous
 62
     7
370
    25
100
AcDbCircle
 10
460.4193142857
 20
169.2274
 30
0.0
 40
21.59
  0
LINE
  5
24C
330
1F
100
AcDbEntity
  8
0
  6
Continuous
 62
     7
370
    25
100
AcDbLine
 10
553.5526488054
 20
155.8924003109
 30
0.0
 11
548.4726492393
 21
155.8924003109
 31
0.0
  0
LINE
  5
24D
330
1F
100
AcDbEntity
  8
0
  6
Continuous
 62
     7
370
    25
100
AcDbLine
 10
548.4726492393
 20
155.8924003109
 30
0.0
 11
548.4726492393
 21
138.1123943791
 31
0.0
  0
LINE
  5
24E
330
1F
100
AcDbEntity
  8
0
  6
Continuous
 62
     7
370
    25
100
AcDbLine
 10
548.4726492393
 20
138.1123943791
 30
0.0
 11
553.5526488054
 21
138.1123943791
 31
0.0
  0
LINE
  5
24F
330
1F
100
AcDbEntity
  8
0
  6
Continuous
 62
     7
370
    25
100
AcDbLine
 10
553.5526488054
 20
138.1123943791
 30
0.0
 11
553.5526488054
 21
155.8924003109
 31
0.0
  0
LINE
  5
250
330
1F
100
AcDbEntity
  8
0
  6
Continuous
 62
     7
370
    25
100
AcDbLine
 10
541.6993115175
 20
144.4624050125
 30
0.0
 11
521.4552942741
 21
144.4624050125
 31
0.0
  0
LINE
  5
251
330
1F
100
AcDbEntity
  8
0
  6
Continuous
 62
     7
370
    25
100
AcDbLine
 10
521.4552942741
 20
144.4624050125
 30
0.0
 11
521.4552942741
 21
139.3823905453
 31
0.0
  0
LINE
  5
252
330
1F
100
AcDbEntity
  8
0
  6
Continuous
 62
     7
370
    25
100
AcDbLine
 10
521.4552942741
 20
139.3823905453
 30
0.0
 11
541.6993115175
 21
139.3823905453
 31
0.0
  0
LINE
  5
253
330
1F
100
AcDbEntity
  8
0
  6
Continuous
 62
     7
370
    25
100
AcDbLine
 10
541.6993115175
 20
139.3823905453
 30
0.0
 11
541.6993115175
 21
144.4624050125
 31
0.0
  0
LINE
  5
254
330
1F
100
AcDbEntity
  8
0
  6
Continuous
 62
     7
370
    25
100
AcDbLine
 10
513.2473323572
 20
154.8793001637
 30
0.0
 11
508.1673327911
 21
154.8793001637
 31
0.0
  0
LINE
  5
255
330
1F
100
AcDbEntity
  8
0
  6
Continuous
 62
     7
370
    25
100
AcDbLine
 10
508.1673327911
 20
154.8793001637
 30
0.0
 11
508.1673327911
 21
137.0992942318
 31
0.0
  0
LINE
  5
256
330
1F
100
AcDbEntity
  8
0
  6
Continuous
 62
     7
370
    25
100
AcDbLine
 10
508.1673327911
 20
137.0992942318
 30
0.0
 11
513.2473323572
 21
137.0992942318
 31
0.0
  0
LINE
  5
257
330
1F
100
AcDbEntity
  8
0
  6
Continuous
 62
     7
370
    25
100
AcDbLine
 10
513.2473323572
 20
137.0992942318
 30
0.0
 11
513.2473323572
 21
154.8793001637
 31
0.0
  0
LINE
  5
258
330
1F
100
AcDbEntity
  8
0
  6
Continuous
 62
     7
370
    25
100
AcDbLine
 10
513.7897346247
 20
201.2739761337
 30
0.0
 11
508.7097350586
 21
201.2739761337
 31
0.0
  0
LINE
  5
259
330
1F
100
AcDbEntity
  8
0
  6
Continuous
 62
     7
370
    25
100
AcDbLine
 10
508.7097350586
 20
201.2739761337
 30
0.0
 11
508.7097350586
 21
183.4940000042
 31
0.0
  0
LINE
  5
25A
330
1F
100
AcDbEntity
  8
0
  6
Continuous
 62
     7
370
    25
100
AcDbLine
 10
508.7097350586
 20
183.4940000042
 30
0.0
 11
513.7897346247
 21
183.4940000042
 31
0.0
  0
LINE
  5
25B
330
1F
100
AcDbEntity
  8
0
  6
Continuous
 62
     7
370
    25
100
AcDbLine
 10
513.7897346247
 20
183.4940000042
 30
0.0
 11
513.7897346247
 21
201.2739761337
 31
0.0
  0
LINE
  5
25C
330
1F
100
AcDbEntity
  8
0
  6
Continuous
 62
     7
370
    25
100
AcDbLine
 10
521.4552942741
 20
200.5085332855
 30
0.0
 11
521.4552942741
 21
195.4285486206
 31
0.0
  0
LINE
  5
25D
330
1F
100
AcDbEntity
  8
0
  6
Continuous
 62
     7
370
    25
100
AcDbLine
 10
521.4552942741
 20
195.4285486206
 30
0.0
 11
541.7752925385
 21
195.4285486206
 31
0.0
  0
LINE
  5
25E
330
1F
100
AcDbEntity
  8
0
  6
Continuous
 62
     7
370
    25
100
AcDbLine
 10
554.0723119009
 20
200.3423853382
 30
0.0
 11
548.9923123348
 21
200.3423853382
 31
0.0
  0
LINE
  5
25F
330
1F
100
AcDbEntity
  8
0
  6
Continuous
 62
     7
370
    25
100
AcDbLine
 10
548.9923123348
 20
182.5624092087
 30
0.0
 11
554.0723119009
 21
182.5624092087
 31
0.0
  0
LINE
  5
260
330
1F
100
AcDbEntity
  8
0
  6
Continuous
 62
     7
370
    25
100
AcDbLine
 10
554.0723119009
 20
182.5624092087
 30
0.0
 11
554.0723119009
 21
200.3423853382
 31
0.0
  0
LINE
  5
261
330
1F
100
AcDbEntity
  8
0
  6
Continuous
 62
     7
370
    25
100
AcDbLine
 10
358.8193141002
 20
72.7073981032
 30
0.0
 11
375.7526472289
 21
72.7073981032
 31
0.0
  0
LINE
  5
262
330
1F
100
AcDbEntity
  8
0
  6
Continuous
 62
     7
370
    25
100
AcDbLine
 10
358.8193141002
 20
67.6273985371
 30
0.0
 11
358.8193141002
 21
72.7073981032
 31
0.0
  0
LINE
  5
263
330
1F
100
AcDbEntity
  8
0
  6
Continuous
 62
     7
370
    25
100
AcDbLine
 10
375.7526472289
 20
67.6273985371
 30
0.0
 11
358.8193141002
 21
67.6273985371
 31
0.0
  0
LINE
  5
264
330
1F
100
AcDbEntity
  8
0
  6
Continuous
 62
     7
370
    25
100
AcDbLine
 10
358.8193141002
 20
108.2673950657
 30
0.0
 11
375.7526472289
 21
108.2673950657
 31
0.0
  0
LINE
  5
265
330
1F
100
AcDbEntity
  8
0
  6
Continuous
 62
     7
370
    25
100
AcDbLine
 10
375.7526472289
 20
103.1873954996
 30
0.0
 11
358.8193141002
 21
103.1873954996
 31
0.0
  0
LINE
  5
266
330
1F
100
AcDbEntity
  8
0
  6
Continuous
 62
     7
370
    25
100
AcDbLine
 10
375.7526472289
 20
108.2673950657
 30
0.0
 11
375.7526472289
 21
103.1873954996
 31
0.0
  0
LINE
  5
267
330
1F
100
AcDbEntity
  8
0
  6
Continuous
 62
     7
370
    25
100
AcDbLine
 10
392.6859803576
 20
108.2673950657
 30
0.0
 11
409.6193153489
 21
108.2673950657
 31
0.0
  0
LINE
  5
268
330
1F
100
AcDbEntity
  8
0
  6
Continuous
 62
     7
370
    25
100
AcDbLine
 10
392.6859803576
 20
103.1873954996
 30
0.0
 11
392.6859803576
 21
108.2673950657
 31
0.0
  0
LINE
  5
269
330
1F
100
AcDbEntity
  8
0
  6
Continuous
 62
     7
370
    25
100
AcDbLine
 10
409.6193153489
 20
103.1873954996
 30
0.0
 11
392.6859803576
 21
103.1873954996
 31
0.0
  0
LINE
  5
26A
330
1F
100
AcDbEntity
  8
0
  6
Continuous
 62
     7
370
    25
100
AcDbLine
 10
409.6193153489
 20
108.2673950657
 30
0.0
 11
409.6193153489
 21
103.1873954996
 31
0.0
  0
LINE
  5
26B
330
1F
100
AcDbEntity
  8
0
  6
Continuous
 62
     7
370
    25
100
AcDbLine
 10
392.6859803576
 20
72.7073981032
 30
0.0
 11
409.6193153489
 21
72.7073981032
 31
0.0
  0
LINE
  5
26C
330
1F
100
AcDbEntity
  8
0
  6
Continuous
 62
     7
370
    25
100
AcDbLine
 10
409.6193153489
 20
67.6273985371
 30
0.0
 11
392.6859803576
 21
67.6273985371
 31
0.0
  0
LINE
  5
26D
330
1F
100
AcDbEntity
  8
0
  6
Continuous
 62
     7
370
    25
100
AcDbLine
 10
426.5526447523
 20
103.1873954996
 30
0.0
 11
426.5526447523
 21
108.2673950657
 31
0.0
  0
LINE
  5
26E
330
1F
100
AcDbEntity
  8
0
  6
Continuous
 62
     7
370
    25
100
AcDbLine
 10
443.4859816063
 20
103.1873954996
 30
0.0
 11
426.5526447523
 21
103.1873954996
 31
0.0
  0
LINE
  5
26F
330
1F
100
AcDbEntity
  8
0
  6
Continuous
 62
     7
370
    25
100
AcDbLine
 10
426.5526447523
 20
72.7073981032
 30
0.0
 11
443.4859816063
 21
72.7073981032
 31
0.0
  0
LINE
  5
270
330
1F
100
AcDbEntity
  8
0
  6
Continuous
 62
     7
370
    25
100
AcDbLine
 10
426.5526447523
 20
67.6273985371
 30
0.0
 11
426.5526447523
 21
72.7073981032
 31
0.0
  0
LINE
  5
271
330
1F
100
AcDbEntity
  8
0
  6
Continuous
 62
     7
370
    25
100
AcDbLine
 10
460.4193110097
 20
82.8673972353
 30
0.0
 11
455.3393114436
 21
82.8673972353
 31
0.0
  0
LINE
  5
272
330
1F
100
AcDbEntity
  8
0
  6
Continuous
 62
     7
370
    25
100
AcDbLine
 10
449.9193120826
 20
252.4824126228
 30
0.0
 11
449.9193120826
 21
275.4824145302
 31
0.0
  0
LINE
  5
273
330
1F
100
AcDbEntity
  8
0
  6
Continuous
 62
     7
370
    25
100
AcDbLine
 10
449.9193120826
 20
229.4824107155
 30
0.0
 11
444.8393125165
 21
229.4824107155
 31
0.0
  0
LINE
  5
274
330
1F
100
AcDbEntity
  8
0
  6
Continuous
 62
     7
370
    25
100
AcDbLine
 10
444.8393125165
 20
229.4824107155
 30
0.0
 11
444.8393125165
 21
206.4824088081
 31
0.0
  0
LINE
  5
275
330
1F
100
AcDbEntity
  8
0
  6
Continuous
 62
     7
370
    25
100
AcDbLine
 10
343.5793135393
 20
94.2974074349
 30
0.0
 11
343.5793135393
 21
81.5974010691
 31
0.0
  0
LINE
  5
276
330
1F
100
AcDbEntity
  8
0
  6
Continuous
 62
     7
370
    25
100
AcDbLine
 10
343.5793135393
 20
81.5974010691
 30
0.0
 11
349.9293139282
 21
81.5974010691
 31
0.0
  0
LINE
  5
277
330
1F
100
AcDbEntity
  8
0
  6
Continuous
 62
     7
370
    25
100
AcDbLine
 10
349.9293139282
 20
81.5974010691
 30
0.0
 11
349.9293139282
 21
94.2974074349
 31
0.0
  0
LINE
  5
278
330
1F
100
AcDbEntity
  8
0
  6
Continuous
 62
     7
370
    25
100
AcDbLine
 10
514.8478809822
 20
291.1474092468
 30
0.0
 11
514.8478809822
 21
296.2273939118
 31
0.0
  0
LINE
  5
279
330
1F
100
AcDbEntity
  8
0
  6
Continuous
 62
     7
370
    25
100
AcDbLine
 10
551.1335942972
 20
291.1474092468
 30
0.0
 11
551.1335942972
 21
296.2273939118
 31
0.0
  0
LINE
  5
27A
330
1F
100
AcDbEntity
  8
0
  6
Continuous
 62
     7
370
    25
100
AcDbLine
 10
333.4193144072
 20
223.6559672817
 30
0.0
 11
333.4193144072
 21
187.3702688679
 31
0.0
  0
LINE
  5
27B
330
1F
100
AcDbEntity
  8
0
  6
Continuous
 62
     7
370
    25
100
AcDbLine
 10
369.7050286535
 20
291.1474092468
 30
0.0
 11
369.7050286535
 21
296.2273939118
 31
0.0
  0
LINE
  5
27C
330
1F
100
AcDbEntity
  8
0
  6
Continuous
 62
     7
370
    25
100
AcDbLine
 10
405.9907410372
 20
291.1474092468
 30
0.0
 11
405.9907410372
 21
296.2273939118
 31
0.0
  0
LINE
  5
27D
330
1F
100
AcDbEntity
  8
0
  6
Continuous
 62
     7
370
    25
100
AcDbLine
 10
338.4993139732
 20
223.6559672817
 30
0.0
 11
338.4993139732
 21
259.9416954979
 31
0.0
  0
LINE
  5
27E
330
1F
100
AcDbEntity
  8
0
  6
Continuous
 62
     7
370
    25
100
AcDbLine
 10
338.4993139732
 20
259.9416954979
 30
0.0
 11
333.4193144072
 21
259.9416954979
 31
0.0
  0
LINE
  5
27F
330
1F
100
AcDbEntity
  8
0
  6
Continuous
 62
     7
370
    25
100
AcDbLine
 10
444.8393125165
 20
275.4824145302
 30
0.0
 11
444.8393125165
 21
252.4824126228
 31
0.0
  0
LINE
  5
280
330
1F
100
AcDbEntity
  8
0
  6
Continuous
 62
     7
370
    25
100
AcDbLine
 10
338.4993139732
 20
78.5131140217
 30
0.0
 11
338.4993139732
 21
114.7988422379
 31
0.0
  0
LINE
  5
281
330
1F
100
AcDbEntity
  8
0
  6
Continuous
 62
     7
370
    25
100
AcDbLine
 10
338.4993139732
 20
78.5131140217
 30
0.0
 11
333.4193144072
 21
78.5131140217
 31
0.0
  0
LINE
  5
282
330
1F
100
AcDbEntity
  8
0
  6
Continuous
 62
     7
370
    25
100
AcDbLine
 10
405.9907410372
 20
47.3074002728
 30
0.0
 11
405.9907410372
 21
42.2274007067
 31
0.0
  0
LINE
  5
283
330
1F
100
AcDbEntity
  8
0
  6
Continuous
 62
     7
370
    25
100
AcDbLine
 10
369.7050286535
 20
47.3074002728
 30
0.0
 11
369.7050286535
 21
42.2274007067
 31
0.0
  0
LINE
  5
284
330
1F
100
AcDbEntity
  8
0
  6
Continuous
 62
     7
370
    25
100
AcDbLine
 10
551.1335942972
 20
47.3074002728
 30
0.0
 11
514.8478809822
 21
47.3074002728
 31
0.0
  0
LINE
  5
285
330
1F
100
AcDbEntity
  8
0
  6
Continuous
 62
     7
370
    25
100
AcDbLine
 10
582.3393080461
 20
151.0845406517
 30
0.0
 11
587.4193076122
 21
151.0845406517
 31
0.0
  0
LINE
  5
286
330
1F
100
AcDbEntity
  8
0
  6
Continuous
 62
     7
370
    25
100
AcDbLine
 10
541.7752925385
 20
200.5085332855
 30
0.0
 11
521.4552942741
 21
200.5085332855
 31
0.0
  0
LINE
  5
287
330
1F
100
AcDbEntity
  8
0
  6
Continuous
 62
     7
370
    25
100
AcDbLine
 10
349.9293139282
 20
94.2974074349
 30
0.0
 11
343.5793135393
 21
94.2974074349
 31
0.0
  0
LINE
  5
288
330
1F
100
AcDbEntity
  8
0
  6
Continuous
 62
     7
370
    25
100
AcDbLine
 10
478.5621751178
 20
47.3074002728
 30
0.0
 11
478.5621751178
 21
42.2274007067
 31
0.0
  0
LINE
  5
289
330
1F
100
AcDbEntity
  8
0
  6
Continuous
 62
     7
370
    25
100
AcDbLine
 10
582.3393080461
 20
114.7988422379
 30
0.0
 11
582.3393080461
 21
78.5131140217
 31
0.0
  0
LINE
  5
28A
330
1F
100
AcDbEntity
  8
0
  6
Continuous
 62
     7
370
    25
100
AcDbLine
 10
449.9193120826
 20
206.4824088081
 30
0.0
 11
449.9193120826
 21
229.4824107155
 31
0.0
  0
LINE
  5
28B
330
1F
100
AcDbEntity
  8
0
  6
Continuous
 62
     7
370
    25
100
AcDbLine
 10
444.8393125165
 20
206.4824088081
 30
0.0
 11
449.9193120826
 21
206.4824088081
 31
0.0
  0
LINE
  5
28C
330
1F
100
AcDbEntity
  8
0
  6
Continuous
 62
     7
370
    25
100
AcDbLine
 10
582.3393080461
 20
187.3702688679
 30
0.0
 11
587.4193076122
 21
187.3702688679
 31
0.0
  0
LINE
  5
28D
330
1F
100
AcDbEntity
  8
0
  6
Continuous
 62
     7
370
    25
100
AcDbLine
 10
449.9193120826
 20
275.4824145302
 30
0.0
 11
444.8393125165
 21
275.4824145302
 31
0.0
  0
LINE
  5
28E
330
1F
100
AcDbEntity
  8
0
  6
Continuous
 62
     7
370
    25
100
AcDbLine
 10
338.4993139732
 20
223.6559672817
 30
0.0
 11
333.4193144072
 21
223.6559672817
 31
0.0
  0
LINE
  5
28F
330
1F
100
AcDbEntity
  8
0
  6
Continuous
 62
     7
370
    25
100
AcDbLine
 10
444.8393125165
 20
252.4824126228
 30
0.0
 11
449.9193120826
 21
252.4824126228
 31
0.0
  0
LINE
  5
290
330
1F
100
AcDbEntity
  8
0
  6
Continuous
 62
     7
370
    25
100
AcDbLine
 10
358.8193141002
 20
103.1873954996
 30
0.0
 11
358.8193141002
 21
108.2673950657
 31
0.0
  0
LINE
  5
291
330
1F
100
AcDbEntity
  8
0
  6
Continuous
 62
     7
370
    25
100
AcDbLine
 10
443.4859816063
 20
108.2673950657
 30
0.0
 11
443.4859816063
 21
103.1873954996
 31
0.0
  0
LINE
  5
292
330
1F
100
AcDbEntity
  8
0
  6
Continuous
 62
     7
370
    25
100
AcDbLine
 10
455.3393114436
 20
93.0273963675
 30
0.0
 11
460.4193110097
 21
93.0273963675
 31
0.0
  0
LINE
  5
293
330
1F
100
AcDbEntity
  8
0
  6
Continuous
 62
     7
370
    25
100
AcDbLine
 10
460.4193110097
 20
93.0273963675
 30
0.0
 11
460.4193110097
 21
82.8673972353
 31
0.0
  0
LINE
  5
294
330
1F
100
AcDbEntity
  8
0
  6
Continuous
 62
     7
370
    25
100
AcDbLine
 10
443.4859816063
 20
67.6273985371
 30
0.0
 11
426.5526447523
 21
67.6273985371
 31
0.0
  0
LINE
  5
295
330
1F
100
AcDbEntity
  8
0
  6
Continuous
 62
     7
370
    25
100
AcDbLine
 10
587.4193076122
 20
259.9416954979
 30
0.0
 11
587.4193076122
 21
296.2273939118
 31
0.0
  0
LINE
  5
296
330
1F
100
AcDbEntity
  8
0
  6
Continuous
 62
     7
370
    25
100
AcDbLine
 10
443.4859816063
 20
72.7073981032
 30
0.0
 11
443.4859816063
 21
67.6273985371
 31
0.0
  0
LINE
  5
297
330
1F
100
AcDbEntity
  8
0
  6
Continuous
 62
     7
370
    25
100
AcDbLine
 10
392.6859803576
 20
67.6273985371
 30
0.0
 11
392.6859803576
 21
72.7073981032
 31
0.0
  0
LINE
  5
298
330
1F
100
AcDbEntity
  8
0
  6
Continuous
 62
     7
370
    25
100
AcDbLine
 10
582.3393080461
 20
259.9416954979
 30
0.0
 11
582.3393080461
 21
223.6559672817
 31
0.0
  0
LINE
  5
299
330
1F
100
AcDbEntity
  8
0
  6
Continuous
 62
     7
370
    25
100
AcDbLine
 10
426.5526447523
 20
108.2673950657
 30
0.0
 11
443.4859816063
 21
108.2673950657
 31
0.0
  0
LINE
  5
29A
330
1F
100
AcDbEntity
  8
0
  6
Continuous
 62
     7
370
    25
100
AcDbLine
 10
478.5621751178
 20
47.3074002728
 30
0.0
 11
442.2764543522
 21
47.3074002728
 31
0.0
  0
LINE
  5
29B
330
1F
100
AcDbEntity
  8
0
  6
Continuous
 62
     7
370
    25
100
AcDbLine
 10
409.6193153489
 20
72.7073981032
 30
0.0
 11
409.6193153489
 21
67.6273985371
 31
0.0
  0
LINE
  5
29C
330
1F
100
AcDbEntity
  8
0
  6
Continuous
 62
     7
370
    25
100
AcDbLine
 10
455.3393114436
 20
82.8673972353
 30
0.0
 11
455.3393114436
 21
93.0273963675
 31
0.0
  0
LINE
  5
29D
330
1F
100
AcDbEntity
  8
0
  6
Continuous
 62
     7
370
    25
100
AcDbLine
 10
338.4993139732
 20
114.7988422379
 30
0.0
 11
333.4193144072
 21
114.7988422379
 31
0.0
  0
LINE
  5
29E
330
1F
100
AcDbEntity
  8
0
  6
Continuous
 62
     7
370
    25
100
AcDbLine
 10
514.8478809822
 20
47.3074002728
 30
0.0
 11
514.8478809822
 21
42.2274007067
 31
0.0
  0
LINE
  5
29F
330
1F
100
AcDbEntity
  8
0
  6
Continuous
 62
     7
370
    25
100
AcDbLine
 10
582.3393080461
 20
187.3702688679
 30
0.0
 11
582.3393080461
 21
151.0845406517
 31
0.0
  0
LINE
  5
2A0
330
1F
100
AcDbEntity
  8
0
  6
Continuous
 62
     7
370
    25
100
AcDbLine
 10
548.9923123348
 20
200.3423853382
 30
0.0
 11
548.9923123348
 21
182.5624092087
 31
0.0
  0
LINE
  5
2A1
330
1F
100
AcDbEntity
  8
0
  6
Continuous
 62
     7
370
    25
100
AcDbLine
 10
541.7752925385
 20
195.4285486206
 30
0.0
 11
541.7752925385
 21
200.5085332855
 31
0.0
  0
LINE
  5
2A2
330
1F
100
AcDbEntity
  8
0
  6
Continuous
 62
     7
370
    25
100
AcDbLine
 10
333.4193144072
 20
151.0845406517
 30
0.0
 11
333.4193144072
 21
114.7988422379
 31
0.0
  0
LINE
  5
2A3
330
1F
100
AcDbEntity
  8
0
  6
Continuous
 62
     7
370
    25
100
AcDbLine
 10
375.7526472289
 20
72.7073981032
 30
0.0
 11
375.7526472289
 21
67.6273985371
 31
0.0
  0
LINE
  5
2A4
330
1F
100
AcDbEntity
  8
0
  6
Continuous
 62
     7
370
    25
100
AcDbLine
 10
405.9907410372
 20
47.3074002728
 30
0.0
 11
369.7050286535
 21
47.3074002728
 31
0.0
  0
LINE
  5
2A5
330
1F
100
AcDbEntity
  8
0
  6
Continuous
 62
     7
370
    25
100
AcDbLine
 10
551.1335942972
 20
42.2274007067
 30
0.0
 11
587.4193076122
 21
42.2274007067
 31
0.0
  0
LINE
  5
2A6
330
1F
100
AcDbEntity
  8
0
  6
Continuous
 62
     7
370
    25
100
AcDbLine
 10
442.2764543522
 20
291.1474092468
 30
0.0
 11
442.2764543522
 21
296.2273939118
 31
0.0
  0
LINE
  5
2A7
330
1F
100
AcDbEntity
  8
0
  6
Continuous
 62
     7
370
    25
100
AcDbLine
 10
333.4193144072
 20
296.2273939118
 30
0.0
 11
333.4193144072
 21
259.9416954979
 31
0.0
  0
LINE
  5
2A8
330
1F
100
AcDbEntity
  8
0
  6
Continuous
 62
     7
370
    25
100
AcDbLine
 10
242.1393159855
 20
211.9874043926
 30
0.0
 11
276.2193147171
 21
211.9874043926
 31
0.0
  0
LINE
  5
2A9
330
1F
100
AcDbEntity
  8
0
  6
Continuous
 62
     7
370
    25
100
AcDbLine
 10
276.2193147171
 20
280.9874101147
 30
0.0
 11
276.2193147171
 21
211.9874043926
 31
0.0
  0
LINE
  5
2AA
330
1F
100
AcDbEntity
  8
0
  6
Continuous
 62
     7
370
    25
100
AcDbLine
 10
242.1393159855
 20
280.9874101147
 30
0.0
 11
276.2193147171
 21
280.9874101147
 31
0.0
  0
LINE
  5
2AB
330
1F
100
AcDbEntity
  8
0
  6
Continuous
 62
     7
370
    25
100
AcDbLine
 10
242.1393159855
 20
280.9874101147
 30
0.0
 11
242.1393159855
 21
257.9874082073
 31
0.0
  0
LINE
  5
2AC
330
1F
100
AcDbEntity
  8
0
  6
Continuous
 62
     7
370
    25
100
AcDbLine
 10
242.1393159855
 20
257.9874082073
 30
0.0
 11
247.2193155516
 21
257.9874082073
 31
0.0
  0
LINE
  5
2AD
330
1F
100
AcDbEntity
  8
0
  6
Continuous
 62
     7
370
    25
100
AcDbLine
 10
247.2193155516
 20
257.9874082073
 30
0.0
 11
247.2193155516
 21
234.9874063
 31
0.0
  0
LINE
  5
2AE
330
1F
100
AcDbEntity
  8
0
  6
Continuous
 62
     7
370
    25
100
AcDbLine
 10
242.1393159855
 20
234.9874063
 30
0.0
 11
247.2193155516
 21
234.9874063
 31
0.0
  0
LINE
  5
2AF
330
1F
100
AcDbEntity
  8
0
  6
Continuous
 62
     7
370
    25
100
AcDbLine
 10
242.1393159855
 20
234.9874063
 30
0.0
 11
242.1393159855
 21
211.9874043926
 31
0.0
  0
LINE
  5
2B0
330
1F
100
AcDbEntity
  8
0
  6
Continuous
 62
     7
370
    25
100
AcDbLine
 10
264.2593149174
 20
85.4074044689
 30
0.0
 11
264.2593149174
 21
98.1073959335
 31
0.0
  0
LINE
  5
2B1
330
1F
100
AcDbEntity
  8
0
  6
Continuous
 62
     7
370
    25
100
AcDbLine
 10
264.2593149174
 20
98.1073959335
 30
0.0
 11
259.1793153513
 21
98.1073959335
 31
0.0
  0
LINE
  5
2B2
330
1F
100
AcDbEntity
  8
0
  6
Continuous
 62
     7
370
    25
100
AcDbLine
 10
259.1793153513
 20
85.4074044689
 30
0.0
 11
259.1793153513
 21
98.1073959335
 31
0.0
  0
LINE
  5
2B3
330
1F
100
AcDbEntity
  8
0
  6
Continuous
 62
     7
370
    25
100
AcDbLine
 10
264.2593149174
 20
85.4074044689
 30
0.0
 11
259.1793153513
 21
85.4074044689
 31
0.0
  0
LINE
  5
2B4
330
1F
100
AcDbEntity
  8
0
  6
Continuous
 62
     7
370
    25
100
AcDbLine
 10
105.7050142515
 20
296.2273939118
 30
0.0
 11
69.4193158377
 21
296.2273939118
 31
0.0
  0
LINE
  5
2B5
330
1F
100
AcDbEntity
  8
0
  6
Continuous
 62
     7
370
    25
100
AcDbLine
 10
105.7050142515
 20
291.1474092468
 30
0.0
 11
141.9907424677
 21
291.1474092468
 31
0.0
  0
LINE
  5
2B6
330
1F
100
AcDbEntity
  8
0
  6
Continuous
 62
     7
370
    25
100
AcDbLine
 10
141.9907424677
 20
291.1474092468
 30
0.0
 11
141.9907424677
 21
296.2273939118
 31
0.0
  0
LINE
  5
2B7
330
1F
100
AcDbEntity
  8
0
  6
Continuous
 62
     7
370
    25
100
AcDbLine
 10
178.2764557827
 20
291.1474092468
 30
0.0
 11
178.2764557827
 21
296.2273939118
 31
0.0
  0
LINE
  5
2B8
330
1F
100
AcDbEntity
  8
0
  6
Continuous
 62
     7
370
    25
100
AcDbLine
 10
178.2764557827
 20
291.1474092468
 30
0.0
 11
214.5621690977
 21
291.1474092468
 31
0.0
  0
LINE
  5
2B9
330
1F
100
AcDbEntity
  8
0
  6
Continuous
 62
     7
370
    25
100
AcDbLine
 10
214.5621690977
 20
291.1474092468
 30
0.0
 11
214.5621690977
 21
296.2273939118
 31
0.0
  0
LINE
  5
2BA
330
1F
100
AcDbEntity
  8
0
  6
Continuous
 62
     7
370
    25
100
AcDbLine
 10
250.8478824127
 20
296.2273939118
 30
0.0
 11
214.5621690977
 21
296.2273939118
 31
0.0
  0
LINE
  5
2BB
330
1F
100
AcDbEntity
  8
0
  6
Continuous
 62
     7
370
    25
100
AcDbLine
 10
250.8478824127
 20
291.1474092468
 30
0.0
 11
250.8478824127
 21
296.2273939118
 31
0.0
  0
LINE
  5
2BC
330
1F
100
AcDbEntity
  8
0
  6
Continuous
 62
     7
370
    25
100
AcDbLine
 10
250.8478824127
 20
291.1474092468
 30
0.0
 11
287.1336031783
 21
291.1474092468
 31
0.0
  0
LINE
  5
2BD
330
1F
100
AcDbEntity
  8
0
  6
Continuous
 62
     7
370
    25
100
AcDbLine
 10
287.1336031783
 20
291.1474092468
 30
0.0
 11
287.1336031783
 21
296.2273939118
 31
0.0
  0
LINE
  5
2BE
330
1F
100
AcDbEntity
  8
0
  6
Continuous
 62
     7
370
    25
100
AcDbLine
 10
323.419312768
 20
296.2273939118
 30
0.0
 11
287.1336031783
 21
296.2273939118
 31
0.0
  0
LINE
  5
2BF
330
1F
100
AcDbEntity
  8
0
  6
Continuous
 62
     7
370
    25
100
AcDbLine
 10
323.419312768
 20
261.1802800163
 30
0.0
 11
323.419312768
 21
296.2273939118
 31
0.0
  0
LINE
  5
2C0
330
1F
100
AcDbEntity
  8
0
  6
Continuous
 62
     7
370
    25
100
AcDbLine
 10
318.339313202
 20
261.1802800163
 30
0.0
 11
323.419312768
 21
261.1802800163
 31
0.0
  0
LINE
  5
2C1
330
1F
100
AcDbEntity
  8
0
  6
Continuous
 62
     7
370
    25
100
AcDbLine
 10
318.339313202
 20
261.1802800163
 30
0.0
 11
318.339313202
 21
223.6559672817
 31
0.0
  0
LINE
  5
2C2
330
1F
100
AcDbEntity
  8
0
  6
Continuous
 62
     7
370
    25
100
AcDbLine
 10
318.339313202
 20
223.6559672817
 30
0.0
 11
323.419312768
 21
223.6559672817
 31
0.0
  0
LINE
  5
2C3
330
1F
100
AcDbEntity
  8
0
  6
Continuous
 62
     7
370
    25
100
AcDbLine
 10
323.419312768
 20
187.3702688679
 30
0.0
 11
323.419312768
 21
223.6559672817
 31
0.0
  0
LINE
  5
2C4
330
1F
100
AcDbEntity
  8
0
  6
Continuous
 62
     7
370
    25
100
AcDbLine
 10
318.339313202
 20
187.3702688679
 30
0.0
 11
323.419312768
 21
187.3702688679
 31
0.0
  0
LINE
  5
2C5
330
1F
100
AcDbEntity
  8
0
  6
Continuous
 62
     7
370
    25
100
AcDbLine
 10
318.339313202
 20
187.3702688679
 30
0.0
 11
318.339313202
 21
151.0845406517
 31
0.0
  0
LINE
  5
2C6
330
1F
100
AcDbEntity
  8
0
  6
Continuous
 62
     7
370
    25
100
AcDbLine
 10
318.339313202
 20
151.0845406517
 30
0.0
 11
323.419312768
 21
151.0845406517
 31
0.0
  0
LINE
  5
2C7
330
1F
100
AcDbEntity
  8
0
  6
Continuous
 62
     7
370
    25
100
AcDbLine
 10
323.419312768
 20
114.7988422379
 30
0.0
 11
323.419312768
 21
151.0845406517
 31
0.0
  0
LINE
  5
2C8
330
1F
100
AcDbEntity
  8
0
  6
Continuous
 62
     7
370
    25
100
AcDbLine
 10
318.339313202
 20
114.7988422379
 30
0.0
 11
323.419312768
 21
114.7988422379
 31
0.0
  0
LINE
  5
2C9
330
1F
100
AcDbEntity
  8
0
  6
Continuous
 62
     7
370
    25
100
AcDbLine
 10
318.339313202
 20
114.7988422379
 30
0.0
 11
318.339313202
 21
78.5131140217
 31
0.0
  0
LINE
  5
2CA
330
1F
100
AcDbEntity
  8
0
  6
Continuous
 62
     7
370
    25
100
AcDbLine
 10
318.339313202
 20
78.5131140217
 30
0.0
 11
323.419312768
 21
78.5131140217
 31
0.0
  0
LINE
  5
2CB
330
1F
100
AcDbEntity
  8
0
  6
Continuous
 62
     7
370
    25
100
AcDbLine
 10
323.419312768
 20
42.2274007067
 30
0.0
 11
323.419312768
 21
78.5131140217
 31
0.0
  0
LINE
  5
2CC
330
1F
100
AcDbEntity
  8
0
  6
Continuous
 62
     7
370
    25
100
AcDbLine
 10
287.1336031783
 20
42.2274007067
 30
0.0
 11
323.419312768
 21
42.2274007067
 31
0.0
  0
LINE
  5
2CD
330
1F
100
AcDbEntity
  8
0
  6
Continuous
 62
     7
370
    25
100
AcDbLine
 10
287.1336031783
 20
47.3074002728
 30
0.0
 11
287.1336031783
 21
42.2274007067
 31
0.0
  0
LINE
  5
2CE
330
1F
100
AcDbEntity
  8
0
  6
Continuous
 62
     7
370
    25
100
AcDbLine
 10
250.8478824127
 20
47.3074002728
 30
0.0
 11
250.8478824127
 21
42.2274007067
 31
0.0
  0
LINE
  5
2CF
330
1F
100
AcDbEntity
  8
0
  6
Continuous
 62
     7
370
    25
100
AcDbLine
 10
214.5621690977
 20
47.3074002728
 30
0.0
 11
214.5621690977
 21
42.2274007067
 31
0.0
  0
LINE
  5
2D0
330
1F
100
AcDbEntity
  8
0
  6
Continuous
 62
     7
370
    25
100
AcDbLine
 10
214.5621690977
 20
47.3074002728
 30
0.0
 11
178.2764557827
 21
47.3074002728
 31
0.0
  0
LINE
  5
2D1
330
1F
100
AcDbEntity
  8
0
  6
Continuous
 62
     7
370
    25
100
AcDbLine
 10
178.2764557827
 20
47.3074002728
 30
0.0
 11
178.2764557827
 21
42.2274007067
 31
0.0
  0
LINE
  5
2D2
330
1F
100
AcDbEntity
  8
0
  6
Continuous
 62
     7
370
    25
100
AcDbLine
 10
141.9907424677
 20
42.2274007067
 30
0.0
 11
178.2764557827
 21
42.2274007067
 31
0.0
  0
LINE
  5
2D3
330
1F
100
AcDbEntity
  8
0
  6
Continuous
 62
     7
370
    25
100
AcDbLine
 10
141.9907424677
 20
47.3074002728
 30
0.0
 11
141.9907424677
 21
42.2274007067
 31
0.0
  0
LINE
  5
2D4
330
1F
100
AcDbEntity
  8
0
  6
Continuous
 62
     7
370
    25
100
AcDbLine
 10
141.9907424677
 20
47.3074002728
 30
0.0
 11
105.7050142515
 21
47.3074002728
 31
0.0
  0
LINE
  5
2D5
330
1F
100
AcDbEntity
  8
0
  6
Continuous
 62
     7
370
    25
100
AcDbLine
 10
105.7050142515
 20
47.3074002728
 30
0.0
 11
105.7050142515
 21
42.2274007067
 31
0.0
  0
LINE
  5
2D6
330
1F
100
AcDbEntity
  8
0
  6
Continuous
 62
     7
370
    25
100
AcDbLine
 10
69.4193158377
 20
42.2274007067
 30
0.0
 11
105.7050142515
 21
42.2274007067
 31
0.0
  0
LINE
  5
2D7
330
1F
100
AcDbEntity
  8
0
  6
Continuous
 62
     7
370
    25
100
AcDbLine
 10
69.4193158377
 20
78.5131140217
 30
0.0
 11
69.4193158377
 21
42.2274007067
 31
0.0
  0
LINE
  5
2D8
330
1F
100
AcDbEntity
  8
0
  6
Continuous
 62
     7
370
    25
100
AcDbLine
 10
74.4993005026
 20
78.5131140217
 30
0.0
 11
74.4993005026
 21
114.7988422379
 31
0.0
  0
LINE
  5
2D9
330
1F
100
AcDbEntity
  8
0
  6
Continuous
 62
     7
370
    25
100
AcDbLine
 10
74.4993005026
 20
114.7988422379
 30
0.0
 11
69.4193158377
 21
114.7988422379
 31
0.0
  0
LINE
  5
2DA
330
1F
100
AcDbEntity
  8
0
  6
Continuous
 62
     7
370
    25
100
AcDbLine
 10
69.4193158377
 20
151.0845406517
 30
0.0
 11
69.4193158377
 21
114.7988422379
 31
0.0
  0
LINE
  5
2DB
330
1F
100
AcDbEntity
  8
0
  6
Continuous
 62
     7
370
    25
100
AcDbLine
 10
74.4993005026
 20
151.0845406517
 30
0.0
 11
69.4193158377
 21
151.0845406517
 31
0.0
  0
LINE
  5
2DC
330
1F
100
AcDbEntity
  8
0
  6
Continuous
 62
     7
370
    25
100
AcDbLine
 10
74.4993005026
 20
187.3702688679
 30
0.0
 11
69.4193158377
 21
187.3702688679
 31
0.0
  0
LINE
  5
2DD
330
1F
100
AcDbEntity
  8
0
  6
Continuous
 62
     7
370
    25
100
AcDbLine
 10
69.4193158377
 20
223.6559672817
 30
0.0
 11
69.4193158377
 21
187.3702688679
 31
0.0
  0
LINE
  5
2DE
330
1F
100
AcDbEntity
  8
0
  6
Continuous
 62
     7
370
    25
100
AcDbLine
 10
74.4993005026
 20
223.6559672817
 30
0.0
 11
69.4193158377
 21
223.6559672817
 31
0.0
  0
LINE
  5
2DF
330
1F
100
AcDbEntity
  8
0
  6
Continuous
 62
     7
370
    25
100
AcDbLine
 10
74.4993005026
 20
223.6559672817
 30
0.0
 11
74.4993005026
 21
259.9416954979
 31
0.0
  0
LINE
  5
2E0
330
1F
100
AcDbEntity
  8
0
  6
Continuous
 62
     7
370
    25
100
AcDbLine
 10
128.579309963
 20
85.4074044689
 30
0.0
 11
133.6593095291
 21
85.4074044689
 31
0.0
  0
LINE
  5
2E1
330
1F
100
AcDbEntity
  8
0
  6
Continuous
 62
     7
370
    25
100
AcDbLine
 10
133.6593095291
 20
85.4074044689
 30
0.0
 11
133.6593095291
 21
98.1073959335
 31
0.0
  0
LINE
  5
2E2
330
1F
100
AcDbEntity
  8
0
  6
Continuous
 62
     7
370
    25
100
AcDbLine
 10
133.6593095291
 20
98.1073959335
 30
0.0
 11
128.579309963
 21
98.1073959335
 31
0.0
  0
LINE
  5
2E3
330
1F
100
AcDbEntity
  8
0
  6
Continuous
 62
     7
370
    25
100
AcDbLine
 10
128.579309963
 20
98.1073959335
 30
0.0
 11
128.579309963
 21
85.4074044689
 31
0.0
  0
LINE
  5
2E4
330
1F
100
AcDbEntity
  8
0
  6
Continuous
 62
     7
370
    25
100
AcDbLine
 10
116.6193101633
 20
280.9874101147
 30
0.0
 11
116.6193101633
 21
211.9874043926
 31
0.0
  0
LINE
  5
2E5
330
1F
100
AcDbEntity
  8
0
  6
Continuous
 62
     7
370
    25
100
AcDbLine
 10
150.6993088949
 20
211.9874043926
 30
0.0
 11
116.6193101633
 21
211.9874043926
 31
0.0
  0
LINE
  5
2E6
330
1F
100
AcDbEntity
  8
0
  6
Continuous
 62
     7
370
    25
100
AcDbLine
 10
150.6993088949
 20
211.9874043926
 30
0.0
 11
150.6993088949
 21
234.9874063
 31
0.0
  0
LINE
  5
2E7
330
1F
100
AcDbEntity
  8
0
  6
Continuous
 62
     7
370
    25
100
AcDbLine
 10
150.6993088949
 20
234.9874063
 30
0.0
 11
145.6193093288
 21
234.9874063
 31
0.0
  0
LINE
  5
2E8
330
1F
100
AcDbEntity
  8
0
  6
Continuous
 62
     7
370
    25
100
AcDbLine
 10
145.6193093288
 20
257.9874082073
 30
0.0
 11
145.6193093288
 21
234.9874063
 31
0.0
  0
LINE
  5
2E9
330
1F
100
AcDbEntity
  8
0
  6
Continuous
 62
     7
370
    25
100
AcDbLine
 10
150.6993088949
 20
257.9874082073
 30
0.0
 11
145.6193093288
 21
257.9874082073
 31
0.0
  0
LINE
  5
2EA
330
1F
100
AcDbEntity
  8
0
  6
Continuous
 62
     7
370
    25
100
AcDbLine
 10
150.6993088949
 20
257.9874082073
 30
0.0
 11
150.6993088949
 21
280.9874101147
 31
0.0
  0
LINE
  5
2EB
330
1F
100
AcDbEntity
  8
0
  6
Continuous
 62
     7
370
    25
100
AcDbLine
 10
150.6993088949
 20
280.9874101147
 30
0.0
 11
116.6193101633
 21
280.9874101147
 31
0.0
  0
LINE
  5
2EC
330
1F
100
AcDbEntity
  8
0
  6
Continuous
 62
     7
370
    25
100
AcDbLine
 10
310.3564556766
 20
63.5452552303
 30
0.0
 11
300.1964602697
 21
63.5452552303
 31
0.0
  0
LINE
  5
2ED
330
1F
100
AcDbEntity
  8
0
  6
Continuous
 62
     7
370
    25
100
AcDbLine
 10
300.1964602697
 20
63.5452552303
 30
0.0
 11
300.1964602697
 21
57.195259498
 31
0.0
  0
LINE
  5
2EE
330
1F
100
AcDbEntity
  8
0
  6
Continuous
 62
     7
370
    25
100
AcDbLine
 10
300.1964602697
 20
57.195259498
 30
0.0
 11
310.3564556766
 21
57.195259498
 31
0.0
  0
LINE
  5
2EF
330
1F
100
AcDbEntity
  8
0
  6
Continuous
 62
     7
370
    25
100
AcDbLine
 10
310.3564556766
 20
57.195259498
 30
0.0
 11
310.3564556766
 21
63.5452552303
 31
0.0
  0
LINE
  5
2F0
330
1F
100
AcDbEntity
  8
0
  6
Continuous
 62
     7
370
    25
100
AcDbLine
 10
90.0600764978
 20
62.1149970755
 30
0.0
 11
85.0642535913
 21
62.1149970755
 31
0.0
  0
LINE
  5
2F1
330
1F
100
AcDbEntity
  8
0
  6
Continuous
 62
     7
370
    25
100
AcDbLine
 10
85.0642535913
 20
62.1149970755
 30
0.0
 11
85.0642535913
 21
58.6255176529
 31
0.0
  0
LINE
  5
2F2
330
1F
100
AcDbEntity
  8
0
  6
Continuous
 62
     7
370
    25
100
AcDbLine
 10
85.0642535913
 20
58.6255176529
 30
0.0
 11
90.0600764978
 21
58.6255176529
 31
0.0
  0
LINE
  5
2F3
330
1F
100
AcDbEntity
  8
0
  6
Continuous
 62
     7
370
    25
100
AcDbLine
 10
90.0600764978
 20
58.6255176529
 30
0.0
 11
90.0600764978
 21
62.1149970755
 31
0.0
  0
LINE
  5
2F4
330
1F
100
AcDbEntity
  8
0
  6
Continuous
 62
     7
370
    25
100
AcDbLine
 10
74.4993005026
 20
259.9416954979
 30
0.0
 11
69.4193158377
 21
259.9416954979
 31
0.0
  0
LINE
  5
2F5
330
1F
100
AcDbEntity
  8
0
  6
Continuous
 62
     7
370
    25
100
AcDbLine
 10
74.4993005026
 20
151.0845406517
 30
0.0
 11
74.4993005026
 21
187.3702688679
 31
0.0
  0
LINE
  5
2F6
330
1F
100
AcDbEntity
  8
0
  6
Continuous
 62
     7
370
    25
100
AcDbLine
 10
105.7050142515
 20
291.1474092468
 30
0.0
 11
105.7050142515
 21
296.2273939118
 31
0.0
  0
LINE
  5
2F7
330
1F
100
AcDbEntity
  8
0
  6
Continuous
 62
     7
370
    25
100
AcDbLine
 10
74.4993005026
 20
78.5131140217
 30
0.0
 11
69.4193158377
 21
78.5131140217
 31
0.0
  0
LINE
  5
2F8
330
1F
100
AcDbEntity
  8
0
  6
Continuous
 62
     7
370
    25
100
AcDbLine
 10
178.2764557827
 20
296.2273939118
 30
0.0
 11
141.9907424677
 21
296.2273939118
 31
0.0
  0
LINE
  5
2F9
330
1F
100
AcDbEntity
  8
0
  6
Continuous
 62
     7
370
    25
100
AcDbLine
 10
69.4193158377
 20
296.2273939118
 30
0.0
 11
69.4193158377
 21
259.9416954979
 31
0.0
  0
LINE
  5
2FA
330
1F
100
AcDbEntity
  8
0
  6
Continuous
 62
     7
370
    25
100
AcDbLine
 10
287.1336031783
 20
47.3074002728
 30
0.0
 11
250.8478824127
 21
47.3074002728
 31
0.0
  0
LINE
  5
2FB
330
1F
100
AcDbEntity
  8
0
  6
Continuous
 62
     7
370
    25
100
AcDbLine
 10
214.5621690977
 20
42.2274007067
 30
0.0
 11
250.8478824127
 21
42.2274007067
 31
0.0
  0
INSERT
  5
307
330
1F
100
AcDbEntity
  8
0
  6
Continuous
 62
     7
370
    18
100
AcDbBlockReference
  2
SW_CENTERMARKSYMBOL_0
 10
460.4193142857
 20
169.2274
 30
0.0
  0
ENDSEC
  0
SECTION
  2
OBJECTS
  0
DICTIONARY
  5
C
330
0
100
AcDbDictionary
281
     1
  3
ACAD_GROUP
350
D
  3
ACAD_LAYOUT
350
1A
  3
ACAD_MLINESTYLE
350
17
  3
ACAD_PLOTSETTINGS
350
19
  3
ACAD_PLOTSTYLENAME
350
E
  3
ACAD_SCALELIST
350
47
  0
DICTIONARY
  5
D
102
{ACAD_REACTORS
330
C
102
}
330
C
100
AcDbDictionary
281
     1
  0
DICTIONARY
  5
1A
102
{ACAD_REACTORS
330
C
102
}
330
C
100
AcDbDictionary
281
     1
  3
Layout1
350
1E
  3
Layout2
350
26
  3
Model
350
22
  0
DICTIONARY
  5
17
102
{ACAD_REACTORS
330
C
102
}
330
C
100
AcDbDictionary
281
     1
  3
Standard
350
18
  0
DICTIONARY
  5
19
102
{ACAD_REACTORS
330
C
102
}
330
C
100
AcDbDictionary
281
     1
  0
ACDBDICTIONARYWDFLT
  5
E
102
{ACAD_REACTORS
330
C
102
}
330
C
100
AcDbDictionary
281
     1
  3
Normal
350
F
100
AcDbDictionaryWithDefault
340
F
  0
DICTIONARY
  5
47
102
{ACAD_REACTORS
330
C
102
}
330
C
100
AcDbDictionary
281
     1
  3
A0
350
48
  3
A1
350
49
  3
A2
350
4A
  3
A3
350
4B
  3
A4
350
4C
  3
A5
350
4D
  3
A6
350
4E
  3
A7
350
4F
  3
A8
350
50
  3
A9
350
51
  3
B0
350
52
  3
B1
350
53
  3
B2
350
54
  3
B3
350
55
  3
B4
350
56
  3
B5
350
57
  3
B6
350
58
  3
B7
350
59
  3
B8
350
5A
  3
B9
350
5B
  3
C0
350
5C
  3
C1
350
5D
  3
C2
350
5E
  3
C3
350
5F
  3
C4
350
60
  3
C5
350
61
  3
C6
350
62
  3
C7
350
63
  3
C8
350
64
  3
C9
350
65
  3
D0
350
66
  3
D1
350
67
  3
D2
350
68
  0
LAYOUT
  5
1E
102
{ACAD_REACTORS
330
1A
102
}
330
1A
100
AcDbPlotSettings
  1

  2
none_device
  4

  6

 40
0.0
 41
0.0
 42
0.0
 43
0.0
 44
0.0
 45
0.0
 46
0.0
 47
0.0
 48
0.0
 49
0.0
140
0.0
141
0.0
142
1.0
143
1.0
 70
   688
 72
     1
 73
     0
 74
     5
  7

 75
    16
147
1.0
148
0.0
149
0.0
100
AcDbLayout
  1
Layout1
 70
     1
 71
     1
 10
0.0
 20
0.0
 11
420.0
 21
297.0
 12
0.0
 22
0.0
 32
0.0
 14
1.0000000000E+20
 24
1.0000000000E+20
 34
1.0000000000E+20
 15
-1.0000000000E+20
 25
-1.0000000000E+20
 35
-1.0000000000E+20
146
0.0
 13
0.0
 23
0.0
 33
0.0
 16
1.0
 26
0.0
 36
0.0
 17
0.0
 27
1.0
 37
0.0
 76
     0
330
1B
  0
LAYOUT
  5
26
102
{ACAD_REACTORS
330
1A
102
}
330
1A
100
AcDbPlotSettings
  1

  2
none_device
  4

  6

 40
0.0
 41
0.0
 42
0.0
 43
0.0
 44
0.0
 45
0.0
 46
0.0
 47
0.0
 48
0.0
 49
0.0
140
0.0
141
0.0
142
1.0
143
1.0
 70
   688
 72
     1
 73
     0
 74
     5
  7

 75
    16
147
1.0
148
0.0
149
0.0
100
AcDbLayout
  1
Layout2
 70
     1
 71
     2
 10
0.0
 20
0.0
 11
0.0
 21
0.0
 12
0.0
 22
0.0
 32
0.0
 14
0.0
 24
0.0
 34
0.0
 15
0.0
 25
0.0
 35
0.0
146
0.0
 13
0.0
 23
0.0
 33
0.0
 16
1.0
 26
0.0
 36
0.0
 17
0.0
 27
1.0
 37
0.0
 76
     0
330
23
  0
LAYOUT
  5
22
102
{ACAD_REACTORS
330
1A
102
}
330
1A
100
AcDbPlotSettings
  1

  2
none_device
  4
Letter_(8.50_x_11.00_Inches)
  6

 40
6.35
 41
6.35
 42
6.35000508
 43
6.35000508
 44
215.9
 45
279.4
 46
0.0
 47
0.0
 48
0.0
 49
0.0
140
0.0
141
0.0
142
1.0
143
1.0
 70
  1712
 72
     1
 73
     0
 74
     0
  7

 75
     0
147
1.0
148
0.0
149
0.0
100
AcDbLayout
  1
Model
 70
     1
 71
     0
 10
0.0
 20
0.0
 11
609.6
 21
609.6
 12
0.0
 22
0.0
 32
0.0
 14
0.0
 24
0.0
 34
0.0
 15
609.6
 25
609.6
 35
0.0
146
0.0
 13
0.0
 23
0.0
 33
0.0
 16
1.0
 26
0.0
 36
0.0
 17
0.0
 27
1.0
 37
0.0
 76
     0
330
1F
331
29
  0
MLINESTYLE
  5
18
102
{ACAD_REACTORS
330
17
102
}
330
17
100
AcDbMlineStyle
  2
Standard
 70
     0
  3

 62
   256
 51
90.0
 52
90.0
 71
     2
 49
0.5
 62
   256
  6
BYLAYER
 49
-0.5
 62
   256
  6
BYLAYER
  0
ACDBPLACEHOLDER
  5
F
102
{ACAD_REACTORS
330
E
102
}
330
E
  0
SCALE
  5
48
102
{ACAD_REACTORS
330
47
102
}
330
47
100
AcDbScale
 70
     0
300
1:1
140
1.0
141
1.0
290
     1
  0
SCALE
  5
49
102
{ACAD_REACTORS
330
47
102
}
330
47
100
AcDbScale
 70
     0
300
1:2
140
1.0
141
2.0
290
     0
  0
SCALE
  5
4A
102
{ACAD_REACTORS
330
47
102
}
330
47
100
AcDbScale
 70
     0
300
1:4
140
1.0
141
4.0
290
     0
  0
SCALE
  5
4B
102
{ACAD_REACTORS
330
47
102
}
330
47
100
AcDbScale
 70
     0
300
1:5
140
1.0
141
5.0
290
     0
  0
SCALE
  5
4C
102
{ACAD_REACTORS
330
47
102
}
330
47
100
AcDbScale
 70
     0
300
1:8
140
1.0
141
8.0
290
     0
  0
SCALE
  5
4D
102
{ACAD_REACTORS
330
47
102
}
330
47
100
AcDbScale
 70
     0
300
1:10
140
1.0
141
10.0
290
     0
  0
SCALE
  5
4E
102
{ACAD_REACTORS
330
47
102
}
330
47
100
AcDbScale
 70
     0
300
1:16
140
1.0
141
16.0
290
     0
  0
SCALE
  5
4F
102
{ACAD_REACTORS
330
47
102
}
330
47
100
AcDbScale
 70
     0
300
1:20
140
1.0
141
20.0
290
     0
  0
SCALE
  5
50
102
{ACAD_REACTORS
330
47
102
}
330
47
100
AcDbScale
 70
     0
300
1:30
140
1.0
141
30.0
290
     0
  0
SCALE
  5
51
102
{ACAD_REACTORS
330
47
102
}
330
47
100
AcDbScale
 70
     0
300
1:40
140
1.0
141
40.0
290
     0
  0
SCALE
  5
52
102
{ACAD_REACTORS
330
47
102
}
330
47
100
AcDbScale
 70
     0
300
1:50
140
1.0
141
50.0
290
     0
  0
SCALE
  5
53
102
{ACAD_REACTORS
330
47
102
}
330
47
100
AcDbScale
 70
     0
300
1:100
140
1.0
141
100.0
290
     0
  0
SCALE
  5
54
102
{ACAD_REACTORS
330
47
102
}
330
47
100
AcDbScale
 70
     0
300
2:1
140
2.0
141
1.0
290
     0
  0
SCALE
  5
55
102
{ACAD_REACTORS
330
47
102
}
330
47
100
AcDbScale
 70
     0
300
4:1
140
4.0
141
1.0
290
     0
  0
SCALE
  5
56
102
{ACAD_REACTORS
330
47
102
}
330
47
100
AcDbScale
 70
     0
300
8:1
140
8.0
141
1.0
290
     0
  0
SCALE
  5
57
102
{ACAD_REACTORS
330
47
102
}
330
47
100
AcDbScale
 70
     0
300
10:1
140
10.0
141
1.0
290
     0
  0
SCALE
  5
58
102
{ACAD_REACTORS
330
47
102
}
330
47
100
AcDbScale
 70
     0
300
100:1
140
100.0
141
1.0
290
     0
  0
SCALE
  5
59
102
{ACAD_REACTORS
330
47
102
}
330
47
100
AcDbScale
 70
     0
300
1/128" = 1'-0"
140
0.0078125
141
12.0
290
     0
  0
SCALE
  5
5A
102
{ACAD_REACTORS
330
47
102
}
330
47
100
AcDbScale
 70
     0
300
1/64" = 1'-0"
140
0.015625
141
12.0
290
     0
  0
SCALE
  5
5B
102
{ACAD_REACTORS
330
47
102
}
330
47
100
AcDbScale
 70
     0
300
1/32" = 1'-0"
140
0.03125
141
12.0
290
     0
  0
SCALE
  5
5C
102
{ACAD_REACTORS
330
47
102
}
330
47
100
AcDbScale
 70
     0
300
1/16" = 1'-0"
140
0.0625
141
12.0
290
     0
  0
SCALE
  5
5D
102
{ACAD_REACTORS
330
47
102
}
330
47
100
AcDbScale
 70
     0
300
3/32" = 1'-0"
140
0.09375
141
12.0
290
     0
  0
SCALE
  5
5E
102
{ACAD_REACTORS
330
47
102
}
330
47
100
AcDbScale
 70
     0
300
1/8" = 1'-0"
140
0.125
141
12.0
290
     0
  0
SCALE
  5
5F
102
{ACAD_REACTORS
330
47
102
}
330
47
100
AcDbScale
 70
     0
300
3/16" = 1'-0"
140
0.1875
141
12.0
290
     0
  0
SCALE
  5
60
102
{ACAD_REACTORS
330
47
102
}
330
47
100
AcDbScale
 70
     0
300
1/4" = 1'-0"
140
0.25
141
12.0
290
     0
  0
SCALE
  5
61
102
{ACAD_REACTORS
330
47
102
}
330
47
100
AcDbScale
 70
     0
300
3/8" = 1'-0"
140
0.375
141
12.0
290
     0
  0
SCALE
  5
62
102
{ACAD_REACTORS
330
47
102
}
330
47
100
AcDbScale
 70
     0
300
1/2" = 1'-0"
140
0.5
141
12.0
290
     0
  0
SCALE
  5
63
102
{ACAD_REACTORS
330
47
102
}
330
47
100
AcDbScale
 70
     0
300
3/4" = 1'-0"
140
0.75
141
12.0
290
     0
  0
SCALE
  5
64
102
{ACAD_REACTORS
330
47
102
}
330
47
100
AcDbScale
 70
     0
300
1" = 1'-0"
140
1.0
141
12.0
290
     0
  0
SCALE
  5
65
102
{ACAD_REACTORS
330
47
102
}
330
47
100
AcDbScale
 70
     0
300
1-1/2" = 1'-0"
140
1.5
141
12.0
290
     0
  0
SCALE
  5
66
102
{ACAD_REACTORS
330
47
102
}
330
47
100
AcDbScale
 70
     0
300
3" = 1'-0"
140
3.0
141
12.0
290
     0
  0
SCALE
  5
67
102
{ACAD_REACTORS
330
47
102
}
330
47
100
AcDbScale
 70
     0
300
6" = 1'-0"
140
6.0
141
12.0
290
     0
  0
SCALE
  5
68
102
{ACAD_REACTORS
330
47
102
}
330
47
100
AcDbScale
 70
     0
300
1'-0" = 1'-0"
140
12.0
141
12.0
290
     0
  0
ENDSEC
  0
EOF
